SplineFontDB: 3.2
FontName: CatsPaw-Base
FullName: CatsPaw Base
FamilyName: CatsPaw
Weight: Base
Copyright: (c) 2022, Ilya Mizus aka bigfatbrowncat
Version: 001.005
ItalicAngle: 0
UnderlinePosition: -100
UnderlineWidth: 51
Ascent: 819
Descent: 205
InvalidEm: 0
sfntRevision: 0x00010000
LayerCount: 2
Layer: 0 1 "Back" 1
Layer: 1 1 "Fore" 0
XUID: [1021 519 -785824813 14359]
StyleMap: 0x0040
FSType: 0
OS2Version: 4
OS2_WeightWidthSlopeOnly: 0
OS2_UseTypoMetrics: 0
CreationTime: 1650111813
ModificationTime: 1652259126
PfmFamily: 17
TTFWeight: 400
TTFWidth: 5
LineGap: 92
VLineGap: 0
Panose: 2 0 5 3 0 0 0 0 0 0
OS2TypoAscent: 819
OS2TypoAOffset: 0
OS2TypoDescent: -205
OS2TypoDOffset: 0
OS2TypoLinegap: 92
OS2WinAscent: 958
OS2WinAOffset: 0
OS2WinDescent: 460
OS2WinDOffset: 0
HheadAscent: 958
HheadAOffset: 0
HheadDescent: -460
HheadDOffset: 0
OS2SubXSize: 666
OS2SubYSize: 717
OS2SubXOff: 0
OS2SubYOff: 143
OS2SupXSize: 666
OS2SupYSize: 717
OS2SupXOff: 0
OS2SupYOff: 492
OS2StrikeYSize: 50
OS2StrikeYPos: 264
OS2CapHeight: 823
OS2XHeight: 527
OS2Vendor: 'CLGR'
OS2CodePages: 00000004.00000000
OS2UnicodeRanges: 00000203.00000000.00000000.00000000
MarkAttachClasses: 1
DEI: 91125
TtTable: prep
PUSHW_1
 511
SCANCTRL
PUSHB_1
 4
SCANTYPE
EndTTInstrs
ShortTable: cvt  3
  33
  633
  648
EndShort
ShortTable: maxp 16
  1
  0
  287
  260
  4
  163
  4
  2
  0
  1
  1
  0
  64
  46
  1
  1
EndShort
LangName: 1033 "" "" "" "" "" "Version 001.005" "" "" "" "" "Created with Calligraphr.com" "" "" "" "" "" "Catspaw" "Regular"
GaspTable: 1 65535 15 1
Encoding: Custom
UnicodeInterp: none
NameList: AGL For New Fonts
DisplaySize: -48
AntiAlias: 1
FitToEm: 0
WinInfo: 52 26 10
BeginPrivate: 0
EndPrivate
Grid
-1024 236.25 m 0
 2048 236.25 l 1024
-1024 -378 m 0
 2048 -378 l 1024
  Named: "tail_end"
-1024 490.880004883 m 0
 2048 490.880004883 l 1024
  Named: "small_top"
EndSplineSet
BeginChars: 289 289

StartChar: .notdef
Encoding: 259 -1 0
Width: 404
Flags: W
LayerCount: 2
Fore
SplineSet
73 647.5 m 1,0,-1
 73 34.5 l 1,1,-1
 267 34.5 l 1,2,-1
 267 647.5 l 1,3,-1
 73 647.5 l 1,0,-1
29 682.5 m 1,4,-1
 311 682.5 l 1,5,-1
 311 -0.5 l 1,6,-1
 301 -0.5 l 1,7,-1
 29 0.5 l 1,8,-1
 29 682.5 l 1,4,-1
EndSplineSet
EndChar

StartChar: exclam
Encoding: 33 33 34
Width: 242
GlyphClass: 2
Flags: W
LayerCount: 2
Fore
SplineSet
101.062222222 144.433333333 m 2,0,-1
 91.0622222222 144.433333333 l 2,1,2
 77.9333333333 144.433333333 77.9333333333 144.433333333 77 157.5 c 0,3,4
 76 173 76 173 75.5 199.5 c 2,5,-1
 75.5 200.5 l 2,6,7
 75.5 227 75.5 227 77 264.5 c 2,8,-1
 88.9865802285 686.028071369 l 2,9,10
 88.9583333333 687.254530013 88.9583333333 687.254530013 88.9583333333 688.440972222 c 2,11,-1
 88.9583333333 689.440972222 l 2,12,13
 88.9583333333 722.583333333 88.9583333333 722.583333333 111 724.5 c 0,14,15
 113.447368421 724.736842105 113.447368421 724.736842105 115.689058172 724.736842105 c 2,16,-1
 125.689058172 724.736842105 l 2,17,18
 150.121212121 724.736842105 150.121212121 724.736842105 150.121212121 696.602846648 c 2,19,-1
 150.121212121 695.602846648 l 2,20,21
 150.121212121 693.869146006 150.121212121 693.869146006 128 261.5 c 1,22,23
 123 186.5 123 186.5 118 155.5 c 0,24,25
 116 144.5 116 144.5 103 144.5 c 0,26,27
 102 144.433333333 102 144.433333333 101.062222222 144.433333333 c 2,0,-1
139.782608696 26.2655954631 m 2,28,-1
 139.782608696 25.2655954631 l 2,29,30
 139.782608696 -0.934782608696 139.782608696 -0.934782608696 105 -10.5 c 0,31,32
 97.0344827586 -12.5862068966 97.0344827586 -12.5862068966 90.4357907253 -12.5862068966 c 2,33,-1
 80.4357907253 -12.5862068966 l 2,34,35
 52.2413793103 -12.5862068966 52.2413793103 -12.5862068966 49 25.5 c 0,36,37
 48.6279069767 29.1279069767 48.6279069767 29.1279069767 48.6279069767 32.4962141698 c 2,38,-1
 48.6279069767 33.4962141698 l 2,39,40
 48.6279069767 66.3372093023 48.6279069767 66.3372093023 84 74.5 c 0,41,42
 89.5862068966 75.8965517241 89.5862068966 75.8965517241 94.522294887 75.8965517241 c 2,43,-1
 104.522294887 75.8965517241 l 2,44,45
 131.396551724 75.8965517241 131.396551724 75.8965517241 139 34.5 c 0,46,47
 139.782608696 30.1956521739 139.782608696 30.1956521739 139.782608696 26.2655954631 c 2,28,-1
EndSplineSet
EndChar

StartChar: hyphen
Encoding: 45 45 46
Width: 378
GlyphClass: 2
Flags: W
LayerCount: 2
Fore
SplineSet
61 363.5 m 1,0,-1
 61 364.5 l 1,1,-1
 62.5 374.5 l 1,2,3
 120 374 120 374 305 379.5 c 1,4,-1
 315 379.5 l 1,5,-1
 315 378.5 l 1,6,7
 315 368.541015625 315 368.541015625 313 368.5 c 2,8,-1
 71 363.5 l 1,9,-1
 61 363.5 l 1,0,-1
EndSplineSet
EndChar

StartChar: question
Encoding: 63 63 64
Width: 510
GlyphClass: 2
Flags: W
LayerCount: 2
Back
SplineSet
70.53125 649 m 132,-1,0
 70.53125 661 70.53125 661 82.53125 661 c 132,-1,1
 94.53125 661 94.53125 661 94.53125 649 c 132,-1,2
 94.53125 637 94.53125 637 82.53125 637 c 132,-1,3
 70.53125 637 70.53125 637 70.53125 649 c 132,-1,0
EndSplineSet
Fore
SplineSet
213.924389457 252.836795162 m 0
 214.171328941 205.772118998 214.171328941 205.772118998 262 172.5 c 1
 255 167.5 255 167.5 247 163.5 c 1
 237 163.5 l 1
 199 190.5 199 190.5 196 249.5 c 0
 195.925619835 251.433884298 195.925619835 251.433884298 195.925619835 253.358547913 c 2
 195.925619835 254.358547913 l 2
 195.925619835 330.061983471 195.925619835 330.061983471 311 391.5 c 0
 388 432.5 388 432.5 410 519.5 c 0
 418.677161378 555.2003211 418.677161378 555.2003211 418.749397394 585.12304694 c 0
 418.532829677 675.103412671 418.532829677 675.103412671 340 712.5 c 0
 298.460493871 732.32567338 298.460493871 732.32567338 257.428806752 733.465061721 c 0
 238.661122233 732.943124254 238.661122233 732.943124254 220 728.5 c 0
 179 718.5 179 718.5 119 640.5 c 0
 116 637 116 637 110.292550689 636.5981186 c 2
 99.765473132 636.5981186 l 2
 87 636.998444103 87 636.998444103 87 647.5 c 2
 87 648.5 l 2
 87 654.5 87 654.5 89 657.5 c 0
 99 672.5 99 672.5 110 685.853013897 c 0
 148 733.5 148 733.5 204 741.5 c 0
 222.43138926 743.904094251 222.43138926 743.904094251 240.046132616 743.904094251 c 2
 250.046132616 743.904094251 l 2
 306.167975267 743.904094251 306.167975267 743.904094251 354 719.5 c 0
 435.937931034 675.9 435.937931034 675.9 435.937931034 583.137241379 c 2
 435.937931034 582.137241379 l 2
 435.937931034 551.5 435.937931034 551.5 427 515.5 c 0
 405 426.5 405 426.5 325 384.5 c 0
 214.304906646 325.268414959 214.304906646 325.268414959 213.924389457 252.836795162 c 0
EndSplineSet
Refer: 287 -1 S 1 0 0 1 160 0 2
EndChar

StartChar: F
Encoding: 70 70 71
Width: 638
GlyphClass: 2
Flags: W
LayerCount: 2
Back
SplineSet
-64.3056640625 54 m 132,-1,0
 -64.3056640625 66 -64.3056640625 66 -52.3056640625 66 c 132,-1,1
 -40.3056640625 66 -40.3056640625 66 -40.3056640625 54 c 132,-1,2
 -40.3056640625 42 -40.3056640625 42 -52.3056640625 42 c 132,-1,3
 -64.3056640625 42 -64.3056640625 42 -64.3056640625 54 c 132,-1,0
EndSplineSet
Fore
SplineSet
255.363271638 503.712005948 m 2,0,1
 266.217888683 503.712005948 266.217888683 503.712005948 288.047946255 501.95572525 c 1,2,3
 296 609 296 609 296 728.5 c 0,4,5
 295.026809651 754.289544236 295.026809651 754.289544236 294.053619303 779.079088472 c 1,6,-1
 269 775.5 l 2,7,8
 183 763.5 183 763.5 156 737.5 c 0,9,10
 134.871067415 717.651608784 134.871067415 717.651608784 134.649409534 694.113698617 c 0,11,12
 134.769280518 681.346041765 134.769280518 681.346041765 141 667.5 c 0,13,14
 145 656.5 145 656.5 169.25 638.5 c 0,15,16
 175 634.5 175 634.5 185 626.5 c 1,17,18
 174 616.5 174 616.5 172 612.871944165 c 1,19,-1
 162 612.871944165 l 1,20,21
 155 620.5 155 620.5 148 628.5 c 0,22,23
 118.192320065 662.033639927 118.192320065 662.033639927 118.192320065 691.670921883 c 0,24,25
 118.192320065 692.085707084 118.192320065 692.085707084 118.197983365 692.50049269 c 2,26,-1
 118.197983365 693.50049269 l 2,27,28
 118.197983365 719.697983365 118.197983365 719.697983365 141 742.5 c 0,29,30
 168 769.5 168 769.5 259 782.5 c 2,31,-1
 292.9527121 787.493045897 l 1,32,-1
 291.6 813.5 l 1,33,-1
 291.6 814.5 l 2,34,35
 291.6 818.1 291.6 818.1 292.3 818.8 c 128,-1,36
 293 819.5 293 819.5 297 819.5 c 2,37,-1
 307 819.5 l 1,38,39
 308 810.5 308 810.5 308 807.5 c 2,40,-1
 308.965983048 789.146322093 l 1,41,42
 439.225274114 797.54552863 439.225274114 797.54552863 498 798.748046875 c 2,43,-1
 768 806.5 l 1,44,-1
 778 806.5 l 1,45,-1
 780 797.5 l 1,46,-1
 508 790.981445312 l 2,47,48
 461.006337088 789.500199746 461.006337088 789.500199746 310.040717272 780.502426833 c 1,49,-1
 312 732.5 l 2,50,51
 312 731 312 731 312.056015879 712.101734847 c 2,52,-1
 312.056015879 711.101734847 l 2,53,54
 312.056015879 599.491041871 312.056015879 599.491041871 305.279343158 500.407196336 c 1,55,56
 348.632117912 496.12031997 348.632117912 496.12031997 401 487.172384216 c 0,57,58
 423.156571315 483.345475811 423.156571315 483.345475811 454.39254054 483.067732903 c 0,59,60
 499.16382448 483.448506284 499.16382448 483.448506284 561 490.5 c 0,61,62
 574 491.5 574 491.5 587 493.331054688 c 1,63,-1
 597 493.331054688 l 1,64,-1
 597 486.5 l 1,65,66
 592 486.5 592 486.5 572 483.5 c 0,67,68
 508 474.018518519 508 474.018518519 459.451303155 474.018518519 c 2,69,-1
 449.451303155 474.018518519 l 2,70,71
 416.074074074 474.018518519 416.074074074 474.018518519 390 478.5 c 0,72,73
 339.902917113 487.212536155 339.902917113 487.212536155 304.631671382 491.180804419 c 1,74,75
 301.188302714 443.364342133 301.188302714 443.364342133 296.14791928 398.5 c 0,76,77
 276.637988819 228.315687128 276.637988819 228.315687128 225 76.5 c 0,78,79
 199 -1.5 199 -1.5 141 -6.5 c 0,80,81
 136.241935484 -6.90322580645 136.241935484 -6.90322580645 131.626951093 -6.90322580645 c 2,82,-1
 121.626951093 -6.90322580645 l 2,83,84
 74.3024193548 -6.90322580645 74.3024193548 -6.90322580645 35 45.5 c 0,85,86
 33 49 33 49 32.6111975117 53.1382238196 c 2,87,-1
 32.6111975117 54.1382238196 l 2,88,89
 32.6111975117 61.2407983411 32.6111975117 61.2407983411 36.5278209781 64.1481769483 c 128,-1,90
 40.4444444444 67.0555555556 40.4444444444 67.0555555556 45.2839506173 67.0555555556 c 2,91,-1
 55.2839506173 67.0555555556 l 2,92,93
 61.5247395833 67.0555555556 61.5247395833 67.0555555556 64.56640625 63.5 c 0,94,95
 66 62.5 66 62.5 72.5 43.5 c 0,96,97
 79 27.5 79 27.5 92 16.5 c 0,98,99
 109.077441403 1.98417480736 109.077441403 1.98417480736 132.716760147 0.592100268488 c 0,100,101
 181.482522394 3.87863921033 181.482522394 3.87863921033 209 82.5 c 0,102,103
 268.635701587 252.525191759 268.635701587 252.525191759 287.360006736 492.917741595 c 1,104,105
 272.967321857 494.17229165 272.967321857 494.17229165 261.683120504 494.432126958 c 0,106,107
 223.414674815 493.250568458 223.414674815 493.250568458 161 471.5 c 0,108,109
 160.428571429 471.357142857 160.428571429 471.357142857 159.93877551 471.357142857 c 2,110,-1
 149.93877551 471.357142857 l 2,111,112
 147 471.357142857 147 471.357142857 147 476.5 c 2,113,-1
 147 477.5 l 2,114,115
 147 488.5 147 488.5 151 489.5 c 0,116,117
 226.368529972 503.72459427 226.368529972 503.72459427 244.34454588 503.72459427 c 0,118,119
 244.879304052 503.72459427 244.879304052 503.72459427 245.363271638 503.712005948 c 2,120,-1
 255.363271638 503.712005948 l 2,0,1
EndSplineSet
EndChar

StartChar: G
Encoding: 71 71 72
Width: 638
GlyphClass: 2
Flags: W
LayerCount: 2
Back
SplineSet
520.040039062 743 m 132,-1,0
 520.040039062 755 520.040039062 755 532.040039062 755 c 132,-1,1
 544.040039062 755 544.040039062 755 544.040039062 743 c 132,-1,2
 544.040039062 731 544.040039062 731 532.040039062 731 c 132,-1,3
 520.040039062 731 520.040039062 731 520.040039062 743 c 132,-1,0
EndSplineSet
Fore
SplineSet
11.9195402299 354.275267539 m 2,0,1
 11.9195402299 394.25862069 11.9195402299 394.25862069 18 435.5 c 0,2,3
 46 633.5 46 633.5 162 751.5 c 0,4,5
 227.934579439 819.023364486 227.934579439 819.023364486 344.353917373 819.023364486 c 2,6,-1
 354.353917373 819.023364486 l 2,7,8
 384.485981308 819.023364486 384.485981308 819.023364486 418 814.5 c 0,9,10
 515 801.5 515 801.5 537 770.5 c 0,11,12
 549.487804878 751.768292683 549.487804878 751.768292683 549.487804878 742.783164783 c 2,13,-1
 549.487804878 741.783164783 l 2,14,15
 549.487804878 739.256097561 549.487804878 739.256097561 548.5 737.5 c 0,16,17
 544.44500055 730.291112089 544.44500055 730.291112089 538.359998565 730.291112089 c 2,18,-1
 528.359998565 730.291112089 l 2,19,20
 520.167110329 730.291112089 520.167110329 730.291112089 516 735.5 c 0,21,22
 483 771.5 483 771.5 474 778.563476562 c 0,23,24
 445 800.5 445 800.5 407 804.5 c 0,25,26
 377.636955787 807.646040451 377.636955787 807.646040451 351.206525063 807.920563554 c 0,27,28
 234.009694862 806.676900107 234.009694862 806.676900107 177 746.5 c 0,29,30
 68 631.5 68 631.5 35 432.5 c 0,31,32
 28.4212855044 393.850052338 28.4212855044 393.850052338 28.3795806809 354.974690691 c 0,33,34
 28.4912219312 252.520054531 28.4912219312 252.520054531 74 148.5 c 0,35,36
 134.198838262 11.5961904036 134.198838262 11.5961904036 291.500099257 9.50447814452 c 0,37,38
 410.145050859 10.630339707 410.145050859 10.630339707 479 72.5 c 0,39,40
 577.882686423 163.227413316 577.882686423 163.227413316 577.999859643 331.101562495 c 0,41,42
 577.962358519 410.609164184 577.962358519 410.609164184 568 439.5 c 0,43,44
 559.256370052 462.804094381 559.256370052 462.804094381 522.994709417 472.907723699 c 128,-1,45
 486.733048783 483.011353018 486.733048783 483.011353018 414.602782873 483.47883313 c 0,46,47
 292.624247294 481.952335081 292.624247294 481.952335081 246 368.5 c 0,48,49
 237.391304348 347.456521739 237.391304348 347.456521739 233.357277883 347.456521739 c 2,50,-1
 223.357277883 347.456521739 l 2,51,52
 223.173913043 347.456521739 223.173913043 347.456521739 223 347.5 c 0,53,54
 210 352.5 210 352.5 208 355.5 c 0,55,56
 212 366.5 212 366.5 213 368.5 c 0,57,58
 261 446.5 261 446.5 325 477.5 c 0,59,60
 352.532715232 490.791655629 352.532715232 490.791655629 402.599628086 490.791655629 c 2,61,-1
 412.599628086 490.791655629 l 2,62,63
 477.590331126 490.791655629 477.590331126 490.791655629 537 478.5 c 0,64,65
 573.384030418 470.703422053 573.384030418 470.703422053 584 443.5 c 0,66,67
 596 412.5 596 412.5 596 323.5 c 2,68,-1
 596 322.5 l 1,69,70
 593.226478242 158.944009361 593.226478242 158.944009361 494 67.5 c 0,71,72
 419.085714286 -0.514285714286 419.085714286 -0.514285714286 307.249387755 -0.514285714286 c 2,73,-1
 297.249387755 -0.514285714286 l 2,74,75
 295.628571429 -0.5 295.628571429 -0.5 294 -0.5 c 0,76,77
 124 1.5 124 1.5 59 140.5 c 0,78,79
 12 242 12 242 11.9195402299 353.275267539 c 2,80,-1
 11.9195402299 354.275267539 l 2,0,1
EndSplineSet
EndChar

StartChar: I
Encoding: 73 73 74
Width: 430
GlyphClass: 2
Flags: W
LayerCount: 2
Back
SplineSet
-780.5 66 m 132,-1,1
 -780.5 78 -780.5 78 -768.5 78 c 132,-1,2
 -756.5 78 -756.5 78 -756.5 66 c 132,-1,3
 -756.5 54 -756.5 54 -768.5 54 c 132,-1,0
 -780.5 54 -780.5 54 -780.5 66 c 132,-1,1
EndSplineSet
Fore
SplineSet
149 86.5 m 1,0,1
 149 9.86656591047 149 9.86656591047 200.602375252 6.47521305608 c 0,2,3
 200.800867831 6.48715250868 200.800867831 6.48715250868 201 6.5 c 0,4,5
 283 6.5 283 6.5 308 234.5 c 0,6,7
 322 360.5 322 360.5 327.088867188 435.5 c 0,8,9
 328 488.5 328 488.5 329.5 509.5 c 128,-1,10
 331 530.5 331 530.5 331 622.430480133 c 128,-1,11
 331 714.360960265 331 714.360960265 331.938204562 807.469102281 c 1,12,-1
 300 791.5 l 2,13,14
 268.080057271 775.540028635 268.080057271 775.540028635 239.92377763 775.540028635 c 2,15,-1
 229.92377763 775.540028635 l 2,16,17
 202.703033149 775.540028635 202.703033149 775.540028635 178.15859855 791.100718313 c 128,-1,18
 153.61416395 806.66140799 153.61416395 806.66140799 131.442569946 808.328318992 c 0,19,20
 99.695772034 805.859450542 99.695772034 805.859450542 75 771.5 c 1,21,-1
 65 771.5 l 1,22,-1
 61 773.5 l 1,23,24
 66 780.5 66 780.5 70.5 786.5 c 0,25,26
 92 816 92 816 124.759633091 816.034343031 c 2,27,-1
 134.759633091 816.034343031 l 2,28,29
 160.937482009 816.034343031 160.937482009 816.034343031 194 796.759765625 c 0,30,31
 213.643901079 786.059763998 213.643901079 786.059763998 236.138221954 785.002718314 c 0,32,33
 260.04513164 786.095744574 260.04513164 786.095744574 287 797.5 c 0,34,35
 299 802.5 299 802.5 329 819.5 c 1,36,-1
 348 819.5 l 1,37,-1
 348 716.5 l 1,38,-1
 346 502.5 l 2,39,40
 345.69140625 469.466796875 345.69140625 469.466796875 343.73046875 437.5 c 0,41,42
 341 371.5 341 371.5 325.001953125 232.5 c 0,43,44
 299 0.5 299 0.5 211 -0.5 c 0,45,46
 210.102272727 -0.511363636364 210.102272727 -0.511363636364 209.214746901 -0.511363636364 c 2,47,-1
 199.214746901 -0.511363636364 l 2,48,49
 198.781012856 -0.514108425865 198.781012856 -0.514108425865 198.3497152 -0.514108425865 c 0,50,51
 122 -0.514108425865 122 -0.514108425865 122 85.5 c 1,52,-1
 132 86.5 l 1,53,-1
 149 86.5 l 1,0,1
EndSplineSet
EndChar

StartChar: J
Encoding: 74 74 75
Width: 424
GlyphClass: 2
Flags: W
LayerCount: 2
Fore
SplineSet
339.031910074 806.100950288 m 2,0,1
 339.031910074 800.496404103 339.031910074 800.496404103 331 717.5 c 0,2,3
 316 568.5 316 568.5 315 517.5 c 0,4,5
 314.6344431 495.201029104 314.6344431 495.201029104 314.630156617 474.116367449 c 0,6,7
 314.651935832 367.134337357 314.651935832 367.134337357 323.325967916 297.817168678 c 128,-1,8
 332 228.5 332 228.5 342 180.5 c 0,9,10
 352.76848091 128.811291633 352.76848091 128.811291633 352.76848091 92.1871148195 c 2,11,-1
 352.76848091 91.1871148195 l 2,12,13
 352.76848091 38.097887896 352.76848091 38.097887896 334 5.5 c 0,14,15
 309 -38.5 309 -38.5 250 -66.5 c 0,16,17
 196.524345365 -92.2475374165 196.524345365 -92.2475374165 128.918353629 -92.2475374165 c 2,18,-1
 118.918353629 -92.2475374165 l 2,19,20
 60.2751991606 -92.2475374165 60.2751991606 -92.2475374165 -9 -72.8743995684 c 0,21,22
 -65.7550337475 -57.0025853307 -65.7550337475 -57.0025853307 -98.5 -20.5 c 0,23,24
 -113 -4.5 -113 -4.5 -115 12.5 c 0,25,26
 -115 16 -115 16 -115.4 18.02 c 2,27,-1
 -115.4 19.02 l 2,28,29
 -115.4 29.1 -115.4 29.1 -109 31.5 c 0,30,31
 -106.628257093 32.6858714534 -106.628257093 32.6858714534 -103.90494141 32.6858714534 c 2,32,-1
 -93.9049414105 32.6858714534 l 2,33,34
 -83.624534701 32.6858714534 -83.624534701 32.6858714534 -81 23.5 c 0,35,36
 -78 11.5 -78 11.5 -69.6201171875 -5.5 c 0,37,38
 -47 -50.5 -47 -50.5 3 -66.104256707 c 0,39,40
 64.7540789144 -85.3838549506 64.7540789144 -85.3838549506 119.599880803 -86.2290669478 c 0,41,42
 182.441174402 -85.2494313239 182.441174402 -85.2494313239 236 -59.5 c 0,43,44
 299 -29.5 299 -29.5 319 11.5 c 0,45,46
 335.723828004 45.9314105973 335.723828004 45.9314105973 335.812165838 92.9438713696 c 0,47,48
 335.812165838 93.2217172089 335.812165838 93.2217172089 335.810546875 93.5 c 128,-1,49
 335.812446324 93.8609344584 335.812446324 93.8609344584 335.813221007 95.2230751546 c 0,50,51
 335.737794107 130.644171187 335.737794107 130.644171187 325.368897054 175.572085594 c 128,-1,52
 315 220.5 315 220.5 305.710382514 309.732240437 c 128,-1,53
 296.420765027 398.964480874 296.420765027 398.964480874 296.420765027 476.235465377 c 0,54,55
 296.420765027 479.308743169 296.420765027 479.308743169 296.4375 482.34375 c 2,56,-1
 296.4375 483.34375 l 2,57,58
 296.4375 501.625 296.4375 501.625 297 518.5 c 0,59,60
 298.750242411 575.382878356 298.750242411 575.382878356 322.356179028 807.178089514 c 1,61,-1
 291 791.5 l 2,62,63
 258.961038129 775.73479654 258.961038129 775.73479654 230.80149832 775.73479654 c 2,64,-1
 220.80149832 775.73479654 l 2,65,66
 193.589362384 775.73479654 193.589362384 775.73479654 169.058372484 791.22554935 c 128,-1,67
 144.527382585 806.71630216 144.527382585 806.71630216 122.325611819 808.387189387 c 0,68,69
 90.5819371129 805.914713987 90.5819371129 805.914713987 66 771.5 c 1,70,-1
 56 771.5 l 1,71,-1
 52 773.5 l 1,72,73
 57 780.5 57 780.5 61.5 786.5 c 0,74,75
 83.3664599441 815.839807014 83.3664599441 815.839807014 115.805521351 815.839807014 c 2,76,-1
 125.805521351 815.839807014 l 2,77,78
 151.965013566 815.839807014 151.965013566 815.839807014 185 796.759765625 c 0,79,80
 204.097169109 785.541393165 204.097169109 785.541393165 226.547465255 784.433639968 c 0,81,82
 250.486372157 785.577426483 250.486372157 785.577426483 278 797.5 c 0,83,84
 290 802.5 290 802.5 320 819.5 c 1,85,-1
 339 819.5 l 1,86,87
 340 814 340 814 340 811 c 2,88,-1
 340 810 l 2,89,90
 340 807.048253173 340 807.048253173 339.031910074 806.51673116 c 2,91,-1
 339.031910074 806.100950288 l 2,0,1
EndSplineSet
EndChar

StartChar: L
Encoding: 76 76 77
Width: 762
GlyphClass: 2
Flags: W
LayerCount: 2
Back
SplineSet
662.987304688 221 m 132,-1,1
 662.987304688 233 662.987304688 233 674.987304688 233 c 132,-1,2
 686.987304688 233 686.987304688 233 686.987304688 221 c 132,-1,3
 686.987304688 209 686.987304688 209 674.987304688 209 c 132,-1,0
 662.987304688 209 662.987304688 209 662.987304688 221 c 132,-1,1
EndSplineSet
Fore
SplineSet
125.5 10.5 m 0,0,1
 170 23.5 170 23.5 199 106.5 c 0,2,3
 220.904700557 167.235760637 220.904700557 167.235760637 240.826690859 250.77269036 c 1,4,5
 216.995266065 288.186800413 216.995266065 288.186800413 186.456452453 290.489844551 c 0,6,7
 104.041608047 286.731313012 104.041608047 286.731313012 69 185.5 c 0,8,9
 47.1085816264 121.815873822 47.1085816264 121.815873822 46.737709072 80.9052735792 c 0,10,11
 47.2364314566 9.9486543681 47.2364314566 9.9486543681 105.878161161 6.87011381935 c 0,12,13
 115.257343949 7.46513920956 115.257343949 7.46513920956 125.5 10.5 c 0,0,1
99.9366967412 -0.356486924512 m 2,14,15
 28.0256226105 -0.356486924512 28.0256226105 -0.356486924512 28.0256319001 83.440082602 c 2,16,-1
 28.0256319001 84.5896721897 l 2,17,18
 28.0256319001 126.567236203 28.0256319001 126.567236203 52 189.5 c 0,19,20
 94 298.5 94 298.5 182 298.535502959 c 2,21,-1
 192 298.535502959 l 2,22,23
 221.107589935 298.505108677 221.107589935 298.505108677 245.084762446 270.649897662 c 1,24,-1
 264.361328125 364.5 l 1,25,26
 315 604.5 315 604.5 319.041992188 629.5 c 0,27,28
 348.20767043 810.70767043 348.20767043 810.70767043 349 811.5 c 2,29,-1
 359 811.5 l 1,30,31
 370 810.5 370 810.5 375 807.5 c 1,32,-1
 375 806.5 l 1,33,34
 374 799.5 374 799.5 372 791.5 c 0,35,36
 347 692.5 347 692.5 336 626.5 c 0,37,38
 334.666666667 619.166666667 334.666666667 619.166666667 258.160315162 253.266724689 c 1,39,40
 291.063170736 205.371228884 291.063170736 205.371228884 317 152.5 c 0,41,42
 385.893978357 9.79104483128 385.893978357 9.79104483128 468.349043212 7.53620131731 c 0,43,44
 570.819136181 9.52045052194 570.819136181 9.52045052194 622 94.5 c 0,45,46
 649.396293602 141.073699123 649.396293602 141.073699123 649.534875669 184.124842341 c 0,47,48
 649.490375225 197.935182519 649.490375225 197.935182519 647.745187613 207.717591259 c 128,-1,49
 646 217.5 646 217.5 646 220.722222222 c 2,50,-1
 646 221.722222222 l 2,51,52
 646 228.166666667 646 228.166666667 650 231.5 c 0,53,54
 653 233.5 653 233.5 660 233.5703125 c 2,55,-1
 670 233.5703125 l 2,56,57
 680 233.5 680 233.5 680 222.5 c 2,58,-1
 680 221.5 l 2,59,60
 680 203.5 680 203.5 668.339753238 162.5 c 0,61,62
 624.33071091 -0.5 624.33071091 -0.5 470 -0.5 c 2,63,-1
 460 -0.5 l 2,64,65
 374 -0.5 374 -0.5 301.06640625 147.5 c 0,66,67
 278.363146009 193.661821513 278.363146009 193.661821513 253.434455013 232.996222702 c 1,68,69
 238.919745282 169.508866665 238.919745282 169.508866665 216 103.5 c 0,70,71
 185 15.5 185 15.5 138 3.5 c 0,72,73
 122.574052302 -0.356486924512 122.574052302 -0.356486924512 109.936696741 -0.356486924512 c 2,74,-1
 99.9366967412 -0.356486924512 l 2,14,15
EndSplineSet
EndChar

StartChar: N
Encoding: 78 78 79
Width: 890
GlyphClass: 2
Flags: W
LayerCount: 2
Fore
SplineSet
834 814.5 m 2,0,1
 920 814.5 920 814.5 969 824.5 c 1,2,-1
 979 824.5 l 1,3,-1
 980 819.5 l 1,4,-1
 980 818.5 l 1,5,6
 918.167493633 808.013432361 918.167493633 808.013432361 848.301412281 807.580459254 c 2,7,-1
 846.976992383 807.580459254 l 1,8,-1
 844 807.5 l 1,9,10
 832 750.5 832 750.5 819.635742188 693.5 c 0,11,12
 795 579.5 795 579.5 731.145507812 329.5 c 0,13,14
 669 88.5 669 88.5 579 12 c 1,15,-1
 569 12 l 2,16,17
 537 12 537 12 536.561403509 89.4701446599 c 2,18,-1
 536.561403509 90.4701446599 l 2,19,20
 536.561403509 115.078947368 536.561403509 115.078947368 540 147.5 c 2,21,-1
 578.385143921 606.5 l 1,22,23
 595.45740575 779.492786781 595.45740575 779.492786781 595.481212549 782.60625847 c 0,24,25
 595.273892742 809.276792748 595.273892742 809.276792748 572.765991722 812.152466502 c 1,26,27
 537.870684459 806.345230418 537.870684459 806.345230418 519 703.5 c 0,28,29
 486 521.5 486 521.5 430.43129273 375.5 c 0,30,31
 342 143.5 342 143.5 212 48.568174686 c 1,32,33
 100.867796616 -1.78927859201 100.867796616 -1.78927859201 69.3243204646 -1.78927859201 c 0,34,35
 66.9335613512 -1.78927859201 66.9335613512 -1.78927859201 65 -1.5 c 2,36,-1
 55 -1.5 l 2,37,38
 -2 -1.5 -2 -1.5 -23 20.5 c 0,39,40
 -40 38.5 -40 38.5 -42 68.5 c 2,41,-1
 -44 94.5 l 1,42,-1
 -44 95.5 l 1,43,-1
 -27 95.5 l 1,44,45
 -26 84.5 -26 84.5 -25 69.5 c 0,46,47
 -23 40.5 -23 40.5 -8 26.5 c 0,48,49
 12.7105907441 7.59033019019 12.7105907441 7.59033019019 53.6919078056 6.51889937724 c 0,50,51
 130.301112701 8.71421523642 130.301112701 8.71421523642 197 56.1645782062 c 0,52,53
 403.537080086 203.540760438 403.537080086 203.540760438 502 706.5 c 0,54,55
 524 819.5 524 819.5 563 819.5 c 0,56,57
 563.936170213 819.521276596 563.936170213 819.521276596 564.850240149 819.521276596 c 2,58,-1
 574.850240149 819.521276596 l 2,59,60
 612.656276862 819.521276596 612.656276862 819.521276596 612.656276862 783.124276094 c 2,61,-1
 612.656276862 782.124276094 l 2,62,63
 612.656276862 778.440034063 612.656276862 778.440034063 600.042650017 647.474328206 c 128,-1,64
 587.429023172 516.508622349 587.429023172 516.508622349 585.840907935 491.5 c 0,65,66
 567.144984942 233.42320283 567.144984942 233.42320283 557 145.5 c 0,67,68
 553.039684633 110.705800706 553.039684633 110.705800706 553.000389121 85.5141102789 c 0,69,70
 553.082110794 32.8975904568 553.082110794 32.8975904568 570.531864955 22.8150390115 c 1,71,72
 645.176077356 92.5333999107 645.176077356 92.5333999107 714.563476562 330.5 c 0,73,74
 739 415.5 739 415.5 803 694.5 c 1,75,-1
 831 814.5 l 1,76,-1
 834 814.5 l 2,0,1
EndSplineSet
EndChar

StartChar: Q
Encoding: 81 81 82
Width: 876
GlyphClass: 2
Flags: W
LayerCount: 2
Back
SplineSet
1463.04785156 112 m 132,-1,1
 1463.04785156 124 1463.04785156 124 1475.04785156 124 c 132,-1,2
 1487.04785156 124 1487.04785156 124 1487.04785156 112 c 132,-1,3
 1487.04785156 100 1487.04785156 100 1475.04785156 100 c 132,-1,0
 1463.04785156 100 1463.04785156 100 1463.04785156 112 c 132,-1,1
EndSplineSet
Fore
SplineSet
67.3873417722 309.634856593 m 0,0,1
 67.3873417722 312.06835443 67.3873417722 312.06835443 67.4047619048 314.5 c 2,2,-1
 67.4047619048 315.5 l 2,3,4
 67.4047619048 384.5 67.4047619048 384.5 80 453.5 c 0,5,6
 110 619.5 110 619.5 191 708.5 c 0,7,8
 257 781.5 257 781.5 342.5 811.5 c 0,9,10
 357 816.5 357 816.5 400 818.5 c 0,11,12
 408.179775281 818.859550562 408.179775281 818.859550562 415.543491983 818.859550562 c 2,13,-1
 425.543491983 818.859550562 l 2,14,15
 491.99009901 818.859550562 491.99009901 818.859550562 491.99009901 789.583570238 c 2,16,-1
 491.99009901 788.583570238 l 2,17,18
 491.99009901 785.00990099 491.99009901 785.00990099 491.246969562 781.950610735 c 128,-1,19
 490.503840113 778.891320481 490.503840113 778.891320481 490.560291953 775.872311475 c 128,-1,20
 490.616743793 772.85330247 490.616743793 772.85330247 494 771.5 c 0,21,22
 522 763.5 522 763.5 532 752.5 c 0,23,24
 573 710.5 573 710.5 591 586.5 c 0,25,26
 598.5540368 532.364506254 598.5540368 532.364506254 598.5540368 471.61628856 c 2,27,-1
 598.5540368 470.61628856 l 2,28,29
 598.5540368 369.1857116 598.5540368 369.1857116 584.535867957 288.244183233 c 128,-1,30
 570.517699115 207.302654867 570.517699115 207.302654867 518 118.5 c 0,31,32
 507.789329315 101.337383317 507.789329315 101.337383317 497.673052289 86.9121827306 c 1,33,34
 566.577593523 19.7495106561 566.577593523 19.7495106561 605 12.5 c 0,35,36
 618.168787459 10.1170765551 618.168787459 10.1170765551 630.661209437 9.71606122083 c 0,37,38
 710.922556483 12.3502184839 710.922556483 12.3502184839 762 100.5 c 0,39,40
 773 119.5 773 119.5 773.993164062 120.5 c 0,41,42
 776 123.5 776 123.5 782 124.5 c 1,43,-1
 792 124.5 l 2,44,45
 798 124.5 798 124.5 802 122.727539062 c 0,46,47
 806.5 119.386230469 806.5 119.386230469 806.5 112.5 c 0,48,49
 806.5 109.5 806.5 109.5 806 107.5 c 0,50,51
 795 67.5 795 67.5 750 39.5 c 0,52,53
 687.603448276 1.41379310345 687.603448276 1.41379310345 630.460166468 1.41379310345 c 2,54,-1
 620.460166468 1.41379310345 l 2,55,56
 607.086206897 1.41379310345 607.086206897 1.41379310345 594 3.5 c 0,57,58
 554.925677048 9.77980190306 554.925677048 9.77980190306 488.587019913 74.483177053 c 1,59,60
 456.824306082 32.8846761718 456.824306082 32.8846761718 426 18.5 c 0,61,62
 383.288842544 -0.914162479856 383.288842544 -0.914162479856 320.789925587 -0.914162479856 c 2,63,-1
 310.789925587 -0.914162479856 l 2,64,65
 248.10443328 -0.914162479856 248.10443328 -0.914162479856 215 11.5 c 0,66,67
 99 54.5 99 54.5 76 200.5 c 0,68,69
 67.3873417722 255.525316456 67.3873417722 255.525316456 67.3873417722 309.634856593 c 0,0,1
331.820761692 197.62086544 m 1,70,71
 282.607277953 194.89096965 282.607277953 194.89096965 232 138.5 c 0,72,73
 188.778586739 90.2777620642 188.778586739 90.2777620642 188.42845696 59.5357786835 c 0,74,75
 188.613052949 43.4908366349 188.613052949 43.4908366349 200.696009602 32.2973087329 c 0,76,77
 214.490152476 24.6257378686 214.490152476 24.6257378686 232.127267748 17.7375044788 c 0,78,79
 259.81110272 6.9254916599 259.81110272 6.9254916599 314.841806944 6.4902014853 c 0,80,81
 315.41967951 6.49460170302 315.41967951 6.49460170302 316 6.5 c 2,82,-1
 322.926000276 6.5 l 1,83,84
 384.555572685 8.61111875541 384.555572685 8.61111875541 413 25.5 c 0,85,86
 447.472361174 46.6055272496 447.472361174 46.6055272496 476.995352566 86.023722697 c 1,87,88
 453.142079089 110.238141049 453.142079089 110.238141049 426 141.5 c 0,89,90
 379.570228996 194.964584793 379.570228996 194.964584793 331.820761692 197.62086544 c 1,70,71
173.606413994 59.4501143231 m 2,91,92
 173.606413994 91.9927113703 173.606413994 91.9927113703 217 142.5 c 0,93,94
 270.868852459 205.516393443 270.868852459 205.516393443 325.254232733 205.516393443 c 2,95,-1
 335.254232733 205.516393443 l 2,96,97
 387.885245902 205.516393443 387.885245902 205.516393443 441 146.5 c 0,98,99
 464.80510573 119.906908914 464.80510573 119.906908914 485.942601898 98.5570504157 c 1,100,101
 493.64894089 109.871257426 493.64894089 109.871257426 501 122.5 c 0,102,103
 550 207.5 550 207.5 567 288.5 c 0,104,105
 581.806261203 363.519124263 581.806261203 363.519124263 581.855752468 462.898165031 c 0,106,107
 581.823614707 527.363206952 581.823614707 527.363206952 573.5 583 c 0,108,109
 556.821289062 708.866210938 556.821289062 708.866210938 511 747.5 c 0,110,111
 494 761.5 494 761.5 480.52 761.5 c 128,-1,112
 467.04 761.5 467.04 761.5 467.04 768.2392 c 2,113,-1
 467.04 769.2392 l 2,114,115
 467.04 771.86 467.04 771.86 470.126375482 777.278391449 c 128,-1,116
 473.212750965 782.696782899 473.212750965 782.696782899 473.389229554 788.476249063 c 0,117,118
 472.712055305 810.17513168 472.712055305 810.17513168 412.617983557 811.010065819 c 0,119,120
 404.746674805 810.908723143 404.746674805 810.908723143 396 810.5 c 0,121,122
 311 806.5 311 806.5 207 702.5 c 0,123,124
 131 626.5 131 626.5 97 450.5 c 0,125,126
 75.0791935158 336.9103664 75.0791935158 336.9103664 93 203.5 c 0,127,128
 106.277631522 101.704825001 106.277631522 101.704825001 174.511575949 49.4247438071 c 1,129,130
 173.606413994 53.7500631795 173.606413994 53.7500631795 173.606413994 58.4501143231 c 2,131,-1
 173.606413994 59.4501143231 l 2,91,92
EndSplineSet
EndChar

StartChar: R
Encoding: 82 82 83
Width: 792
GlyphClass: 2
Flags: W
LayerCount: 2
Fore
SplineSet
117.859375 511.5625 m 2,0,-1
 127.859375 511.5625 l 2,1,2
 133.0625 511.5625 133.0625 511.5625 136.415865385 507.185096154 c 128,-1,3
 139.769230769 502.807692308 139.769230769 502.807692308 139.769230769 498.902366864 c 2,4,-1
 139.769230769 497.902366864 l 2,5,6
 139.769230769 493.346153846 139.769230769 493.346153846 136 488.5 c 0,7,8
 125 474.5 125 474.5 101 474.5 c 2,9,-1
 91 474.5 l 2,10,11
 50 474.5 50 474.5 34 525.5 c 0,12,13
 28 546 28 546 27.75 564.979166667 c 2,14,-1
 27.75 565.979166667 l 2,15,16
 27.75 593.25 27.75 593.25 40 619.5 c 0,17,18
 62 664.5 62 664.5 120 705.5 c 0,19,20
 192 756.5 192 756.5 247 776.5 c 0,21,22
 362 819.5 362 819.5 444 819.881835938 c 0,23,24
 449.783682381 819.881835938 449.783682381 819.881835938 455.567364762 819.881835938 c 0,25,26
 578.297626074 819.881835938 578.297626074 819.881835938 625 723.5 c 0,27,28
 649.6 672.824 649.6 672.824 649.6 619.780768 c 0,29,30
 649.6 618.918276423 649.6 618.918276423 649.593495935 618.055158966 c 2,31,-1
 649.593495935 617.055158966 l 2,32,33
 649.593495935 550.264227642 649.593495935 550.264227642 612 479.5 c 0,34,35
 582.800324212 423.677090405 582.800324212 423.677090405 546.962595141 398.094201322 c 1,36,37
 613.691428571 356.213765913 613.691428571 356.213765913 613.691428571 295.649257143 c 2,38,-1
 613.691428571 294.649257143 l 2,39,40
 613.691428571 272.791428571 613.691428571 272.791428571 605 248.5 c 0,41,42
 584.869570157 192.3466957 584.869570157 192.3466957 584.795271567 129.084681899 c 0,43,44
 584.932900022 12.3742581105 584.932900022 12.3742581105 649.452205844 6.77457954076 c 1,45,46
 672.480055096 9.60006515385 672.480055096 9.60006515385 698 41.5 c 0,47,48
 712 58.5 712 58.5 714 60 c 0,49,50
 717 61.5 717 61.5 723 61.5 c 2,51,-1
 733 61.5 l 2,52,53
 737 61.5 737 61.5 742 56.5 c 0,54,55
 744 54 744 54 744 49.25 c 128,-1,56
 744 44.5 744 44.5 741 39.5 c 128,-1,57
 738 34.5 738 34.5 727 27.5 c 0,58,59
 682 -0.5 682 -0.5 654.599609375 -0.5 c 2,60,-1
 644.599609375 -0.5 l 2,61,62
 568 -3.5527136788e-15 568 -3.5527136788e-15 567.940607173 112.704904677 c 2,63,-1
 567.940607173 113.704904677 l 2,64,65
 567.952148438 115.093930653 567.952148438 115.093930653 567.952148438 116.5 c 0,66,67
 568 197.5 568 197.5 588 251.5 c 0,68,69
 596.44196513 274.382168641 596.44196513 274.382168641 596.543154347 295.043419754 c 0,70,71
 596.269780575 350.863460914 596.269780575 350.863460914 534.79815438 390.388108525 c 1,72,73
 498.837541187 370.497199018 498.837541187 370.497199018 441 369.5 c 0,74,75
 435.333333333 369.416666667 435.333333333 369.416666667 429.5 369.416666667 c 2,76,-1
 419.5 369.416666667 l 2,77,78
 374.435113163 369.416666667 374.435113163 369.416666667 319.42323518 374.39016224 c 1,79,80
 323.089954266 334.585758858 323.089954266 334.585758858 323.089954266 293.537874522 c 2,81,-1
 323.089954266 292.537874522 l 2,82,83
 323.089954266 290.021274247 323.089954266 290.021274247 323.076171875 287.5 c 0,84,85
 323.000521725 -0.513698630137 323.000521725 -0.513698630137 224.365175275 -0.513698630137 c 2,86,-1
 214.365175275 -0.513698630137 l 2,87,88
 144.918066684 -0.513698630137 144.918066684 -0.513698630137 96 53.5 c 0,89,90
 58 95.5 58 95.5 28 142.5 c 1,91,-1
 28 143.5 l 1,92,93
 31 147.5 31 147.5 43 156.5 c 1,94,-1
 53 156.5 l 1,95,96
 78 100.5 78 100.5 112 58.5 c 0,97,98
 155.798842281 10.8925627376 155.798842281 10.8925627376 218.63601649 8.61448803424 c 1,99,100
 304.527988442 14.080127401 304.527988442 14.080127401 304.608446083 280.472402532 c 0,101,102
 304.608446083 331.344292086 304.608446083 331.344292086 300.036653431 376.265476302 c 1,103,104
 285.830141108 377.726830954 285.830141108 377.726830954 271 379.5 c 1,105,-1
 272 386.5 l 1,106,107
 283.638171325 398.799431059 283.638171325 398.799431059 296.150871523 408.405313191 c 1,108,109
 281.976036588 509.458710359 281.976036588 509.458710359 244 602.5 c 0,110,111
 210.652132192 685.393271409 210.652132192 685.393271409 187.290291454 732.881537751 c 1,112,113
 159.486585598 716.076955585 159.486585598 716.076955585 134 698.5 c 0,114,115
 46.2896794216 637.41602674 46.2896794216 637.41602674 45.9761983477 571.969648565 c 0,116,117
 46.0791512879 550.50638985 46.0791512879 550.50638985 55 527.5 c 0,118,119
 65.432554736 500.594990418 65.432554736 500.594990418 83.7038713721 497.507756496 c 0,120,121
 95.1140883525 499.242727175 95.1140883525 499.242727175 109 508.5 c 0,122,123
 113.8125 511.5625 113.8125 511.5625 117.859375 511.5625 c 2,0,-1
396.520239501 442.662337662 m 2,124,-1
 406.520239501 442.662337662 l 2,125,126
 453.337662338 442.662337662 453.337662338 442.662337662 508 418.5 c 0,127,128
 521.771197488 412.424471696 521.771197488 412.424471696 533.748059496 405.846529458 c 1,129,130
 570.460395507 433.574597756 570.460395507 433.574597756 595 483.5 c 0,131,132
 630.791345153 556.201169842 630.791345153 556.201169842 630.929294732 621.083611723 c 0,133,134
 630.822425627 671.672898016 630.822425627 671.672898016 609 717.5 c 0,135,136
 564.205538477 810.010300971 564.205538477 810.010300971 449.238940888 812.158790466 c 0,137,138
 363.671607918 810.574533153 363.671607918 810.574533153 258 768.573242188 c 0,139,140
 225 755.5 225 755.5 202 741.5 c 1,141,142
 224 700.5 224 700.5 261.79284732 608.617354042 c 128,-1,143
 299.585694641 516.734708085 299.585694641 516.734708085 313.896234163 420.415324769 c 1,144,145
 351.596708765 442.662337662 351.596708765 442.662337662 396.520239501 442.662337662 c 2,124,-1
426.532066161 376.462391408 m 0,146,147
 490.44540056 377.817205683 490.44540056 377.817205683 522.278820528 397.912711587 c 1,148,149
 509.704008159 404.989828687 509.704008159 404.989828687 495 411.5 c 0,150,151
 443.841751319 433.905072415 443.841751319 433.905072415 399.655547946 435.115122835 c 0,152,153
 353.686240908 433.833066898 353.686240908 433.833066898 315.542485644 408.761329309 c 1,154,155
 317.237549543 396.109900379 317.237549543 396.109900379 318.551924 383.329369638 c 1,156,157
 394.419515521 376.978877782 394.419515521 376.978877782 426.532066161 376.462391408 c 0,146,147
299.103773147 384.990533049 m 1,158,159
 298.513324259 390.258494934 298.513324259 390.258494934 297.859360382 395.50507601 c 1,160,161
 292.556781771 391.015129176 292.556781771 391.015129176 287.42133021 386.017116207 c 1,162,163
 293.371364022 385.489316337 293.371364022 385.489316337 299.103773147 384.990533049 c 1,158,159
EndSplineSet
EndChar

StartChar: S
Encoding: 83 83 84
Width: 661
GlyphClass: 2
Flags: W
LayerCount: 2
Back
SplineSet
478.392578125 599 m 132,-1,0
 478.392578125 611 478.392578125 611 490.392578125 611 c 132,-1,1
 502.392578125 611 502.392578125 611 502.392578125 599 c 132,-1,2
 502.392578125 587 502.392578125 587 490.392578125 587 c 132,-1,3
 478.392578125 587 478.392578125 587 478.392578125 599 c 132,-1,0
EndSplineSet
Fore
SplineSet
499.775510204 611.785714286 m 1,0,-1
 505.320159358 611.219825255 l 1,1,2
 519.653511161 612.665745024 519.653511161 612.665745024 533 622.5 c 0,3,4
 550 635.5 550 635.5 552 650.5 c 0,5,6
 553.102972289 658.53594096 553.102972289 658.53594096 553.138363903 666.100159268 c 0,7,8
 552.951841503 705.876138985 552.951841503 705.876138985 523 732.5 c 0,9,10
 437.08798255 809.315450896 437.08798255 809.315450896 287.703568744 811.521579635 c 0,11,12
 240.352293204 810.809924806 240.352293204 810.809924806 201 796.5 c 0,13,14
 79.7228368813 751.766620161 79.7228368813 751.766620161 79.4983753948 617.108376256 c 0,15,16
 79.4983753948 541.982331351 79.4983753948 541.982331351 132 491.5 c 0,17,18
 185.866316257 440.282846838 185.866316257 440.282846838 244.411342578 438.192149265 c 0,19,20
 247.200433439 438.291077245 247.200433439 438.291077245 251.100216719 438.395538623 c 128,-1,21
 255 438.5 255 438.5 304.06097561 441.890243902 c 128,-1,22
 353.12195122 445.280487805 353.12195122 445.280487805 363.796549673 445.280487805 c 2,23,-1
 373.796549673 445.280487805 l 2,24,25
 472.536585366 445.280487805 472.536585366 445.280487805 533 378.5 c 0,26,27
 594.339551617 309.245667529 594.339551617 309.245667529 594.339551617 222.372778693 c 2,28,-1
 594.339551617 221.372778693 l 2,29,30
 594.339551617 177.586565175 594.339551617 177.586565175 579 128.5 c 0,31,32
 537.626865672 -1.52985074627 537.626865672 -1.52985074627 305.090443306 -1.52985074627 c 2,33,-1
 295.090443306 -1.52985074627 l 2,34,35
 141.018600288 -1.52985074627 141.018600288 -1.52985074627 79 61.1737461079 c 0,36,37
 55 85.5 55 85.5 44 120.5 c 0,38,39
 38 141.5 38 141.5 37.8750139219 154.5 c 2,40,-1
 37.8750139219 155.5 l 1,41,42
 42.437506961 156 42.437506961 156 46.4687534805 156 c 2,43,-1
 56.4687534805 156 l 2,44,45
 60.5 156 60.5 156 64 155.5 c 0,46,47
 78 83.5 78 83.5 95 66.275390625 c 0,48,49
 154.100598548 6.35646975443 154.100598548 6.35646975443 312.62681275 5.25663790039 c 0,50,51
 520.463377696 6.72590791285 520.463377696 6.72590791285 563 131.5 c 0,52,53
 576.252810647 170.154031054 576.252810647 170.154031054 576.998409277 221.389648464 c 0,54,55
 576.696294705 305.84559519 576.696294705 305.84559519 519 371.5 c 0,56,57
 462.009896379 435.251641339 462.009896379 435.251641339 363.12527659 436.807582004 c 0,58,59
 341.14183382 436.468855115 341.14183382 436.468855115 261 429.5 c 0,60,61
 252.039961232 428.974390244 252.039961232 428.974390244 249.102935692 428.974452555 c 2,62,-1
 239.102935692 428.974452555 l 2,63,64
 177.218978102 428.974452555 177.218978102 428.974452555 117 486 c 0,65,66
 62 538 62 538 61.9824561404 616.184056633 c 2,67,-1
 61.9824561404 617.184056633 l 2,68,69
 61.9824561404 618.587719298 61.9824561404 618.587719298 62 620 c 0,70,71
 64 755.5 64 755.5 187 804.5 c 0,72,73
 224.617647059 819.547058824 224.617647059 819.547058824 294.842352941 819.547058824 c 2,74,-1
 304.842352941 819.547058824 l 2,75,76
 446.235294118 819.547058824 446.235294118 819.547058824 539 738.5 c 0,77,78
 569.25 712.833333333 569.25 712.833333333 569.25 659.4375 c 2,79,-1
 569.25 658.4375 l 2,80,81
 569.25 598.378378378 569.25 598.378378378 529 587.5 c 0,82,83
 514.183467305 584.71959673 514.183467305 584.71959673 512.246123059 584.71959673 c 128,-1,84
 510.308778814 584.71959673 510.308778814 584.71959673 510.203703704 584.722222222 c 2,85,-1
 500.203703704 584.722222222 l 2,86,87
 493.611111111 584.722222222 493.611111111 584.722222222 488.5 586.5 c 0,88,89
 479 590 479 590 478.703703704 598.394375857 c 2,90,-1
 478.703703704 599.394375857 l 2,91,92
 478.703703704 606.574074074 478.703703704 606.574074074 483.5 610 c 0,93,94
 486 611.785714286 486 611.785714286 489.775510204 611.785714286 c 2,95,-1
 499.775510204 611.785714286 l 1,0,-1
EndSplineSet
EndChar

StartChar: T
Encoding: 84 84 85
Width: 600
GlyphClass: 2
Flags: W
LayerCount: 2
Fore
SplineSet
349.64140142 669.134787289 m 2,0,-1
 349.64140142 668.134787289 l 2,1,2
 349.64140142 549.416647583 349.64140142 549.416647583 332.147460938 405.5 c 0,3,4
 311 230.5 311 230.5 261 83.5 c 0,5,6
 233 1.5 233 1.5 177 0.5 c 0,7,8
 175.752680189 0.477729613426 175.752680189 0.477729613426 174.516481526 0.477729613426 c 2,9,-1
 164.516481526 0.477729613426 l 2,10,11
 110.01670279 0.477729613426 110.01670279 0.477729613426 71 52.5 c 0,12,13
 69 56 69 56 68.6111975117 60.1382238196 c 2,14,-1
 68.6111975117 61.1382238196 l 2,15,16
 68.6111975117 68.2407983411 68.6111975117 68.2407983411 72.5278209781 71.1481769483 c 128,-1,17
 76.4444444444 74.0555555556 76.4444444444 74.0555555556 81.2839506173 74.0555555556 c 2,18,-1
 91.2839506173 74.0555555556 l 2,19,20
 97.5247395833 74.0555555556 97.5247395833 74.0555555556 100.56640625 70.5 c 0,21,22
 102 69.5 102 69.5 108.5 50.5 c 0,23,24
 115 34.5 115 34.5 128 23.5 c 0,25,26
 145.077441403 8.98417480735 145.077441403 8.98417480735 168.716760147 7.59210026849 c 0,27,28
 217.482522395 10.8786392103 217.482522395 10.8786392103 245 89.5 c 0,29,30
 331.889751267 337.228227017 331.889751267 337.228227017 331.999861955 734.503658191 c 1,31,-1
 330.024955807 786.838671103 l 1,32,-1
 159 775.5 l 1,33,34
 73 763.5 73 763.5 46 737.5 c 0,35,36
 24.8710674145 717.651608783 24.8710674145 717.651608783 24.6494095342 694.113698616 c 0,37,38
 24.7692805185 681.346041765 24.7692805185 681.346041765 31 667.5 c 0,39,40
 35 656.5 35 656.5 59.25 638.5 c 0,41,42
 65 634.5 65 634.5 75 626.5 c 1,43,44
 64 616.5 64 616.5 62 612.872070312 c 1,45,-1
 52 612.872070312 l 1,46,47
 45 620.5 45 620.5 38 628.5 c 0,48,49
 8.19244623815 662.033497982 8.19244623815 662.033497982 8.19244623815 691.670705779 c 0,50,51
 8.19244623815 692.085752221 8.19244623815 692.085752221 8.19811680875 692.500799318 c 2,52,-1
 8.19811680875 693.500799318 l 2,53,54
 8.19811680875 719.698116809 8.19811680875 719.698116809 31 742.5 c 0,55,56
 65 776.5 65 776.5 149 782.5 c 2,57,-1
 328.952531646 794.496835443 l 1,58,-1
 327.6 820.5 l 1,59,-1
 327.6 821.5 l 2,60,61
 327.6 825.1 327.6 825.1 328.3 825.8 c 128,-1,62
 329 826.5 329 826.5 333 826.5 c 2,63,-1
 343 826.5 l 1,64,65
 344 817.5 344 817.5 344 814.5 c 2,66,-1
 344.968978396 796.08941048 l 1,67,68
 371.881872307 797.689300617 371.881872307 797.689300617 388 798.748046875 c 2,69,-1
 658 806.5 l 1,70,-1
 668 806.5 l 1,71,-1
 670 797.5 l 1,72,-1
 398 790.981445312 l 1,73,-1
 346.040705092 787.502725241 l 1,74,-1
 348 739.5 l 2,75,76
 349.64140142 705.499542019 349.64140142 705.499542019 349.64140142 669.134787289 c 2,0,-1
EndSplineSet
EndChar

StartChar: V
Encoding: 86 86 87
Width: 725
GlyphClass: 2
Flags: W
LayerCount: 2
Fore
SplineSet
328 -0.5 m 2,0,1
 274 -0.5 274 -0.5 229.33984375 119.5 c 0,2,3
 167 286.5 167 286.5 166.591796875 528.5 c 2,4,-1
 166.591796875 529.5 l 2,5,6
 167.335423944 669.771548207 167.335423944 669.771548207 171.642013531 802.612831098 c 1,7,-1
 160 791.5 l 2,8,9
 139.51976486 771.951324133 139.51976486 771.951324133 117.734255493 771.951324133 c 2,10,-1
 107.734255493 771.951324133 l 2,11,12
 94.3230138008 771.951324133 94.3230138008 771.951324133 80 781.5 c 0,13,14
 71.5320433403 786.439641385 71.5320433403 786.439641385 65.5538884164 788.238825814 c 0,15,16
 57.3283874382 784.962765904 57.3283874382 784.962765904 52 770.5 c 1,17,-1
 42 770.5 l 1,18,-1
 37 773.5 l 1,19,20
 38 778.5 38 778.5 44.5 788.5 c 0,21,22
 49.1943521595 795.802325581 49.1943521595 795.802325581 61.414818821 795.802325581 c 2,23,-1
 71.414818821 795.802325581 l 2,24,25
 80.976744186 795.802325581 80.976744186 795.802325581 94 786.5 c 0,26,27
 102.478037452 780.565373783 102.478037452 780.565373783 113.831159651 779.240288856 c 0,28,29
 130.056737137 781.403900391 130.056737137 781.403900391 147 797.5 c 0,30,31
 150 801.5 150 801.5 168.75 818.75 c 0,32,33
 170 819.5 170 819.5 174 819.5 c 2,34,-1
 188 819.5 l 1,35,-1
 188 806.5 l 2,36,37
 188 768.5 188 768.5 185 687.5 c 0,38,39
 181.314077578 587.980094619 181.314077578 587.980094619 181.293088471 519.725581758 c 0,40,41
 181.362896368 292.84058043 181.362896368 292.84058043 244.803710938 122.5 c 0,42,43
 285.458279208 12.3844185257 285.458279208 12.3844185257 332.139437824 6.79086588463 c 1,44,45
 369.423203357 10.9914743161 369.423203357 10.9914743161 430 72.7763671875 c 0,46,47
 504 149.5 504 149.5 545.2890625 319.5 c 0,48,49
 562 395.5 562 395.5 602 673.5 c 1,50,51
 614.342857143 797.957142857 614.342857143 797.957142857 616 819.5 c 1,52,-1
 647 819.5 l 1,53,-1
 647 818.5 l 1,54,55
 628 714.5 628 714.5 621.49609375 671.5 c 0,56,57
 577 382.5 577 382.5 562.205078125 318.5 c 0,58,59
 524 151.5 524 151.5 444 67.734375 c 0,60,61
 379 -0.5 379 -0.5 338 -0.5 c 2,62,-1
 328 -0.5 l 2,0,1
EndSplineSet
EndChar

StartChar: W
Encoding: 87 87 88
Width: 1019
GlyphClass: 2
Flags: W
LayerCount: 2
Fore
SplineSet
917.798715153 786.594719072 m 1,0,-1
 916.989320324 818.973905892 l 1,1,-1
 916.989320324 819.973905892 l 2,2,3
 916.999988599 824.99463464 916.999988599 824.99463464 922.0078125 824.994628906 c 2,4,-1
 932.0078125 824.994628906 l 2,5,6
 937.2578125 824.994628906 937.2578125 824.994628906 948 819.5 c 1,7,-1
 948 818.5 l 1,8,9
 935 749.5 935 749.5 929.49609375 671.5 c 0,10,11
 918 514.5 918 514.5 892.205078125 318.5 c 0,12,13
 873 172.5 873 172.5 774 67.734375 c 0,14,15
 709 -0.5 709 -0.5 668 -0.5 c 2,16,-1
 658 -0.5 l 2,17,18
 607 -0.5 607 -0.5 559.33984375 119.5 c 0,19,20
 535.050320107 178.743045692 535.050320107 178.743045692 529.884201888 332.843887698 c 1,21,22
 500.312734465 145.368087215 500.312734465 145.368087215 424 67.734375 c 0,23,24
 357 -0.5 357 -0.5 318 -0.5 c 2,25,-1
 308 -0.5 l 2,26,27
 254 -0.5 254 -0.5 209.33984375 119.5 c 0,28,29
 148.194004105 282.482886339 148.194004105 282.482886339 148.194004105 620.853820861 c 0,30,31
 148.194004105 621.9274074 148.194004105 621.9274074 148.194619643 623.002759521 c 2,32,-1
 148.194619643 624.002759521 l 2,33,34
 148.194619643 696.274342726 148.194619643 696.274342726 151.642013531 802.612831098 c 1,35,-1
 140 791.5 l 2,36,37
 119.51976486 771.951324133 119.51976486 771.951324133 97.7342554935 771.951324133 c 2,38,-1
 87.7342554935 771.951324133 l 2,39,40
 74.3230138008 771.951324133 74.3230138008 771.951324133 60 781.5 c 0,41,42
 51.5320433403 786.439641385 51.5320433403 786.439641385 45.5538884164 788.238825814 c 0,43,44
 37.3283874382 784.962765904 37.3283874382 784.962765904 32 770.5 c 1,45,-1
 22 770.5 l 1,46,-1
 17 773.5 l 1,47,48
 18 778.5 18 778.5 24.5 788.5 c 0,49,50
 29.1943521595 795.802325581 29.1943521595 795.802325581 41.414818821 795.802325581 c 2,51,-1
 51.414818821 795.802325581 l 2,52,53
 60.976744186 795.802325581 60.976744186 795.802325581 74 786.5 c 0,54,55
 82.4780374522 780.565373783 82.4780374522 780.565373783 93.8311596515 779.240288856 c 0,56,57
 110.056737137 781.403900391 110.056737137 781.403900391 127 797.5 c 0,58,59
 130 801.5 130 801.5 148.75 818.75 c 0,60,61
 150 819.5 150 819.5 154 819.5 c 2,62,-1
 168 819.5 l 1,63,-1
 168 806.5 l 2,64,65
 168 768.5 168 768.5 165.695622481 707.13062379 c 128,-1,66
 163.391244961 645.761247579 163.391244961 645.761247579 163.381368578 588.881241779 c 0,67,68
 163.430604422 287.288529402 163.430604422 287.288529402 224.803710938 122.5 c 0,69,70
 265.500056413 12.2712622091 265.500056413 12.2712622091 312.235384884 6.77948249738 c 1,71,72
 351.235976884 10.9069801092 351.235976884 10.9069801092 410 72.7763671875 c 0,73,74
 508.841903391 174.337553925 508.841903391 174.337553925 528.93592108 472.5455357 c 0,75,76
 528.956192203 473.79391337 528.956192203 473.79391337 528.977286315 475.066646461 c 2,77,-1
 527 698.5 l 1,78,-1
 527 699.5 l 1,79,-1
 558 699.5 l 1,80,-1
 558 698.5 l 1,81,82
 543.800156752 459.801333282 543.800156752 459.801333282 542.673762314 445.046781571 c 0,83,84
 542.460775536 426.781415633 542.460775536 426.781415633 542.633789062 417.5 c 0,85,86
 547 192.5 547 192.5 574.803710938 122.5 c 0,87,88
 618.296731032 12.3464908255 618.296731032 12.3464908255 662.502153071 6.78702989717 c 1,89,90
 704.34452163 10.9935497279 704.34452163 10.9935497279 760 72.7763671875 c 0,91,92
 856 175.5 856 175.5 875.2890625 319.5 c 0,93,94
 902 515.5 902 515.5 913 673.5 c 0,95,96
 917.772003718 742.047464298 917.772003718 742.047464298 917.798715153 786.594719072 c 1,0,-1
EndSplineSet
EndChar

StartChar: Z
Encoding: 90 90 91
Width: 755
GlyphClass: 2
Flags: W
LayerCount: 2
Fore
SplineSet
60.7380050301 80.9570312894 m 0,0,1
 61.1642948327 29.4163148456 61.1642948327 29.4163148456 92.412109375 13.5 c 0,2,3
 103.962926372 7.54942818495 103.962926372 7.54942818495 118.702105126 6.82951973081 c 0,4,5
 176.866190896 9.32500364235 176.866190896 9.32500364235 223.223632812 79.5 c 0,6,7
 276.530487133 159.792801946 276.530487133 159.792801946 292.717733332 190.954876625 c 1,8,9
 233.500161265 286.302401501 233.500161265 286.302401501 187.981552097 290.434988444 c 1,10,11
 118.479772538 286.185840954 118.479772538 286.185840954 83 185.5 c 0,12,13
 61.1224270588 121.856151444 61.1224270588 121.856151444 60.7380050301 80.9570312894 c 0,0,1
636 94.5 m 0,14,15
 663.73083704 141.642422968 663.73083704 141.642422968 663.714039542 185.954524942 c 0,16,17
 663.709349229 198.327653987 663.709349229 198.327653987 662.004674615 207.138826993 c 128,-1,18
 660.3 215.95 660.3 215.95 660.3 217.592857143 c 128,-1,19
 660.3 219.235714286 660.3 219.235714286 660.428571429 220.193877551 c 2,20,-1
 660.428571429 221.193877551 l 2,21,22
 660.428571429 228.642857143 660.428571429 228.642857143 663.714285714 231.071428571 c 128,-1,23
 667 233.5 667 233.5 674 233.5703125 c 2,24,-1
 684 233.5703125 l 2,25,26
 694 233.5 694 233.5 694 222.5 c 2,27,-1
 694 221.5 l 2,28,29
 694 203.5 694 203.5 682.33984375 162.5 c 0,30,31
 638.330450149 -0.5 638.330450149 -0.5 484 -0.5 c 2,32,-1
 474 -0.5 l 2,33,34
 388 -0.5 388 -0.5 315.06640625 147.5 c 1,35,-1
 302.622246405 174.478961331 l 1,36,37
 283.058985212 139.289265956 283.058985212 139.289265956 237.657226562 72.5 c 0,38,39
 188.100767628 -0.351863718894 188.100767628 -0.351863718894 123.263741156 -0.351863718894 c 2,40,-1
 122.962676172 -0.351863718894 l 2,41,42
 122.546879968 -0.355146124524 122.546879968 -0.355146124524 122.133339635 -0.355146124524 c 2,43,-1
 112.133339635 -0.355146124524 l 2,44,45
 94.6674537901 -0.355146124524 94.6674537901 -0.355146124524 81.2255859375 5.5 c 0,46,47
 42.0253577969 20.9899798603 42.0253577969 20.9899798603 42.0253742003 83.4198062764 c 2,48,-1
 42.0253742003 84.5887967249 l 2,49,50
 42.0253742003 126.566579953 42.0253742003 126.566579953 66 189.5 c 0,51,52
 108 298.5 108 298.5 185 298.53515625 c 2,53,-1
 195 298.53515625 l 2,54,55
 243.810266579 298.501509467 243.810266579 298.501509467 300.864277531 206.90290512 c 1,56,-1
 357.361328125 304.5 l 1,57,-1
 467 490.5 l 2,58,59
 562 653.5 562 653.5 597 754.5 c 0,60,61
 605.445420044 779.068494672 605.445420044 779.068494672 605.638346954 790.07932196 c 0,62,63
 605.58901128 792.73296599 605.58901128 792.73296599 605 794.5 c 0,64,65
 600.708335192 807.374994424 600.708335192 807.374994424 587.892458528 809.290289127 c 0,66,67
 568.723494183 806.965913128 568.723494183 806.965913128 537 788.5 c 0,68,69
 499.390651085 766.726166418 499.390651085 766.726166418 449.047215858 766.726166418 c 2,70,-1
 439.047215858 766.726166418 l 2,71,72
 438.866892974 766.726166418 438.866892974 766.726166418 438.686406715 766.726445769 c 2,73,-1
 437.021590189 766.726445769 l 2,74,75
 383.492761477 766.726445769 383.492761477 766.726445769 328 791.5 c 0,76,77
 287.67142123 809.519152217 287.67142123 809.519152217 254.705424014 810.810001431 c 0,78,79
 199.069703716 808.553703132 199.069703716 808.553703132 166 783.075195312 c 0,80,81
 119 748.5 119 748.5 93 719.5 c 0,82,83
 88.9259259259 715.018518519 88.9259259259 715.018518519 85.1838134431 715.018518519 c 2,84,-1
 75.1838134431 715.018518519 l 2,85,86
 69.7407407407 715.018518519 69.7407407407 715.018518519 65 724.5 c 1,87,-1
 65 725.5 l 1,88,-1
 153 791.5 l 1,89,90
 195.499000345 819.173767666 195.499000345 819.173767666 243.859001329 819.173767666 c 2,91,-1
 245.624159756 819.173767666 l 2,92,93
 245.978226733 819.175281007 245.978226733 819.175281007 246.332665902 819.175281007 c 2,94,-1
 256.332665902 819.175281007 l 2,95,96
 296.746853684 819.175281007 296.746853684 819.175281007 347.369479897 797.474906158 c 128,-1,97
 397.992106109 775.77453131 397.992106109 775.77453131 444.077209767 774.531553837 c 0,98,99
 487.053065791 775.665254842 487.053065791 775.665254842 522 795.5 c 0,100,101
 560.278481013 817.829113924 560.278481013 817.829113924 583.011376382 817.829113924 c 2,102,-1
 593.011376382 817.829113924 l 2,103,104
 613.037974684 817.829113924 613.037974684 817.829113924 621 800.5 c 0,105,106
 622.714285714 797.5 622.714285714 797.5 622.714285714 794.464285714 c 128,-1,107
 622.714285714 791.428571429 622.714285714 791.428571429 622.666666667 790.5 c 2,108,-1
 622.666666667 789.5 l 2,109,110
 622.666666667 776.833333333 622.666666667 776.833333333 616 753.5 c 0,111,112
 574 642.5 574 642.5 483 484.5 c 1,113,-1
 373 300.5 l 1,114,-1
 311.268514508 190.976396709 l 1,115,-1
 331 152.5 l 2,116,117
 403.80755477 9.83654808574 403.80755477 9.83654808574 482.423298047 7.53765187809 c 0,118,119
 584.837681973 9.55124511141 584.837681973 9.55124511141 636 94.5 c 0,14,15
EndSplineSet
EndChar

StartChar: underscore
Encoding: 95 95 96
Width: 255
GlyphClass: 2
Flags: W
LayerCount: 2
Fore
SplineSet
256 13.5 m 1,0,-1
 256 12.5 l 1,1,2
 254 6.5 254 6.5 254 0.5 c 1,3,-1
 12 -0.5 l 1,4,-1
 2 -0.5 l 1,5,-1
 3.5 12.5 l 1,6,-1
 13.5 12.5 l 1,7,8
 97.9189453125 7.73046875 97.9189453125 7.73046875 246 13.5 c 1,9,-1
 256 13.5 l 1,0,-1
EndSplineSet
EndChar

StartChar: d
Encoding: 100 100 101
Width: 493
GlyphClass: 2
Flags: W
LayerCount: 2
Fore
SplineSet
318 110.5 m 2,0,-1
 318 111.5 l 1,1,2
 319 229.5 319 229.5 335 330.5 c 2,3,-1
 345.639016021 397.198446593 l 1,4,5
 328.880252829 429.598495876 328.880252829 429.598495876 296.188871369 456.435795794 c 128,-1,6
 263.497489909 483.273095713 263.497489909 483.273095713 218.201048891 485.359816889 c 1,7,8
 162.107135847 482.624120132 162.107135847 482.624120132 125.166992188 426.5 c 0,9,10
 96.3749216653 382.755457496 96.3749216653 382.755457496 68 301.5 c 0,11,12
 46.2859140456 238.912340484 46.2859140456 238.912340484 46.1891095795 182.850653692 c 0,13,14
 46.2426246528 151.663422932 46.2426246528 151.663422932 53 122.5 c 0,15,16
 68 56.5 68 56.5 116 24.5 c 0,17,18
 141.571858125 6.91934753901 141.571858125 6.91934753901 183.108558242 5.94213076191 c 0,19,20
 266.531597799 7.81983671885 266.531597799 7.81983671885 296.5 52.5 c 0,21,22
 307.981288995 69.4723402528 307.981288995 69.4723402528 318.308766956 91.2625758335 c 1,23,24
 318 100.054598815 318 100.054598815 318 110.5 c 2,0,-1
29.8571428571 182.209183673 m 2,25,26
 29.8571428571 239.928571429 29.8571428571 239.928571429 53 305.5 c 0,27,28
 82 387.5 82 387.5 111 431.5 c 0,29,30
 150.631288925 491.630231472 150.631288925 491.630231472 207.654767591 491.630231472 c 2,31,-1
 217.654767591 491.630231472 l 2,32,33
 220.308549588 491.630231472 220.308549588 491.630231472 223 491.5 c 0,34,35
 277 489.5 277 489.5 309 462.5 c 0,36,37
 333.35529987 442.072974302 333.35529987 442.072974302 349.106407574 418.936324408 c 1,38,-1
 413 819.5 l 1,39,-1
 430 819.5 l 1,40,-1
 430 818.5 l 1,41,-1
 351 329.5 l 2,42,43
 334.048935051 224.575053671 334.048935051 224.575053671 334.000142897 123.085937509 c 0,44,45
 334.07825836 11.5993892332 334.07825836 11.5993892332 376.258635461 5.8163869256 c 1,46,47
 401.718670663 8.87490077723 401.718670663 8.87490077723 428 41.5 c 0,48,49
 442 58.5 442 58.5 444 60 c 0,50,51
 447 61.5 447 61.5 453 61.5 c 2,52,-1
 463 61.5 l 2,53,54
 467 61.5 467 61.5 472 56.5 c 0,55,56
 474 54.5 474 54.5 474 49.5 c 128,-1,57
 474 44.5 474 44.5 471 39.5 c 128,-1,58
 468 34.5 468 34.5 457 27.5 c 0,59,60
 412 -0.5 412 -0.5 384.599609375 -0.5 c 2,61,-1
 374.599609375 -0.5 l 2,62,63
 331.059457192 -0.5 331.059457192 -0.5 321.065767475 62.2205591118 c 1,64,65
 316.447824216 54.2943101579 316.447824216 54.2943101579 311.463867188 47.5 c 0,66,67
 277.471581274 -0.480392156863 277.471581274 -0.480392156863 189.883890811 -0.480392156863 c 2,68,-1
 179.883890811 -0.480392156863 l 2,69,70
 132.196078431 -0.480392156863 132.196078431 -0.480392156863 102 18.5 c 0,71,72
 54 49.5 54 49.5 37 119.5 c 0,73,74
 30 149 30 149 29.8571428571 181.209183673 c 2,75,-1
 29.8571428571 182.209183673 l 2,25,26
EndSplineSet
EndChar

StartChar: f
Encoding: 102 102 103
Width: 310
GlyphClass: 2
Flags: W
LayerCount: 2
Back
SplineSet
273.5625 845 m 128,-1,0
 273.5625 857 273.5625 857 285.5625 857 c 128,-1,1
 297.5625 857 297.5625 857 297.5625 845 c 128,-1,2
 297.5625 833 297.5625 833 285.5625 833 c 128,-1,3
 273.5625 833 273.5625 833 273.5625 845 c 128,-1,0
EndSplineSet
Fore
SplineSet
87.3157894737 796.721606648 m 2,0,1
 87.3157894737 893.543478261 87.3157894737 893.543478261 157.684310019 893.543478261 c 2,2,-1
 167.684310019 893.543478261 l 2,3,4
 186.739130435 893.543478261 186.739130435 893.543478261 211.369565217 886.52173913 c 128,-1,5
 236 879.5 236 879.5 251 870.5 c 0,6,7
 273.260869565 856.586956522 273.260869565 856.586956522 273.260869565 845.819470699 c 2,8,-1
 273.260869565 844.819470699 l 2,9,10
 273.260869565 840.108695652 273.260869565 840.108695652 268.797101449 835.804347826 c 128,-1,11
 264.333333333 831.5 264.333333333 831.5 259.111111111 831.5 c 2,12,-1
 249.111111111 831.5 l 2,13,14
 238.666666667 831.5 238.666666667 831.5 226 849.5 c 0,15,16
 211 871.5 211 871.5 197 876.5 c 0,17,18
 175.524653817 884.035209187 175.524653817 884.035209187 158.591657816 885.04078968 c 0,19,20
 137.679878419 883.687073821 137.679878419 883.687073821 125 870.5 c 0,21,22
 105.562328891 850.284822047 105.562328891 850.284822047 105.469200559 798.634765653 c 0,23,24
 105.495078168 784.269104472 105.495078168 784.269104472 107 767.5 c 0,25,26
 121 621.5 121 621.5 122 616.5 c 0,27,28
 123 584.5 123 584.5 133 483.5 c 1,29,30
 140.923668588 483.282913189 140.923668588 483.282913189 148.835555504 483.230769759 c 0,31,32
 208.756301652 483.626050287 208.756301652 483.626050287 268 493.5 c 1,33,-1
 278 493.5 l 1,34,-1
 278 487.5 l 1,35,-1
 244 482.5 l 1,36,37
 211.625 476.375 211.625 476.375 151.6875 476.375 c 2,38,-1
 141.6875 476.375 l 2,39,40
 137.983449219 476.375 137.983449219 476.375 134.174135564 476.39839175 c 1,41,42
 148.19526256 387.553656515 148.19526256 387.553656515 168 215.5 c 0,43,44
 184.055555556 80.4444444444 184.055555556 80.4444444444 184.055555556 -16.2561728395 c 2,45,-1
 184.055555556 -17.2561728395 l 2,46,47
 184.055555556 -22.8426288446 184.055555556 -22.8426288446 184.029554552 -25.9731381981 c 128,-1,48
 184.003553548 -29.1036475516 184.003553548 -29.1036475516 184.003553553 -29.902472765 c 2,49,-1
 184.003553553 -30.902472765 l 2,50,51
 184.003553553 -162.584484485 184.003553553 -162.584484485 141 -192.5 c 0,52,53
 120.06122449 -207.37755102 120.06122449 -207.37755102 91.5318617243 -207.37755102 c 2,54,-1
 81.5318617243 -207.37755102 l 2,55,56
 58.2857142857 -207.37755102 58.2857142857 -207.37755102 25.6428571429 -195.93877551 c 128,-1,57
 -7 -184.5 -7 -184.5 -60 -149.5 c 0,58,59
 -63.125 -147.625 -63.125 -147.625 -63.125 -144.578125 c 2,60,-1
 -63.125 -143.578125 l 2,61,62
 -63.125 -138.5625 -63.125 -138.5625 -59 -136.5 c 1,63,-1
 -49 -136.5 l 1,64,65
 7 -178.5 7 -178.5 42 -189.5 c 0,66,67
 66.1538699293 -197.498173817 66.1538699293 -197.498173817 86.089996524 -198.411524749 c 0,68,69
 109.220977234 -197.290664647 109.220977234 -197.290664647 126 -185.5 c 0,70,71
 168.094524801 -156.501549582 168.094524801 -156.501549582 168.187295096 -43.4995901533 c 0,72,73
 168.181301652 -36.1751032856 168.181301652 -36.1751032856 168 -28.5 c 0,74,75
 168 73.5 168 73.5 150 212.5 c 2,76,-1
 116 477.5 l 1,77,78
 96.0217674901 480.40006601 96.0217674901 480.40006601 80.0929785788 480.808166714 c 0,79,80
 54.1612795541 480.083443201 54.1612795541 480.083443201 41 471.5 c 0,81,82
 33 466.5 33 466.5 29 452.5 c 1,83,-1
 19 452.5 l 1,84,-1
 6 458.5 l 1,85,-1
 6 459.5 l 1,86,87
 8 472.5 8 472.5 25 481.5 c 0,88,89
 37 488.357142857 37 488.357142857 65 488.357142857 c 2,90,-1
 75 488.357142857 l 2,91,92
 92.3031256854 488.357142857 92.3031256854 488.357142857 115.71641787 485.738500071 c 1,93,94
 110.80260578 524.981527336 110.80260578 524.981527336 106.40130289 581.240763668 c 128,-1,95
 102 637.5 102 637.5 89 763.5 c 0,96,97
 87.2727272727 778.613636364 87.2727272727 778.613636364 87.2727272727 786.163875598 c 128,-1,98
 87.2727272727 793.714114833 87.2727272727 793.714114833 87.3157894737 795.721606648 c 2,99,-1
 87.3157894737 796.721606648 l 2,0,1
EndSplineSet
EndChar

StartChar: h
Encoding: 104 104 105
Width: 537
GlyphClass: 2
Flags: W
LayerCount: 2
Fore
SplineSet
44.7806094238 -1.48869025903 m 2,0,1
 33.5593383704 -1.48869025903 33.5593383704 -1.48869025903 33.5593383704 2.12198680193 c 2,2,-1
 33.5593383704 3.12198680193 l 2,3,4
 33.5593383704 3.30605780208 33.5593383704 3.30605780208 70.1806640625 280.5 c 1,5,-1
 90 413.5 l 1,6,-1
 141 820.379882812 l 1,7,8
 143.5 820.439941406 143.5 820.439941406 145.25 820.439941406 c 2,9,-1
 155.25 820.439941406 l 2,10,11
 157 820.439941406 157 820.439941406 158 820.379882812 c 1,12,-1
 158 819.379882812 l 1,13,-1
 112.473216385 457.135453004 l 1,14,15
 143.363436839 491.68960411 143.363436839 491.68960411 238 492.26171875 c 0,16,17
 243.383119032 492.26171875 243.383119032 492.26171875 248.766238065 492.26171875 c 0,18,19
 316.208730232 492.26171875 316.208730232 492.26171875 353 450.5 c 0,20,21
 380.225 419.975 380.225 419.975 380.225 335 c 2,22,-1
 380.225 334 l 2,23,24
 380.225 315.975 380.225 315.975 379 295.5 c 0,25,26
 373 196.5 373 196.5 351.37890625 101.5 c 0,27,28
 346.654459692 81.2984449298 346.654459692 81.2984449298 346.59192738 62.6398117018 c 0,29,30
 346.649588042 45.4731201729 346.649588042 45.4731201729 352.401367188 29.5 c 0,31,32
 359.916535328 8.52410309701 359.916535328 8.52410309701 384.925336395 6.64492017272 c 0,33,34
 412.191838264 8.94723063225 412.191838264 8.94723063225 439 41.5 c 0,35,36
 453 58.5 453 58.5 455 60 c 0,37,38
 458 61.5 458 61.5 464 61.5 c 2,39,-1
 474 61.5 l 2,40,41
 478 61.5 478 61.5 483 56.5 c 0,42,43
 485 54.5 485 54.5 485 49.5 c 128,-1,44
 485 44.5 485 44.5 482 39.5 c 128,-1,45
 479 34.5 479 34.5 468 27.5 c 0,46,47
 423 -0.5 423 -0.5 395.599609375 -0.5 c 2,48,-1
 385.599609375 -0.5 l 2,49,50
 347 -0.5 347 -0.5 337.662109375 26.5 c 0,51,52
 332 42.5 332 42.5 331.002929688 63.494140625 c 2,53,-1
 331.002929688 65.5495531556 l 2,54,55
 331.002929688 80.524535948 331.002929688 80.524535948 335.572265625 103.5 c 0,56,57
 364.206423561 249.047202855 364.206423561 249.047202855 364.20907392 331.727893025 c 128,-1,58
 364.211724279 414.408583196 364.211724279 414.408583196 339 444.5 c 0,59,60
 304 484.5 304 484.5 237 485.594726562 c 0,61,62
 235.074009203 485.639851803 235.074009203 485.639851803 233.174314521 485.665699497 c 0,63,64
 122.142209139 484.096674093 122.142209139 484.096674093 108 411.5 c 0,65,66
 105.88606167 400.930308348 105.88606167 400.930308348 86.7138671875 279.5 c 1,67,68
 62.6479324621 97.4026471453 62.6479324621 97.4026471453 62.5818641316 6.3375459421 c 0,69,70
 62.5818641316 4.39789431676 62.5818641316 4.39789431676 62.595703125 2.5 c 0,71,72
 62.1506100933 -1.48869025903 62.1506100933 -1.48869025903 54.7806094238 -1.48869025903 c 2,73,-1
 44.7806094238 -1.48869025903 l 2,0,1
EndSplineSet
EndChar

StartChar: i
Encoding: 105 105 106
Width: 273
GlyphClass: 2
Flags: W
LayerCount: 2
Fore
SplineSet
113.014864602 491.392763731 m 2
 117 491.392763731 117 491.392763731 117 490.5 c 2
 112 457.5 l 2
 112 455.5 112 455.5 104.646484375 414.5 c 0
 88 308.5 88 308.5 82.0172487758 235.204648577 c 0
 76.0344975516 161.909297154 76.0344975516 161.909297154 76.0002176537 122.992187503 c 0
 76.0959984269 11.596957259 76.0959984269 11.596957259 118.258635461 5.8163869256 c 1
 143.718670663 8.87490077723 143.718670663 8.87490077723 170 41.5 c 0
 184 58.5 184 58.5 186 60 c 0
 189 61.5 189 61.5 195 61.5 c 2
 205 61.5 l 2
 209 61.5 209 61.5 214 56.5 c 0
 216 54 216 54 216 49.25 c 0
 216 44.5 216 44.5 213 39.5 c 0
 210 34.5 210 34.5 199 27.5 c 0
 154 -0.5 154 -0.5 126.599609375 -0.5 c 2
 116.599609375 -0.5 l 2
 60 -3.5527136788e-15 60 -3.5527136788e-15 59.9829350398 106.74390347 c 2
 59.9829350398 107.74390347 l 2
 59.9829350398 109.605789421 59.9829350398 109.605789421 60 111.5 c 0
 60 174.5 60 174.5 64.4642014793 227.5 c 0
 75 357.5 75 357.5 82.240234375 414.5 c 2
 91 490.5 l 1
 92.7855274621 491.392763731 92.7855274621 491.392763731 100.150244481 491.392763731 c 2
 113.014864602 491.392763731 l 2
EndSplineSet
Refer: 287 -1 S 1 0 0 1 67 578 2
EndChar

StartChar: j
Encoding: 106 106 107
Width: 306
GlyphClass: 2
Flags: W
LayerCount: 2
Fore
SplineSet
102.272691004 154.606567695 m 0
 102.272691004 156.226749447 102.272691004 156.226749447 102.276885684 157.845403921 c 2
 102.276885684 158.845403921 l 2
 102.276885684 212.026237625 102.276885684 212.026237625 106.676757812 263.5 c 0
 107 270.5 107 270.5 133 491.379882812 c 1
 158 491.379882812 l 1
 158 490.379882812 l 1
 131 323.5 131 323.5 124.99710599 263.450066248 c 0
 118.99421198 203.400132497 118.99421198 203.400132497 118.970036269 144.488953999 c 0
 119.012716532 43.6819983548 119.012716532 43.6819983548 136 -59.5 c 0
 148.875912409 -137.675182482 148.875912409 -137.675182482 148.875912409 -196.771458256 c 2
 148.875912409 -197.771458256 l 2
 148.875912409 -331.441605839 148.875912409 -331.441605839 83 -367.5 c 0
 36.9512195122 -392.475609756 36.9512195122 -392.475609756 -6.66091612136 -392.475609756 c 2
 -16.6609161214 -392.475609756 l 2
 -28.9268292683 -392.475609756 -28.9268292683 -392.475609756 -41 -390.5 c 0
 -122 -377.5 -122 -377.5 -145 -310.5 c 1
 -156 -262.5 l 2
 -158.562949229 -251.315970282 -158.562949229 -251.315970282 -158.562949229 -243.12720987 c 2
 -158.562949229 -242.12720987 l 2
 -158.562949229 -230.062949229 -158.562949229 -230.062949229 -153 -224.5 c 0
 -149.869565217 -221.369565217 -149.869565217 -221.369565217 -145.786389414 -221.369565217 c 2
 -135.786389414 -221.369565217 l 2
 -132.043478261 -221.369565217 -132.043478261 -221.369565217 -127.5 -224 c 0
 -123.119771863 -226.433460076 -123.119771863 -226.433460076 -123.119771863 -234.078040741 c 2
 -123.119771863 -235.691531086 l 2
 -123.119771863 -239.007342492 -123.119771863 -239.007342492 -127 -255.5 c 0
 -133.873869141 -285.94142048 -133.873869141 -285.94142048 -128 -306.5 c 0
 -109 -369.5 -109 -369.5 -30 -384.5 c 0
 -21.7157339355 -386.156819153 -21.7157339355 -386.156819153 -12.9756770686 -386.521161857 c 0
 24.548023239 -385.001604158 24.548023239 -385.001604158 70 -361 c 0
 131.34506892 -326.493398733 131.34506892 -326.493398733 131.46009823 -194.553287017 c 0
 131.409840931 -137.56472245 131.409840931 -137.56472245 120 -62.5 c 0
 102.272691004 49.2805317218 102.272691004 49.2805317218 102.272691004 154.606567695 c 0
EndSplineSet
Refer: 287 -1 S 1 0 0 1 109 578 2
EndChar

StartChar: k
Encoding: 107 107 108
Width: 551
GlyphClass: 2
Flags: W
LayerCount: 2
Fore
SplineSet
350.033613445 184.167926613 m 2,0,1
 350.033613445 181.149859944 350.033613445 181.149859944 348.43986533 148.849862806 c 128,-1,2
 346.846117216 116.549865668 346.846117216 116.549865668 346.839576101 110.904939083 c 0,3,4
 346.953692897 12.8955398921 346.953692897 12.8955398921 391.913861224 7.78153531575 c 1,5,6
 416.456930452 10.5939100058 416.456930452 10.5939100058 441 41.5 c 0,7,8
 455 58.5 455 58.5 457 60 c 0,9,10
 460 61.5 460 61.5 466 61.5 c 2,11,-1
 476 61.5 l 2,12,13
 480 61.5 480 61.5 485 56.5 c 0,14,15
 487 54.5 487 54.5 487 49.5 c 128,-1,16
 487 44.5 487 44.5 484 39.5 c 128,-1,17
 481 34.5 481 34.5 470 27.5 c 0,18,19
 425 -0.5 425 -0.5 397.599609375 -0.5 c 2,20,-1
 387.599609375 -0.5 l 2,21,22
 331 -3.5527136788e-15 331 -3.5527136788e-15 330.933992974 112.644946894 c 2,23,-1
 330.933992974 113.644946894 l 2,24,25
 330.933992974 120.179859477 330.933992974 120.179859477 332.481967153 151.625889714 c 128,-1,26
 334.029941332 183.07191995 334.029941332 183.07191995 334.034108779 184.621666874 c 0,27,28
 333.761255102 285.620191794 333.761255102 285.620191794 223 291.566646008 c 0,29,30
 177.118075081 293.240344172 177.118075081 293.240344172 155.391387056 306.954881233 c 1,31,32
 130.09571882 274.940809269 130.09571882 274.940809269 105 188.5 c 0,33,34
 99 170.5 99 170.5 89 71.5 c 2,35,-1
 82 -0.5 l 1,36,-1
 55 -0.5 l 1,37,38
 89.8083911771 213.846408827 89.8083911771 213.846408827 90.2711321948 227.5 c 2,39,-1
 125.96875 584.5 l 2,40,41
 138.18936684 701.310051869 138.18936684 701.310051869 141.93359375 773.5 c 1,42,-1
 158 773.5 l 1,43,-1
 158 772.5 l 1,44,-1
 142.854492188 583.5 l 1,45,46
 133.74447119 486.432369666 133.74447119 486.432369666 109.981651554 257.754106286 c 1,47,48
 127.282208278 297.979913735 127.282208278 297.979913735 149 322.5 c 0,49,50
 220 402.5 220 402.5 358 461.04151913 c 0,51,52
 386 472.5 386 472.5 422 486.5 c 1,53,-1
 432 486.5 l 1,54,-1
 434 480.5 l 1,55,56
 398 465.5 398 465.5 369 453.512787156 c 0,57,58
 231.518276448 395.717874357 231.518276448 395.717874357 164.437377745 317.093092958 c 1,59,60
 186.556545799 299.470209955 186.556545799 299.470209955 235 296.877192982 c 0,61,62
 350.033613445 291.590372991 350.033613445 291.590372991 350.033613445 185.167926613 c 2,63,-1
 350.033613445 184.167926613 l 2,0,1
EndSplineSet
EndChar

StartChar: l
Encoding: 108 108 109
Width: 286
GlyphClass: 2
Flags: W
LayerCount: 2
Fore
SplineSet
142.629155394 818.392763731 m 2,0,1
 146.081474431 818.392763731 146.081474431 818.392763731 146.759765625 817.5 c 2,2,-1
 146.759765625 816.5 l 1,3,-1
 141.759765625 781.5 l 2,4,5
 141 779.5 141 779.5 134.40625 738.5 c 0,6,7
 80 370.5 80 370.5 61.478515625 226.5 c 0,8,9
 55.8965769192 183.419616862 55.8965769192 183.419616862 55.8664471386 137.369762665 c 0,10,11
 55.870959553 130.468184207 55.870959553 130.468184207 56 123.5 c 0,12,13
 57.3024775521 13.4619533798 57.3024775521 13.4619533798 101.126347354 7.80641728793 c 1,14,15
 125.563173946 10.7277040091 125.563173946 10.7277040091 150 41.5 c 0,16,17
 164 58.5 164 58.5 166 60 c 0,18,19
 169 61.5 169 61.5 175 61.5 c 2,20,-1
 185 61.5 l 2,21,22
 189 61.5 189 61.5 194 56.5 c 0,23,24
 196 54 196 54 196 49.25 c 128,-1,25
 196 44.5 196 44.5 193 39.5 c 128,-1,26
 190 34.5 190 34.5 179 27.5 c 0,27,28
 134 -0.5 134 -0.5 106.599609375 -0.5 c 2,29,-1
 96.599609375 -0.5 l 2,30,31
 41 -0.5 41 -0.5 39 120.5 c 0,32,33
 39 128 39 128 38.8660211959 135.629981112 c 2,34,-1
 38.8660211959 136.629981112 l 2,35,36
 38.8660211959 185.064961403 38.8660211959 185.064961403 44.4638671875 227.5 c 2,37,-1
 112 738.5 l 2,38,39
 116.936104911 777.988839286 116.936104911 777.988839286 120.759765625 817.5 c 0,40,41
 121 818 121 818 129.764535272 818.392763731 c 2,42,-1
 142.629155394 818.392763731 l 2,0,1
EndSplineSet
EndChar

StartChar: q
Encoding: 113 113 114
Width: 461
GlyphClass: 2
Flags: W
LayerCount: 2
Fore
SplineSet
184.220248823 -0.480392156863 m 2,0,1
 136.342984069 -0.480392156863 136.342984069 -0.480392156863 107.0703125 18.5 c 0,2,3
 60 49.5 60 49.5 45.59765625 119.5 c 0,4,5
 40.2176590553 144.008458958 40.2176590553 144.008458958 40.2176590553 169.844241964 c 0,6,7
 40.2176590553 170.88948268 40.2176590553 170.88948268 40.2264649083 171.936895929 c 2,8,-1
 40.2264649083 172.936895929 l 2,9,10
 40.2264649083 234.632641136 40.2264649083 234.632641136 70.1132324541 311.066320568 c 128,-1,11
 100 387.5 100 387.5 130.458007812 431.5 c 0,12,13
 172.050358559 492.634328358 172.050358559 492.634328358 229.196284712 492.634328358 c 2,14,-1
 239.196284712 492.634328358 l 2,15,16
 241.875 492.634328358 241.875 492.634328358 244.587890625 492.5 c 0,17,18
 298 490.5 298 490.5 330.041015625 462.5 c 0,19,20
 354.512731805 441.143222777 354.512731805 441.143222777 368.144822726 422.94292957 c 1,21,22
 372.422324082 457.42944603 372.422324082 457.42944603 376.548828125 491.379882812 c 1,23,-1
 393.548828125 491.379882812 l 1,24,-1
 393.548828125 490.379882812 l 1,25,-1
 317.325195312 -94.5 l 2,26,27
 289.69557343 -308.473514058 289.69557343 -308.473514058 289.575051251 -366.220189185 c 0,28,29
 289.589512066 -372.984632749 289.589512066 -372.984632749 290 -377.5 c 1,30,-1
 280 -378.5 l 1,31,-1
 260 -378.5 l 1,32,33
 309.842007031 -21.8858705362 309.842007031 -21.8858705362 319.646870493 50.3104705835 c 1,34,35
 318.60358133 48.8839538735 318.60358133 48.8839538735 317.546875 47.5 c 0,36,37
 282.346143981 -0.480392156863 282.346143981 -0.480392156863 194.220248823 -0.480392156863 c 2,38,-1
 184.220248823 -0.480392156863 l 2,0,1
187.582605127 5.94142351584 m 0,39,40
 271.409746039 7.80255602102 271.409746039 7.80255602102 302.72265625 52.5 c 0,41,42
 314.532516282 68.5105428144 314.532516282 68.5105428144 324.916116336 89.2680759566 c 1,43,44
 346.473203616 249.30666321 346.473203616 249.30666321 365.203659062 399.309948679 c 1,45,46
 334.483415235 440.952012398 334.483415235 440.952012398 319 454.5 c 0,47,48
 285.179925553 483.48863524 285.179925553 483.48863524 238.673583777 485.399616566 c 1,49,50
 186.382721092 482.891175701 186.382721092 482.891175701 145.485351562 426.5 c 0,51,52
 119 388.5 119 388.5 82.953125 301.5 c 0,53,54
 56.6888510283 236.45023787 56.6888510283 236.45023787 56.5815986691 175.231595305 c 0,55,56
 56.628100695 148.500189297 56.628100695 148.500189297 61.6669921875 122.5 c 0,57,58
 74 56.5 74 56.5 121.245117188 24.5 c 0,59,60
 145.830896884 6.91296653216 145.830896884 6.91296653216 187.582605127 5.94142351584 c 0,39,40
EndSplineSet
EndChar

StartChar: r
Encoding: 114 114 115
Width: 422
GlyphClass: 2
Flags: W
LayerCount: 2
Fore
SplineSet
355 61.5 m 2,0,-1
 365 61.5 l 2,1,2
 369 61.5 369 61.5 374 56.5 c 0,3,4
 376 54.5 376 54.5 376 49.5 c 128,-1,5
 376 44.5 376 44.5 373 39.5 c 128,-1,6
 370 34.5 370 34.5 359 27.5 c 0,7,8
 314 -0.5 314 -0.5 286.599609375 -0.5 c 2,9,-1
 276.599609375 -0.5 l 2,10,11
 236 -0.5 236 -0.5 216.811523438 27.5 c 0,12,13
 199.315709919 52.548011546 199.315709919 52.548011546 199.315709919 96.1216049479 c 0,14,15
 199.315709919 96.9078853711 199.315709919 96.9078853711 199.321406868 97.7001980539 c 2,16,-1
 199.321406868 98.7001980539 l 2,17,18
 199.321406868 107.243512895 199.321406868 107.243512895 199.952148438 116.5 c 0,19,20
 206 207.5 206 207.5 235.000976562 297.5 c 0,21,22
 263.440707482 383.769992058 263.440707482 383.769992058 312.552463375 469.141238226 c 1,23,24
 289.950361573 458.437305228 289.950361573 458.437305228 263.992836637 458.437304843 c 2,25,-1
 253.992836637 458.437304843 l 2,26,27
 223.125390314 458.437304843 223.125390314 458.437304843 189 475.5 c 0,28,29
 175.702070122 482.148964939 175.702070122 482.148964939 139.848663316 483.384615197 c 0,30,31
 119.269810917 481.946403025 119.269810917 481.946403025 99 466.41796875 c 0,32,33
 73 446.5 73 446.5 37 393 c 1,34,-1
 27 393 l 1,35,36
 24 395.5 24 395.5 21.7080078125 398.5 c 1,37,-1
 21.7080078125 399.5 l 1,38,39
 57 450.5 57 450.5 84.5 475 c 0,40,41
 103.951155024 492.456164765 103.951155024 492.456164765 138.824756314 492.456164765 c 2,42,-1
 149.380059368 492.456164765 l 2,43,44
 186.082295119 492.456164765 186.082295119 492.456164765 202 484 c 0,45,46
 234.595187818 468.245659221 234.595187818 468.245659221 260.283570384 467.167939407 c 0,47,48
 286.792250461 468.325070887 286.792250461 468.325070887 307.5 482 c 0,49,50
 321 490.5 321 490.5 321 491.379882812 c 0,51,52
 322 491.439941406 322 491.439941406 325 491.439941406 c 2,53,-1
 335 491.439941406 l 2,54,55
 338 491.439941406 338 491.439941406 343 491.379882812 c 1,56,-1
 343 490.379882812 l 1,57,58
 284 391.5 284 391.5 251.991210938 294.5 c 0,59,60
 220 199.5 220 199.5 215.948242188 115.5 c 0,61,62
 215.579313742 108.617572025 215.579313742 108.617572025 215.565567458 102.142272376 c 0,63,64
 215.660610439 57.5901876556 215.660610439 57.5901876556 232.734375 32.5 c 0,65,66
 249.39396331 8.78609499737 249.39396331 8.78609499737 280.806381749 6.70100816577 c 0,67,68
 304.121925441 9.15240743722 304.121925441 9.15240743722 330 41.5 c 0,69,70
 344 58.5 344 58.5 346 60 c 0,71,72
 349 61.5 349 61.5 355 61.5 c 2,0,-1
EndSplineSet
EndChar

StartChar: s
Encoding: 115 115 116
Width: 394
GlyphClass: 2
Flags: W
LayerCount: 2
Back
SplineSet
300.083984375 446 m 132,-1,1
 300.083984375 458 300.083984375 458 312.083984375 458 c 132,-1,2
 324.083984375 458 324.083984375 458 324.083984375 446 c 132,-1,3
 324.083984375 434 324.083984375 434 312.083984375 434 c 132,-1,0
 300.083984375 434 300.083984375 434 300.083984375 446 c 132,-1,1
-458.916015625 364 m 1048
EndSplineSet
Fore
SplineSet
197.551813391 257.58718026 m 1,0,-1
 185.021003991 257.384057971 l 1,1,-1
 175.021003991 257.384057971 l 2,2,3
 174.571990529 257.382518553 174.571990529 257.382518553 174.124772903 257.382518553 c 0,4,5
 62.9990163688 257.382518553 62.9990163688 257.382518553 62.754601227 352.431687305 c 2,6,-1
 62.754601227 353.431687305 l 2,7,8
 62.754601227 369.59202454 62.754601227 369.59202454 66 388.5 c 0,9,10
 83 488.5 83 488.5 202 491.379882812 c 0,11,12
 202.933281844 491.202613946 202.933281844 491.202613946 203.825276066 491.202613946 c 128,-1,13
 204.844803488 491.202613946 204.844803488 491.202613946 205.810393064 491.434196696 c 2,14,-1
 215.810393064 491.434196696 l 2,15,16
 253.47296275 491.434196696 253.47296275 491.434196696 302 470.519900018 c 0,17,18
 327 459.5 327 459.5 330.5 456 c 128,-1,19
 334 452.5 334 452.5 334 445.5 c 2,20,-1
 334 444.5 l 2,21,22
 334 435.5 334 435.5 324 433.5 c 0,23,24
 321.592390995 433.166474556 321.592390995 433.166474556 320.888888889 433.166666667 c 2,25,-1
 310.888888889 433.166666667 l 2,26,27
 308 433.166666667 308 433.166666667 306 434.5 c 0,28,29
 244.242575371 482.005711253 244.242575371 482.005711253 202.388994072 483.487222113 c 0,30,31
 96.3613736544 481.285064739 96.3613736544 481.285064739 82 386.5 c 0,32,33
 79.6209488233 370.848347522 79.6209488233 370.848347522 79.5779678235 357.187845559 c 0,34,35
 79.8630637728 266.589434209 79.8630637728 266.589434209 184.00936451 264.517019633 c 0,36,37
 188.738847939 264.566666856 188.738847939 264.566666856 190.289318094 264.566666667 c 2,38,-1
 200.289318094 264.566666667 l 2,39,40
 346.831674208 264.566666667 346.831674208 264.566666667 346.831674208 154.126633361 c 2,41,-1
 346.831674208 153.126633361 l 2,42,43
 346.831674208 144.1760181 346.831674208 144.1760181 345.869140625 134.5 c 0,44,45
 332 -2 332 -2 181.320259772 -2.3546465675 c 2,46,-1
 170.65257549 -2.3546465675 l 2,47,48
 97.831041477 -2.3546465675 97.831041477 -2.3546465675 27 58.5 c 1,49,-1
 27 59.5 l 1,50,-1
 38 73.5 l 1,51,-1
 48 73.5 l 1,52,53
 110.156335303 6.48770100196 110.156335303 6.48770100196 177.028747325 4.55726151331 c 0,54,55
 316.294811416 7.22839836446 316.294811416 7.22839836446 330.046875 134.5 c 0,56,57
 331.1299109 144.435308054 331.1299109 144.435308054 331.158893263 153.575342309 c 0,58,59
 330.835193065 255.739491565 330.835193065 255.739491565 197.551813391 257.58718026 c 1,0,-1
EndSplineSet
EndChar

StartChar: t
Encoding: 116 116 117
Width: 338
GlyphClass: 2
Flags: W
LayerCount: 2
Fore
SplineSet
147.228298253 484.147230154 m 1,0,1
 154.801596026 483.323260817 154.801596026 483.323260817 168.835555504 483.230769759 c 0,2,3
 228.756301652 483.626050287 228.756301652 483.626050287 288 493.5 c 1,4,-1
 298 493.5 l 1,5,-1
 298 487.5 l 1,6,-1
 264 482.5 l 1,7,8
 231.625 476.375 231.625 476.375 171.6875 476.375 c 2,9,-1
 161.6875 476.375 l 2,10,11
 154.125181925 476.375 154.125181925 476.375 146.124099596 476.472503167 c 1,12,13
 122.475772449 312.00097555 122.475772449 312.00097555 111.478515625 226.5 c 0,14,15
 105.896576919 183.419616862 105.896576919 183.419616862 105.866447139 137.369762665 c 0,16,17
 105.870959553 130.468184207 105.870959553 130.468184207 106 123.5 c 0,18,19
 107.302477552 13.4619533797 107.302477552 13.4619533797 151.126347354 7.80641728793 c 1,20,21
 175.563173946 10.7277040091 175.563173946 10.7277040091 200 41.5 c 0,22,23
 214 58.5 214 58.5 216 60 c 0,24,25
 219 61.5 219 61.5 225 61.5 c 2,26,-1
 235 61.5 l 2,27,28
 239 61.5 239 61.5 244 56.5 c 0,29,30
 246 54 246 54 246 49.25 c 128,-1,31
 246 44.5 246 44.5 243 39.5 c 128,-1,32
 240 34.5 240 34.5 229 27.5 c 0,33,34
 184 -0.5 184 -0.5 156.599609375 -0.5 c 2,35,-1
 146.599609375 -0.5 l 2,36,37
 91 -0.5 91 -0.5 89 120.5 c 0,38,39
 89 128 89 128 88.8660211959 135.629981112 c 2,40,-1
 88.8660211959 136.629981112 l 2,41,42
 88.8660211959 185.064961403 88.8660211959 185.064961403 94.4638671875 227.5 c 2,43,-1
 127.615203985 478.333626361 l 1,44,45
 113.118564497 479.721161783 113.118564497 479.721161783 101.051637838 479.968219758 c 0,46,47
 73.3300627719 479.346403579 73.3300627719 479.346403579 61 471.5 c 0,48,49
 53 466.5 53 466.5 49 452.5 c 1,50,-1
 39 452.5 l 1,51,-1
 26 458.5 l 1,52,-1
 26 459.5 l 1,53,54
 28 472.5 28 472.5 45 481.5 c 0,55,56
 55.2877697842 487.579136691 55.2877697842 487.579136691 80.9220796025 487.579136691 c 0,57,58
 82.6967625899 487.579136691 82.6967625899 487.579136691 84.545 487.55 c 2,59,-1
 94.545 487.55 l 2,60,61
 109.25374648 487.55 109.25374648 487.55 128.620976904 485.943626226 c 1,62,-1
 162 738.5 l 2,63,64
 166.936104911 777.988839286 166.936104911 777.988839286 170.759765625 817.5 c 0,65,66
 171 818 171 818 179.764535272 818.392763731 c 2,67,-1
 192.629155394 818.392763731 l 2,68,69
 196.081474431 818.392763731 196.081474431 818.392763731 196.759765625 817.5 c 2,70,-1
 196.759765625 816.5 l 1,71,-1
 191.759765625 781.5 l 1,72,73
 188.985016104 774.195775039 188.985016104 774.195775039 147.228298253 484.147230154 c 1,0,1
EndSplineSet
EndChar

StartChar: v
Encoding: 118 118 119
Width: 454
GlyphClass: 2
Flags: W
LayerCount: 2
Fore
SplineSet
40.9052734375 254.5 m 0,0,1
 40.9243352274 255.606762896 40.9243352274 255.606762896 40.9243352274 258.527057861 c 128,-1,2
 40.9243352274 261.447352825 40.9243352274 261.447352825 40.6239878925 267.192543738 c 2,3,-1
 40.6239878925 268.192543738 l 2,4,5
 40.6239878925 308.230079455 40.6239878925 308.230079455 50 387.5 c 1,6,7
 65.4893617021 491.5 65.4893617021 491.5 65.58984375 491.5 c 2,8,-1
 75.58984375 491.5 l 1,9,-1
 82 491.379882812 l 1,10,-1
 82 490.379882812 l 1,11,-1
 66 383.5 l 1,12,13
 57.8305517166 315.693579247 57.8305517166 315.693579247 57.7832953251 272.580916039 c 0,14,15
 57.7933341979 263.483252065 57.7933341979 263.483252065 58.169921875 255.5 c 0,16,17
 67.1840062267 74.4747330187 67.1840062267 74.4747330187 173 9.5 c 0,18,19
 176.331541895 7.50107486287 176.331541895 7.50107486287 180.551017515 6.71872303618 c 0,20,21
 184.187775126 7.29185002214 184.187775126 7.29185002214 186 8.5 c 0,22,23
 201 18.5 201 18.5 244.171006315 70.5 c 0,24,25
 356.027021819 210.22958912 356.027021819 210.22958912 361 344.5 c 0,26,27
 363.97413474 430.749907451 363.97413474 430.749907451 357.790039062 490.5 c 1,28,-1
 357.790039062 491.5 l 1,29,-1
 384 491.5 l 2,30,31
 385 490.5 385 490.5 385 485 c 2,32,-1
 385 484 l 1,33,-1
 376 343.5 l 1,34,35
 374 206.5 374 206.5 257.492076871 64.5 c 0,36,37
 218.950165001 16.2157384383 218.950165001 16.2157384383 199 2.5 c 0,38,39
 195 -0.5 195 -0.5 185 -0.7578125 c 2,40,-1
 175 -0.7578125 l 2,41,42
 166 -0.5 166 -0.5 160 3.5 c 0,43,44
 49.8600234422 71.2007195356 49.8600234422 71.2007195356 40.9052734375 254.5 c 0,0,1
EndSplineSet
EndChar

StartChar: w
Encoding: 119 119 120
Width: 696
GlyphClass: 2
Flags: W
LayerCount: 2
Fore
SplineSet
323.996887244 309.467011825 m 1,0,-1
 323.151952299 325.445913001 l 1,1,-1
 323.151952299 326.445913001 l 2,2,3
 323.151952299 389.53327563 323.151952299 389.53327563 333 456.5 c 1,4,-1
 354 456.5 l 2,5,6
 355 455.5 355 455.5 355 450 c 2,7,-1
 355 449 l 2,8,9
 355 443.5 355 443.5 354 433.5 c 2,10,-1
 341.253337372 310.93593627 l 1,11,12
 344.632337909 77.4064920802 344.632337909 77.4064920802 446 9.5 c 0,13,14
 448.667637362 7.89941758305 448.667637362 7.89941758305 451.904577851 7.07884716589 c 0,15,16
 469.928290854 13.5962918086 469.928290854 13.5962918086 517.170898438 70.5 c 0,17,18
 592 162.5 592 162.5 604 344.5 c 0,19,20
 607.965198513 418.847472124 607.965198513 418.847472124 600.790039062 490.5 c 1,21,-1
 600.790039062 491.5 l 1,22,-1
 627 491.5 l 2,23,24
 627.066666667 491.533333333 627.066666667 491.533333333 627.128888889 491.533333333 c 0,25,26
 628 491.533333333 628 491.533333333 628 485 c 2,27,-1
 628 484 l 1,28,-1
 619 343.5 l 2,29,30
 607.243164062 159.801757812 607.243164062 159.801757812 530.4921875 64.5 c 0,31,32
 478.5859375 -0.2275390625 478.5859375 -0.2275390625 458 -0.7578125 c 2,33,-1
 448 -0.7578125 l 2,34,35
 439 -0.5 439 -0.5 433 3.5 c 0,36,37
 347.185721667 60.2245439862 347.185721667 60.2245439862 329.44738062 233.237498647 c 1,38,39
 306.192786486 123.604557449 306.192786486 123.604557449 250.4921875 64.5 c 0,40,41
 189 -0.5 189 -0.5 178 -0.7578125 c 2,42,-1
 168 -0.7578125 l 2,43,44
 159 -0.5 159 -0.5 153 3.5 c 0,45,46
 42.8955078125 76.28125 42.8955078125 76.28125 33.9052734375 254.5 c 0,47,48
 33.9243352274 255.606762896 33.9243352274 255.606762896 33.9243352274 258.527057861 c 128,-1,49
 33.9243352274 261.447352825 33.9243352274 261.447352825 33.6239878925 267.192543738 c 2,50,-1
 33.6239878925 268.192543738 l 2,51,52
 33.6239878925 308.230079455 33.6239878925 308.230079455 43 387.5 c 1,53,54
 58.4893617021 491.5 58.4893617021 491.5 58.58984375 491.5 c 2,55,-1
 68.58984375 491.5 l 1,56,-1
 75 491.379882812 l 1,57,-1
 75 490.379882812 l 1,58,-1
 59 383.5 l 1,59,60
 50.8305517166 315.693579247 50.8305517166 315.693579247 50.7832953251 272.580916039 c 0,61,62
 50.7933341979 263.483252065 50.7933341979 263.483252065 51.169921875 255.5 c 0,63,64
 60.18359375 74.474609375 60.18359375 74.474609375 166 9.5 c 0,65,66
 168.540779498 7.97553230119 168.540779498 7.97553230119 171.598003833 7.1586545494 c 0,67,68
 187.517533853 13.9259479235 187.517533853 13.9259479235 237.170898438 70.5 c 0,69,70
 308.992548516 150.491700875 308.992548516 150.491700875 323.996887244 309.467011825 c 1,0,-1
EndSplineSet
EndChar

StartChar: z
Encoding: 122 122 123
Width: 441
GlyphClass: 2
Flags: W
LayerCount: 2
Back
SplineSet
356.459960938 95 m 132,-1,0
 356.459960938 107 356.459960938 107 368.459960938 107 c 132,-1,1
 380.459960938 107 380.459960938 107 380.459960938 95 c 132,-1,2
 380.459960938 83 380.459960938 83 368.459960938 83 c 132,-1,3
 356.459960938 83 356.459960938 83 356.459960938 95 c 132,-1,0
EndSplineSet
Fore
SplineSet
217.725528898 458.804327551 m 2,0,1
 197.482643164 458.804327551 197.482643164 458.804327551 177.42630681 470.216060871 c 128,-1,2
 157.369970456 481.627794191 157.369970456 481.627794191 133.739940728 483.007749056 c 0,3,4
 100.951409413 480.546695674 100.951409413 480.546695674 60 441.5 c 1,5,-1
 51 432.5 l 1,6,-1
 41 432.5 l 1,7,-1
 35 435.5 l 1,8,-1
 34.9 436.59 l 2,9,10
 34.9 437.4 34.9 437.4 43 445.5 c 0,11,12
 88.6750498266 491.175049827 88.6750498266 491.175049827 128.177944379 491.175049827 c 2,13,-1
 138.177944379 491.175049827 l 2,14,15
 166.588972189 491.175049827 166.588972189 491.175049827 195 475.5 c 0,16,17
 208.720835189 467.782030206 208.720835189 467.782030206 223.912461895 466.980688331 c 0,18,19
 243.666062771 467.944117912 243.666062771 467.944117912 265 479.5 c 0,20,21
 289 491.5 289 491.5 310 491.790239977 c 2,22,-1
 320 491.790239977 l 2,23,24
 338 491.5 338 491.5 353 483.479657029 c 0,25,26
 363.982557167 478.006996599 363.982557167 478.006996599 363.982557167 464.978761471 c 2,27,-1
 363.982557167 463.978761471 l 2,28,29
 363.982557167 462.771803541 363.982557167 462.771803541 363.888299527 461.5 c 0,30,31
 360 403.5 360 403.5 323 350.5 c 0,32,33
 272 277.5 272 277.5 216 232.5 c 0,34,35
 111 148.5 111 148.5 100 135.5 c 0,36,37
 77 108.5 77 108.5 66 83.5 c 0,38,39
 52.3820470981 54.6619820902 52.3820470981 54.6619820902 52.2396009938 30.9574905814 c 0,40,41
 52.2719661526 25.5962369681 52.2719661526 25.5962369681 53 20.5 c 0,42,43
 67.3232804141 9.7575396894 67.3232804141 9.7575396894 84.651781282 8.43143987887 c 0,44,45
 101.962745819 9.69453129024 101.962745819 9.69453129024 123.678406036 20.1914988796 c 128,-1,46
 145.394066253 30.6884664689 145.394066253 30.6884664689 168.185790577 30.6884664689 c 2,47,-1
 178.185790577 30.6884664689 l 2,48,49
 198.840230285 30.6884664689 198.840230285 30.6884664689 223.002118167 20.0221768843 c 128,-1,50
 247.16400605 9.35588729965 247.16400605 9.35588729965 270.58783891 8.16090729799 c 0,51,52
 329.961845393 11.3298921975 329.961845393 11.3298921975 356 91.5 c 0,53,54
 358.697368421 99.1973684211 358.697368421 99.1973684211 365 105.5 c 0,55,56
 367 107 367 107 373.923186777 107.361818182 c 2,57,-1
 383.923186777 107.361818182 l 2,58,59
 395.180450055 107.361818182 395.180450055 107.361818182 395.180450055 95.69021477 c 2,60,-1
 395.180450055 94.69021477 l 2,61,62
 395.180450055 91.0188507865 395.180450055 91.0188507865 393.233398438 87.5 c 0,63,64
 389 81.5 389 81.5 385 74.5 c 0,65,66
 339.307692308 -0.269230769231 339.307692308 -0.269230769231 275.402366864 -0.269230769231 c 2,67,-1
 265.402366864 -0.269230769231 l 2,68,69
 237 -0.269230769231 237 -0.269230769231 205 14.5 c 0,70,71
 189.818408638 21.6912801187 189.818408638 21.6912801187 173.838753854 22.6576655392 c 0,72,73
 154.486861363 21.5052113697 154.486861363 21.5052113697 134 11.5 c 0,74,75
 99.4263822555 -0.107922406351 99.4263822555 -0.107922406351 90.6509756296 -0.107922406351 c 0,76,77
 90.1771062579 -0.107922406351 90.1771062579 -0.107922406351 89.7784636488 -0.0740740740741 c 2,78,-1
 79.7784636488 -0.0740740740741 l 2,79,80
 55.8703703704 -0.0740740740741 55.8703703704 -0.0740740740741 36 15.5 c 1,81,82
 35.1923076923 20.75 35.1923076923 20.75 35.1923076923 23.760989011 c 128,-1,83
 35.1923076923 26.771978022 35.1923076923 26.771978022 35.2380952381 27.9081632653 c 2,84,-1
 35.2380952381 28.9081632653 l 2,85,86
 35.2380952381 55.7380952381 35.2380952381 55.7380952381 49 86.5 c 0,87,88
 62 114.5 62 114.5 85 141.5 c 0,89,90
 105 164.5 105 164.5 202 239.5 c 0,91,92
 262 286.5 262 286.5 308 355.5 c 0,93,94
 344 408.5 344 408.5 346.719505033 462.5 c 0,95,96
 346.721865511 462.584154037 346.721865511 462.584154037 346.723639523 462.667931236 c 0,97,98
 346.525334511 471.777612997 346.525334511 471.777612997 339 476.178881838 c 0,99,100
 327.266442011 482.314793588 327.266442011 482.314793588 314.128022958 483.136339265 c 0,101,102
 297.207367823 482.103684112 297.207367823 482.103684112 274.603683911 470.801842056 c 128,-1,103
 252 459.5 252 459.5 229 458.813879777 c 2,104,-1
 227.725528898 458.804327551 l 1,105,-1
 217.725528898 458.804327551 l 2,0,1
EndSplineSet
EndChar

StartChar: uni00AD
Encoding: 162 173 163
Width: 363
GlyphClass: 2
Flags: W
LayerCount: 2
Fore
SplineSet
300 375.5 m 1,0,-1
 300 374.5 l 1,1,2
 298 368.5 298 368.5 298 362.5 c 1,3,-1
 56 355.5 l 1,4,-1
 46 355.5 l 1,5,-1
 47.5 368.5 l 1,6,-1
 57.5 368.5 l 2,7,8
 63.0967541877 368.209259523 63.0967541877 368.209259523 72.1909381653 368.150976641 c 0,9,10
 130.526302856 368.464395688 130.526302856 368.464395688 290 375.5 c 1,11,-1
 300 375.5 l 1,0,-1
EndSplineSet
EndChar

StartChar: uni0411
Encoding: 179 1041 180
Width: 738
GlyphClass: 2
Flags: W
LayerCount: 2
Fore
SplineSet
74.5587159057 6.69069162191 m 1,0,1
 152.922086864 13.09375906 152.922086864 13.09375906 188.802734375 234.5 c 0,2,3
 200.136597443 307.013180395 200.136597443 307.013180395 213.193938177 395.489744779 c 1,4,5
 111.524952334 305.474807019 111.524952334 305.474807019 50.1337890625 163.5 c 0,6,7
 22.5238835092 99.6481895737 22.5238835092 99.6481895737 22.3425520924 61.5988312947 c 0,8,9
 22.5907226371 9.81797455541 22.5907226371 9.81797455541 74.5587159057 6.69069162191 c 1,0,1
70.3120735132 -0.504255319149 m 2,10,11
 6.00357773346 -0.504255319149 6.00357773346 -0.504255319149 5.57604143915 59.7538529988 c 2,12,-1
 5.57604143915 60.7538529988 l 2,13,14
 5.57604143915 99.9071874948 5.57604143915 99.9071874948 33.1337890625 164.5 c 0,15,16
 96.995117188 314.5 96.995117188 314.5 215.236328125 414.5 c 1,17,-1
 223.84765625 502.5 l 1,18,-1
 227.677734375 556.5 l 2,19,20
 229.831054688 578.5 229.831054688 578.5 233.037312749 639.682678443 c 128,-1,21
 236.24357081 700.865356887 236.24357081 700.865356887 240.906908959 778.045431886 c 1,22,23
 135.509069514 767.102515726 135.509069514 767.102515726 103.215820312 737.5 c 0,24,25
 81.0047657129 717.064398395 81.0047657129 717.064398395 80.8007999638 690.173410835 c 0,26,27
 80.8826353074 679.354531046 80.8826353074 679.354531046 84.40079031 667.927265523 c 128,-1,28
 87.9189453125 656.5 87.9189453125 656.5 111.225585938 638.5 c 0,29,30
 116.765625 634.5 116.765625 634.5 126.346679688 626.5 c 1,31,32
 114.875 616.5 114.875 616.5 112.684570312 612.872070312 c 1,33,-1
 102.684570312 612.872070312 l 1,34,35
 96.083984375 620.5 96.083984375 620.5 89.50390625 628.5 c 0,36,37
 63.0373615455 660.140378259 63.0373615455 660.140378259 62.9727240224 689.308448696 c 2,38,-1
 62.9727240224 690.308448696 l 2,39,40
 62.9727240224 718.314264515 62.9727240224 718.314264515 88.42578125 742.5 c 0,41,42
 120.465539519 772.944173095 120.465539519 772.944173095 241.438123765 786.801482432 c 1,43,44
 242.44273954 803.293242832 242.44273954 803.293242832 243.4609375 819.5 c 1,45,-1
 259.4609375 819.5 l 1,46,-1
 259.4609375 818.5 l 1,47,-1
 257.892540164 788.573809837 l 1,48,49
 335.66284536 796.444680134 335.66284536 796.444680134 448.373046875 798.748046875 c 2,50,-1
 718.780273438 806.5 l 1,51,-1
 728.780273438 806.5 l 1,52,-1
 730.360351562 798.5 l 1,53,-1
 458.018554688 790.981445312 l 2,54,55
 337.919508039 787.202370196 337.919508039 787.202370196 257.425751121 779.673306218 c 1,56,-1
 247.459960938 589.5 l 2,57,58
 244.891601562 540.5 244.891601562 540.5 240.392839678 497.00204695 c 128,-1,59
 235.894077793 453.504093901 235.894077793 453.504093901 234.124222994 432.344209729 c 1,60,61
 285.559751254 477.165592465 285.559751254 477.165592465 333.852539062 483.5 c 0,62,63
 386.329489776 488.521055209 386.329489776 488.521055209 394.139646663 488.521055209 c 128,-1,64
 401.949803551 488.521055209 401.949803551 488.521055209 402.199881431 488.519607843 c 2,65,-1
 412.199881431 488.519607843 l 2,66,67
 482.899375766 488.519607843 482.899375766 488.519607843 535.856445312 464.5 c 0,68,69
 649.76701279 413.28568287 649.76701279 413.28568287 649.76701279 248.647009432 c 2,70,-1
 649.76701279 247.647009432 l 2,71,72
 649.76701279 138.901668799 649.76701279 138.901668799 585.416992188 73.5 c 0,73,74
 514.244029371 0.386075949367 514.244029371 0.386075949367 396.92567469 0.386075949367 c 2,75,-1
 386.92567469 0.386075949367 l 2,76,77
 382.294687006 0.386075949367 382.294687006 0.386075949367 377.591796875 0.5 c 0,78,79
 300.696289062 2.5 300.696289062 2.5 266.61328125 20 c 128,-1,80
 232.530273438 37.5 232.530273438 37.5 226.333007812 51.888671875 c 0,81,82
 225 56 225 56 224.914570157 59.0020823397 c 2,83,-1
 224.914570157 60.0020823397 l 2,84,85
 224.914570157 64.9007936507 224.914570157 64.9007936507 228.102539062 68.5 c 0,86,87
 232.913922991 73.0714285714 232.913922991 73.0714285714 237.485511001 73.0714285714 c 2,88,-1
 247.485511001 73.0714285714 l 2,89,90
 250.914202009 73.0714285714 250.914202009 73.0714285714 254.208007812 70.5 c 0,91,92
 332.514265379 9.36738926463 332.514265379 9.36738926463 384.733521131 7.44132724278 c 0,93,94
 500.996686591 9.45935543521 500.996686591 9.45935543521 572.522460938 76.5 c 0,95,96
 631.706826874 132.737314366 631.706826874 132.737314366 631.842508027 240.624771073 c 0,97,98
 631.821694123 256.972089607 631.821694123 256.972089607 630.451171875 274.5 c 0,99,100
 619.393554688 416.5 619.393554688 416.5 522.559570312 457.838867188 c 0,101,102
 471.047101195 479.892842912 471.047101195 479.892842912 403.373562251 480.671965234 c 0,103,104
 375.299096167 480.354300992 375.299096167 480.354300992 344.538085938 476.5 c 0,105,106
 301.275390625 471.5 301.275390625 471.5 232.725585938 413.5 c 1,107,-1
 205.751953125 232.5 l 2,108,109
 170.636394614 -0.504255319149 170.636394614 -0.504255319149 80.3120735132 -0.504255319149 c 2,110,-1
 70.3120735132 -0.504255319149 l 2,10,11
EndSplineSet
EndChar

StartChar: uni0413
Encoding: 181 1043 182
Width: 638
GlyphClass: 2
Flags: W
LayerCount: 2
Fore
SplineSet
312.056015879 711.101734851 m 2,0,1
 312.056015879 540.097618095 312.056015879 540.097618095 296.14791928 398.5 c 0,2,3
 277.40719499 230.57715327 277.40719499 230.57715327 225 76.5 c 0,4,5
 199 -1.5 199 -1.5 141 -6.5 c 0,6,7
 136.241935484 -6.90322580645 136.241935484 -6.90322580645 131.626951093 -6.90322580645 c 2,8,-1
 121.626951093 -6.90322580645 l 2,9,10
 74.3024193548 -6.90322580645 74.3024193548 -6.90322580645 35 45.5 c 0,11,12
 33 49 33 49 32.6111975117 53.1382238196 c 2,13,-1
 32.6111975117 54.1382238196 l 2,14,15
 32.6111975117 61.2407983411 32.6111975117 61.2407983411 36.5278209781 64.1481769483 c 128,-1,16
 40.4444444444 67.0555555556 40.4444444444 67.0555555556 45.2839506173 67.0555555556 c 2,17,-1
 55.2839506173 67.0555555556 l 2,18,19
 61.5247395833 67.0555555556 61.5247395833 67.0555555556 64.56640625 63.5 c 0,20,21
 66 62.5 66 62.5 72.5 43.5 c 0,22,23
 79 27.5 79 27.5 92 16.5 c 0,24,25
 109.077441403 1.98417480736 109.077441403 1.98417480736 132.716760147 0.592100268488 c 0,26,27
 181.482522394 3.87863921033 181.482522394 3.87863921033 209 82.5 c 0,28,29
 295.889750162 330.228223867 295.889750162 330.228223867 295.999861954 727.503658227 c 1,30,-1
 294.053619303 779.079088472 l 1,31,-1
 269 775.5 l 2,32,33
 183 763.5 183 763.5 156 737.5 c 0,34,35
 134.871067415 717.651608784 134.871067415 717.651608784 134.649409534 694.113698617 c 0,36,37
 134.769280518 681.346041765 134.769280518 681.346041765 141 667.5 c 0,38,39
 145 656.5 145 656.5 169.25 638.5 c 0,40,41
 175 634.5 175 634.5 185 626.5 c 1,42,43
 174 616.5 174 616.5 172 612.871944165 c 1,44,-1
 162 612.871944165 l 1,45,46
 155 620.5 155 620.5 148 628.5 c 0,47,48
 118.192320065 662.033639927 118.192320065 662.033639927 118.192320065 691.670921883 c 0,49,50
 118.192320065 692.085707084 118.192320065 692.085707084 118.197983365 692.50049269 c 2,51,-1
 118.197983365 693.50049269 l 2,52,53
 118.197983365 719.697983365 118.197983365 719.697983365 141 742.5 c 0,54,55
 168 769.5 168 769.5 259 782.5 c 2,56,-1
 292.9527121 787.493045897 l 1,57,-1
 291.6 813.5 l 1,58,-1
 291.6 814.5 l 2,59,60
 291.6 818.1 291.6 818.1 292.3 818.8 c 128,-1,61
 293 819.5 293 819.5 297 819.5 c 2,62,-1
 307 819.5 l 1,63,64
 308 810.5 308 810.5 308 807.5 c 2,65,-1
 308.965983048 789.146322093 l 1,66,67
 439.225274114 797.54552863 439.225274114 797.54552863 498 798.748046875 c 2,68,-1
 768 806.5 l 1,69,-1
 778 806.5 l 1,70,-1
 780 797.5 l 1,71,-1
 508 790.981445312 l 2,72,73
 461.006337088 789.500199746 461.006337088 789.500199746 310.040717272 780.502426833 c 1,74,-1
 312 732.5 l 2,75,76
 312.056015879 722.249094076 312.056015879 722.249094076 312.056015879 712.101734851 c 2,77,-1
 312.056015879 711.101734851 l 2,0,1
EndSplineSet
EndChar

StartChar: uni0416
Encoding: 184 1046 185
Width: 1260
GlyphClass: 2
Flags: W
LayerCount: 2
Fore
SplineSet
1123.39705577 79.2293780318 m 2,0,-1
 1123.39705577 78.2293780318 l 2,1,2
 1123.39705577 72.6709516873 1123.39705577 72.6709516873 1120 68 c 0,3,4
 1115 60.5 1115 60.5 1096.8515625 49.4287109375 c 0,5,6
 1015.14702247 -0.410317628102 1015.14702247 -0.410317628102 968.90653357 -0.410317628102 c 2,7,-1
 958.61230798 -0.410317628102 l 2,8,9
 798.991239297 -0.410317628102 798.991239297 -0.410317628102 777.125 223.745117188 c 0,10,11
 776 235.5 776 235.5 776 302.5 c 2,12,-1
 776 303.5 l 2,13,14
 776 351.560193427 776 351.560193427 793.547066938 475.213258599 c 1,15,-1
 601 22.5 l 1,16,-1
 582 22.5 l 1,17,-1
 582 23.5 l 1,18,-1
 659.703750896 740.101258262 l 1,19,-1
 474 329.5 l 1,20,-1
 432.622070312 223.41796875 l 1,21,22
 363 -0.5 363 -0.5 232.901367188 -0.5361328125 c 2,23,-1
 222.901367188 -0.5361328125 l 2,24,25
 168 -0.5 168 -0.5 145.952148438 6.326171875 c 0,26,27
 63 32.5 63 32.5 46 93.5 c 1,28,-1
 56 100.5 l 1,29,-1
 66 100.5 l 1,30,31
 85 47.5 85 47.5 158.297851562 13.666015625 c 0,32,33
 171.502621444 7.72382212249 171.502621444 7.72382212249 228.867799185 7.02834686382 c 0,34,35
 351.41602128 10.451429783 351.41602128 10.451429783 413.563476562 227.763671875 c 0,36,37
 425 266.5 425 266.5 433.65625 316.421875 c 0,38,39
 454.006838954 437.58683837 454.006838954 437.58683837 454.043796938 574.967372285 c 0,40,41
 454.042127767 581.174667647 454.042127767 581.174667647 453.999023438 587.415039062 c 0,42,43
 453.019719338 809.037396247 453.019719338 809.037396247 278.510336196 812.832929185 c 0,44,45
 217.572969702 810.510370782 217.572969702 810.510370782 157.625976562 726.9296875 c 1,46,-1
 147.625976562 726.9296875 l 1,47,-1
 140.934570312 731.112304688 l 2,48,49
 138.882351604 732.782079976 138.882351604 732.782079976 138.882351604 734.161478495 c 2,50,-1
 138.882351604 735.161478495 l 2,51,52
 138.882351604 735.754551004 138.882351604 735.754551004 139.26171875 736.293945312 c 0,53,54
 198 819.5 198 819.5 271.412109375 819.607421875 c 2,55,-1
 281.412109375 819.607421875 l 2,56,57
 468 819.5 468 819.5 471.258789062 590.760742188 c 0,58,59
 471.392612895 579.827042314 471.392612895 579.827042314 471.392612895 568.98107005 c 2,60,-1
 471.392612895 567.98107005 l 2,61,62
 471.392612895 437.707743116 471.392612895 437.707743116 452.0859375 320.090820312 c 0,63,64
 451.520936917 316.413860255 451.520936917 316.413860255 450.938458394 312.748197371 c 1,65,-1
 463 342.5 l 1,66,-1
 663 784.5 l 1,67,-1
 678 784.5 l 2,68,69
 679 784.5 679 784.5 679 783.5 c 2,70,-1
 679 782.5 l 2,71,72
 679 765.86668419 679 765.86668419 601.456598517 61.8733480628 c 1,73,74
 647.687890651 167.293174307 647.687890651 167.293174307 783 486 c 0,75,76
 802 530.5 802 530.5 815.794921875 590.760742188 c 0,77,78
 868 819.5 868 819.5 1012.88476562 819.734375 c 2,79,-1
 1022.88476562 819.734375 l 2,80,81
 1160 819.5 1160 819.5 1203 725.5 c 1,82,-1
 1203 724.5 l 1,83,84
 1199 720.5 1199 720.5 1193 717.5 c 1,85,-1
 1183 717.5 l 1,86,87
 1143.66230005 809.943594889 1143.66230005 809.943594889 1018.76407267 812.163709431 c 1,88,89
 887.782339026 808.657322209 887.782339026 808.657322209 832.15234375 587.415039062 c 0,90,91
 820 539.5 820 539.5 812.5 494 c 128,-1,92
 805 448.5 805 448.5 793.716796875 355.569335938 c 0,93,94
 788.041727676 306.85816374 788.041727676 306.85816374 793.293945312 226.08984375 c 0,95,96
 806.830588627 14.1524015078 806.830588627 14.1524015078 965.0817312 6.77946284669 c 1,97,98
 1005.8401073 9.84907741404 1005.8401073 9.84907741404 1070 67.5 c 0,99,100
 1090 85.5 1090 85.5 1092.83300781 88.12109375 c 0,101,102
 1096 90.5 1096 90.5 1102.88964844 90.6298828125 c 2,103,-1
 1112.88964844 90.6298828125 l 2,104,105
 1117 90.5 1117 90.5 1120.94433594 86.2666015625 c 0,106,107
 1123.39705577 84.1587772477 1123.39705577 84.1587772477 1123.39705577 79.2293780318 c 2,0,-1
EndSplineSet
EndChar

StartChar: uni0417
Encoding: 185 1047 186
Width: 608
GlyphClass: 2
Flags: W
LayerCount: 2
Fore
SplineSet
204.583359375 769.233333333 m 2,0,1
 203.268463891 769.233333333 203.268463891 769.233333333 203.268463891 769.782697123 c 128,-1,2
 203.268463891 770.332060914 203.268463891 770.332060914 203.402384324 770.497706062 c 2,3,-1
 203.402384324 771.497706062 l 2,4,5
 203.402384324 774.586308872 203.402384324 774.586308872 212.530273438 784.5 c 0,6,7
 249.213631181 824.515435758 249.213631181 824.515435758 320.499452585 824.515435758 c 2,8,-1
 330.499452585 824.515435758 l 2,9,10
 414.272436438 824.515435758 414.272436438 824.515435758 459.081054688 756.5 c 0,11,12
 486.650360153 714.554704472 486.650360153 714.554704472 486.650360153 667.034101239 c 2,13,-1
 486.650360153 666.034101239 l 2,14,15
 486.650360153 660.307532797 486.650360153 660.307532797 486.25 654.5 c 0,16,17
 480.4296875 576.5 480.4296875 576.5 428.918945312 530.5 c 0,18,19
 402.30859375 506.5 402.30859375 506.5 349.997070312 491.5 c 0,20,21
 320.604477236 483.222620017 320.604477236 483.222620017 295.153320312 480 c 1,22,-1
 305.153320312 480 l 2,23,24
 325.903320312 480 325.903320312 480 348.860351562 479.5 c 0,25,26
 442.685546875 477.5 442.685546875 477.5 505.90234375 388.5 c 0,27,28
 553.642869062 321.732331235 553.642869062 321.732331235 553.642869062 252.926289544 c 2,29,-1
 553.642869062 251.926289544 l 2,30,31
 553.642869062 237.259454615 553.642869062 237.259454615 551.473632812 222.5 c 0,32,33
 533.456054688 96.5 533.456054688 96.5 439.645507812 41.5 c 0,34,35
 366.973632812 -0.5 366.973632812 -0.5 270.973632812 -0.5 c 2,36,-1
 260.973632812 -0.5 l 2,37,38
 182.973632812 -0.5 182.973632812 -0.5 137.653320312 18.7158203125 c 0,39,40
 105.641601562 32.2724609375 105.641601562 32.2724609375 67.9026136756 63.7204843464 c 128,-1,41
 30.1636257891 95.1685077553 30.1636257891 95.1685077553 18.1513671875 115.5 c 0,42,43
 17 118 17 118 16.7563036135 121.573968788 c 2,44,-1
 16.7563036135 122.573968788 l 2,45,46
 16.7563036135 129.131631954 16.7563036135 129.131631954 22.6572265625 133.5 c 0,47,48
 25.4324001736 135.277777778 25.4324001736 135.277777778 29.254641686 135.277777778 c 2,49,-1
 39.254641686 135.277777778 l 2,50,51
 39.6158095607 135.277777778 39.6158095607 135.277777778 39.986326256 135.261904762 c 2,52,-1
 40.7508016227 135.261904762 l 2,53,54
 45.947265625 135.261904762 45.947265625 135.261904762 49.306640625 130.5 c 0,55,56
 63.990234375 99.517578125 63.990234375 99.517578125 95.7016601565 69.779296875 c 128,-1,57
 127.413085938 40.041015625 127.413085938 40.041015625 151.297851562 27.6494140625 c 0,58,59
 191.787625114 6.63181427437 191.787625114 6.63181427437 270.465775234 5.51269974567 c 0,60,61
 354.24492165 6.6974289314 354.24492165 6.6974289314 427.08203125 47.5 c 0,62,63
 516.368164062 96.5 516.368164062 96.5 535.473632812 223.5 c 0,64,65
 537.54087263 237.287208817 537.54087263 237.287208817 537.57749929 251.11896931 c 0,66,67
 537.402239186 317.053423746 537.402239186 317.053423746 491.095703125 384 c 0,68,69
 431.985351562 468.5 431.985351562 468.5 338.422851562 473.5 c 0,70,71
 292.59765625 475.5 292.59765625 475.5 245.65234375 476.124023438 c 1,72,-1
 245.65234375 477.124023438 l 1,73,-1
 246.05859375 481.758789062 l 1,74,75
 293.208984375 483.5 293.208984375 483.5 340.390136719 497 c 128,-1,76
 387.571289062 510.5 387.571289062 510.5 415.7578125 535.5 c 0,77,78
 469.997211408 585.377840934 469.997211408 585.377840934 470.20887974 665.085747127 c 0,79,80
 470.079182847 713.801656052 470.079182847 713.801656052 444.64453125 750.5 c 0,81,82
 398.560109387 817.101989648 398.560109387 817.101989648 325.705090285 818.949041099 c 0,83,84
 260.902948487 817.544154784 260.902948487 817.544154784 227.26953125 780.5 c 0,85,86
 217.61686198 769.233333333 217.61686198 769.233333333 214.583359375 769.233333333 c 2,87,-1
 204.583359375 769.233333333 l 2,0,1
EndSplineSet
EndChar

StartChar: uni0419
Encoding: 187 1049 188
Width: 749
GlyphClass: 2
Flags: W
LayerCount: 2
Fore
SplineSet
396.695516738 901.354096742 m 2
 378.17283881 901.354096742 378.17283881 901.354096742 362 906.5 c 0
 322.906976744 919.848837209 322.906976744 919.848837209 322.906976744 933.197674419 c 2
 322.906976744 934.197674419 l 2
 322.906976744 934.848837209 322.906976744 934.848837209 323 935.5 c 0
 324.542857143 944.757142857 324.542857143 944.757142857 331.375510204 944.757142857 c 2
 341.375510204 944.757142857 l 2
 347.828571429 944.757142857 347.828571429 944.757142857 359 936.5 c 0
 390.564784698 913.051874225 390.564784698 913.051874225 427.009580487 911.563794934 c 0
 527.345903868 914.984269377 527.345903868 914.984269377 562 963.5 c 1
 572 963.5 l 1
 577 960.5 l 1
 543 906.5 543 906.5 413 901.5 c 0
 409.814445541 901.354096742 409.814445541 901.354096742 406.695516738 901.354096742 c 2
 396.695516738 901.354096742 l 2
EndSplineSet
Refer: 274 -1 N 1 0 0 1 0 0 2
EndChar

StartChar: uni041B
Encoding: 189 1051 190
Width: 863
GlyphClass: 2
Flags: W
LayerCount: 2
Fore
SplineSet
138 -1.5 m 2,0,-1
 128 -1.5 l 2,1,2
 71 -1.5 71 -1.5 50 20.5 c 0,3,4
 33 38.5 33 38.5 31 68.5 c 2,5,-1
 29 94.5 l 1,6,-1
 29 95.5 l 1,7,-1
 46 95.5 l 1,8,9
 47 84.5 47 84.5 48 69.5 c 0,10,11
 50 40.5 50 40.5 65 26.5 c 0,12,13
 85.7105907438 7.59033019043 85.7105907438 7.59033019043 126.691907805 6.51889938189 c 0,14,15
 203.301112701 8.71421730273 203.301112701 8.71421730273 270 56.1650390625 c 0,16,17
 476.537015741 203.540431756 476.537015741 203.540431756 575 706.5 c 0,18,19
 597 819.5 597 819.5 636 819.5 c 0,20,21
 636.92000455 819.520909194 636.92000455 819.520909194 637.818629265 819.520909194 c 2,22,-1
 647.818629265 819.520909194 l 2,23,24
 685.589097538 819.520909194 685.589097538 819.520909194 685.589097538 782.581893451 c 2,25,-1
 685.589097538 781.581893451 l 2,26,27
 685.589097538 777.740667981 685.589097538 777.740667981 672.32573406 639.944661014 c 128,-1,28
 659.062370581 502.148654047 659.062370581 502.148654047 658.843188755 491.628397847 c 2,29,-1
 658.843188755 491.324643155 l 2,30,31
 658.843188755 484.640118662 658.843188755 484.640118662 648.4609375 361.5 c 1,32,-1
 642.017578125 226.5 l 2,33,34
 641.963413972 220.593852706 641.963413972 220.593852706 641.961153925 214.84554186 c 0,35,36
 642.039858797 15.1456203295 642.039858797 15.1456203295 705.062870168 6.85456507645 c 1,37,38
 727.818188518 10.0227383941 727.818188518 10.0227383941 753 41.5 c 0,39,40
 767 58.5 767 58.5 769 60 c 0,41,42
 772 61.5 772 61.5 778 61.5 c 2,43,-1
 788 61.5 l 2,44,45
 792 61.5 792 61.5 797 56.5 c 0,46,47
 799 54 799 54 799 49.25 c 128,-1,48
 799 44.5 799 44.5 796 39.5 c 128,-1,49
 793 34.5 793 34.5 782 27.5 c 0,50,51
 737 -0.5 737 -0.5 709.599609375 -0.5 c 2,52,-1
 699.599609375 -0.5 l 2,53,54
 624.153047744 -0.00101222575983 624.153047744 -0.00101222575983 624.153047744 208.724913474 c 0,55,56
 624.153047744 209.14832617 624.153047744 209.14832617 624.15335821 209.572595729 c 2,57,-1
 624.15335821 210.572595729 l 2,58,59
 624.15335821 219.352808587 624.15335821 219.352808587 624.28515625 228.5 c 2,60,-1
 631.130859375 362.5 l 1,61,-1
 651.384765625 606.5 l 1,62,63
 668.45740538 779.492738358 668.45740538 779.492738358 668.481212549 782.60625847 c 0,64,65
 668.273892742 809.276792748 668.273892742 809.276792748 645.765991722 812.152466502 c 1,66,67
 610.870684459 806.345230418 610.870684459 806.345230418 592 703.5 c 0,68,69
 559 521.5 559 521.5 503.431640625 375.5 c 0,70,71
 415 143.5 415 143.5 285 48.568359375 c 0,72,73
 217 -1.5 217 -1.5 138 -1.5 c 2,0,-1
EndSplineSet
EndChar

StartChar: uni041F
Encoding: 193 1055 194
Width: 808
GlyphClass: 2
Flags: W
LayerCount: 2
Fore
SplineSet
582.629155394 758.392763731 m 2,0,1
 586.081474431 758.392763731 586.081474431 758.392763731 586.759765625 757.5 c 2,2,-1
 586.759765625 756.5 l 1,3,-1
 581.759765625 721.5 l 1,4,5
 579 715.5 579 715.5 574.40625 678.5 c 2,6,-1
 521.478515625 226.5 l 2,7,8
 515.896576919 183.419616862 515.896576919 183.419616862 515.866447139 137.369762665 c 0,9,10
 515.870959553 130.468184207 515.870959553 130.468184207 516 123.5 c 0,11,12
 516.948792952 13.4400175101 516.948792952 13.4400175101 561.107573249 7.80417186805 c 1,13,14
 585.553786554 10.7158784327 585.553786554 10.7158784327 610 41.5 c 0,15,16
 624 58.5 624 58.5 626 60 c 0,17,18
 629 61.5 629 61.5 635 61.5 c 2,19,-1
 645 61.5 l 2,20,21
 649 61.5 649 61.5 654 56.5 c 0,22,23
 656 54 656 54 656 49.25 c 128,-1,24
 656 44.5 656 44.5 653 39.5 c 128,-1,25
 650 34.5 650 34.5 639 27.5 c 0,26,27
 594 -0.5 594 -0.5 566.599609375 -0.5 c 2,28,-1
 556.599609375 -0.5 l 2,29,30
 501 -0.5 501 -0.5 499 120.5 c 0,31,32
 499 128 499 128 498.866021196 135.165867174 c 2,33,-1
 498.866021196 136.165867174 l 2,34,35
 498.866021196 183.33291901 498.866021196 183.33291901 504.463867188 227.5 c 2,36,-1
 552 678.5 l 2,37,38
 556.936104911 717.988839286 556.936104911 717.988839286 560.759765625 757.5 c 0,39,40
 561 758 561 758 569.764535272 758.392763731 c 2,41,-1
 582.629155394 758.392763731 l 2,0,1
108.192446238 691.67070578 m 0,42,43
 108.192446238 692.085752221 108.192446238 692.085752221 108.198116809 692.500799318 c 2,44,-1
 108.198116809 693.500799318 l 2,45,46
 108.198116809 719.698116809 108.198116809 719.698116809 131 742.5 c 0,47,48
 158 769.5 158 769.5 249 782.5 c 2,49,-1
 282.9527121 787.493045897 l 1,50,-1
 281.6 813.5 l 1,51,-1
 281.6 814.5 l 2,52,53
 281.6 818.1 281.6 818.1 282.3 818.8 c 128,-1,54
 283 819.5 283 819.5 287 819.5 c 2,55,-1
 297 819.5 l 1,56,57
 298 810.5 298 810.5 298 807.5 c 2,58,-1
 298.965983048 789.146322093 l 1,59,60
 429.225274114 797.54552863 429.225274114 797.54552863 488 798.748046875 c 2,61,-1
 758 806.5 l 1,62,-1
 768 806.5 l 1,63,-1
 770 798.5 l 1,64,-1
 498 790.981445312 l 2,65,66
 451.006337088 789.500199746 451.006337088 789.500199746 300.040717272 780.502426833 c 1,67,-1
 302 732.5 l 2,68,69
 302 731 302 731 302.056014441 712.102255893 c 2,70,-1
 302.056014441 711.102255893 l 2,71,72
 302.056014441 540.097833816 302.056014441 540.097833816 286.147460938 398.5 c 0,73,74
 267 230.5 267 230.5 215 76.5 c 0,75,76
 189 -1.5 189 -1.5 131 -6.5 c 0,77,78
 126.241935484 -6.90322580645 126.241935484 -6.90322580645 121.626951093 -6.90322580645 c 2,79,-1
 111.626951093 -6.90322580645 l 2,80,81
 59.0161290323 -6.90322580645 59.0161290323 -6.90322580645 25 45.5 c 1,82,-1
 31 51.5 l 1,83,-1
 41 51.5 l 1,84,85
 49 41.5 49 41.5 56 32 c 128,-1,86
 63 22.5 63 22.5 81 11.5 c 0,87,88
 98.5129982968 1.49257240183 98.5129982968 1.49257240183 121.589808206 0.526341004395 c 0,89,90
 171.16536107 2.97245799907 171.16536107 2.97245799907 199 82.5 c 0,91,92
 285.889751267 330.228227017 285.889751267 330.228227017 285.999861955 727.503658191 c 1,93,-1
 284.053619303 779.079088472 l 1,94,-1
 259 775.5 l 2,95,96
 173 763.5 173 763.5 146 737.5 c 0,97,98
 124.871067414 717.651608783 124.871067414 717.651608783 124.649409534 694.113698616 c 0,99,100
 124.769280518 681.346041765 124.769280518 681.346041765 131 667.5 c 0,101,102
 135 656.5 135 656.5 159.25 638.5 c 0,103,104
 165 634.5 165 634.5 175 626.5 c 1,105,106
 164 616.5 164 616.5 162 612.872070312 c 1,107,-1
 152 612.872070312 l 1,108,109
 145 620.5 145 620.5 138 628.5 c 0,110,111
 108.192446238 662.033497982 108.192446238 662.033497982 108.192446238 691.67070578 c 0,42,43
EndSplineSet
EndChar

StartChar: uni0422
Encoding: 196 1058 197
Width: 885
GlyphClass: 2
Flags: W
LayerCount: 2
Fore
SplineSet
696.629155394 758.392763731 m 2,0,1
 700.081474431 758.392763731 700.081474431 758.392763731 700.759765625 757.5 c 2,2,-1
 700.759765625 756.5 l 1,3,-1
 695.759765625 721.5 l 1,4,5
 693 715.5 693 715.5 688.40625 678.5 c 2,6,-1
 635.478515625 226.5 l 2,7,8
 629.896576919 183.419616862 629.896576919 183.419616862 629.866447139 137.369762665 c 0,9,10
 629.870959553 130.468184207 629.870959553 130.468184207 630 123.5 c 0,11,12
 630.948792952 13.4400175103 630.948792952 13.4400175103 675.107573249 7.80417186806 c 1,13,14
 699.553786554 10.7158784328 699.553786554 10.7158784328 724 41.5 c 0,15,16
 738 58.5 738 58.5 740 60 c 0,17,18
 743 61.5 743 61.5 749 61.5 c 2,19,-1
 759 61.5 l 2,20,21
 763 61.5 763 61.5 768 56.5 c 0,22,23
 770 54 770 54 770 49.25 c 128,-1,24
 770 44.5 770 44.5 767 39.5 c 128,-1,25
 764 34.5 764 34.5 753 27.5 c 0,26,27
 708 -0.5 708 -0.5 680.599609375 -0.5 c 2,28,-1
 670.599609375 -0.5 l 2,29,30
 615 -0.5 615 -0.5 613 120.5 c 0,31,32
 613 127 613 127 612.866021196 133.077354459 c 2,33,-1
 612.866021196 134.077354459 l 2,34,35
 612.866021196 175.538728248 612.866021196 175.538728248 618.463867188 227.5 c 2,36,-1
 666 678.5 l 2,37,38
 670.936104911 717.988839286 670.936104911 717.988839286 674.759765625 757.5 c 0,39,40
 675 758 675 758 683.764535272 758.392763731 c 2,41,-1
 696.629155394 758.392763731 l 2,0,1
102.192446238 691.67070578 m 0,42,43
 102.192446238 692.085752221 102.192446238 692.085752221 102.198116809 692.500799318 c 2,44,-1
 102.198116809 693.500799318 l 2,45,46
 102.198116809 719.698116809 102.198116809 719.698116809 125 742.5 c 0,47,48
 151.551757812 769.051757812 151.551757812 769.051757812 243 782.5 c 2,49,-1
 276.9527121 787.493045897 l 1,50,-1
 275.6 813.5 l 1,51,-1
 275.6 814.5 l 2,52,53
 275.6 818.1 275.6 818.1 276.3 818.8 c 128,-1,54
 277 819.5 277 819.5 281 819.5 c 2,55,-1
 291 819.5 l 1,56,57
 292 810.5 292 810.5 292 807.5 c 2,58,-1
 292.961569209 789.230185033 l 1,59,60
 409.153764051 797.551544872 409.153764051 797.551544872 552 798.748046875 c 1,61,-1
 822 806.5 l 1,62,-1
 832 806.5 l 1,63,-1
 834 798.5 l 1,64,-1
 562 790.981445312 l 1,65,66
 329.135321838 782.504925857 329.135321838 782.504925857 294.040721416 780.502325308 c 1,67,-1
 296 732.5 l 2,68,69
 296 731 296 731 296.056014441 712.102255893 c 2,70,-1
 296.056014441 711.102255893 l 2,71,72
 296.056014441 540.097833816 296.056014441 540.097833816 280.147460938 398.5 c 0,73,74
 261 230.5 261 230.5 209 76.5 c 0,75,76
 183 -1.5 183 -1.5 125 -6.5 c 0,77,78
 120.241935484 -6.90322580645 120.241935484 -6.90322580645 115.626951093 -6.90322580645 c 2,79,-1
 105.626951093 -6.90322580645 l 2,80,81
 53.0161290323 -6.90322580645 53.0161290323 -6.90322580645 19 45.5 c 1,82,-1
 25 51.5 l 1,83,-1
 35 51.5 l 1,84,85
 43 41.5 43 41.5 50 32 c 128,-1,86
 57 22.5 57 22.5 75 11.5 c 0,87,88
 92.5129982968 1.49257240184 92.5129982968 1.49257240184 115.589808206 0.526341004396 c 0,89,90
 165.16536107 2.97245799907 165.16536107 2.97245799907 193 82.5 c 0,91,92
 240 216.5 240 216.5 262.383789062 400.5 c 0,93,94
 280.866235008 559.040903397 280.866235008 559.040903397 280.905183143 677.510782163 c 0,95,96
 280.89654724 703.741498135 280.89654724 703.741498135 278.053619303 779.079088472 c 1,97,-1
 253 775.5 l 2,98,99
 167 763.5 167 763.5 140 737.5 c 0,100,101
 120.198953918 718.358988788 120.198953918 718.358988788 120.001982334 693.554579175 c 0,102,103
 120.099634526 681.22101439 120.099634526 681.22101439 125 667.5 c 0,104,105
 129 656.5 129 656.5 153.25 638.5 c 0,106,107
 159 634.5 159 634.5 169 626.5 c 1,108,109
 158 616.5 158 616.5 156 612.872070312 c 1,110,-1
 146 612.872070312 l 1,111,112
 139 620.5 139 620.5 132 628.5 c 0,113,114
 102.192446238 662.033497982 102.192446238 662.033497982 102.192446238 691.67070578 c 0,42,43
506.629155394 758.392763731 m 2,115,116
 510.081474431 758.392763731 510.081474431 758.392763731 510.759765625 757.5 c 2,117,-1
 510.759765625 756.5 l 1,118,-1
 505.759765625 721.5 l 1,119,120
 503 715.5 503 715.5 498.40625 678.5 c 0,121,122
 454.245117188 260.02734375 454.245117188 260.02734375 451.478515625 226.5 c 0,123,124
 442 100.5 442 100.5 433 -0.5 c 1,125,-1
 423 -0.5 l 1,126,-1
 416 0.5 l 1,127,128
 417 20.5 417 20.5 434.463867188 227.5 c 0,129,130
 469 624.5 469 624.5 476 678.5 c 0,131,132
 480.936104911 717.988839286 480.936104911 717.988839286 484.759765625 757.5 c 0,133,134
 485 758 485 758 493.764535272 758.392763731 c 2,135,-1
 506.629155394 758.392763731 l 2,115,116
EndSplineSet
EndChar

StartChar: uni0424
Encoding: 198 1060 199
Width: 733
GlyphClass: 2
Flags: W
LayerCount: 2
Back
SplineSet
350.717773438 758 m 132,-1,1
 350.717773438 770 350.717773438 770 362.717773438 770 c 132,-1,2
 374.717773438 770 374.717773438 770 374.717773438 758 c 132,-1,3
 374.717773438 746 374.717773438 746 362.717773438 746 c 132,-1,0
 350.717773438 746 350.717773438 746 350.717773438 758 c 132,-1,1
EndSplineSet
Fore
SplineSet
302 399.5 m 2,0,-1
 302 398.5 l 1,1,2
 269.096774194 369.467741935 269.096774194 369.467741935 209.970863684 369.467741935 c 2,3,-1
 199.970863684 369.467741935 l 2,4,5
 127.06275873 369.467741935 127.06275873 369.467741935 87.9067417597 407.5 c 0,6,7
 17 476 17 476 16.5204429061 558.379499826 c 2,8,-1
 16.5204429061 559.379499826 l 2,9,10
 16.5204429061 566.883710433 16.5204429061 566.883710433 17.116021839 574.5 c 0,11,12
 34 795.5 34 795.5 199 816.29296875 c 0,13,14
 205.118805945 817.03145745 205.118805945 817.03145745 211.012219164 817.03145745 c 2,15,-1
 221.012219164 817.03145745 l 2,16,17
 322.030948905 817.03145745 322.030948905 817.03145745 357.682900482 598.5 c 2,18,-1
 379.915573292 463.096679688 l 2,19,20
 381.514359626 453.359614785 381.514359626 453.359614785 391.616583283 435.478027344 c 0,21,22
 414.387712808 396.823343184 414.387712808 396.823343184 467.071528846 395.943669574 c 0,23,24
 581.834251768 397.642101883 581.834251768 397.642101883 628.779785156 478.060546875 c 0,25,26
 666.237094744 540.933541334 666.237094744 540.933541334 666.345820016 622.473011957 c 0,27,28
 666.263739508 683.853553133 666.263739508 683.853553133 646 723.5 c 0,29,30
 594.073915526 808.737157533 594.073915526 808.737157533 476.875619876 811.2889917 c 0,31,32
 437.137221126 810.058667824 437.137221126 810.058667824 408 787.513559163 c 0,33,34
 389 772.5 389 772.5 381.295613622 758.5 c 0,35,36
 377 750.5 377 750.5 374.2 747.7 c 128,-1,37
 371.4 744.9 371.4 744.9 366.72 744.9 c 2,38,-1
 356.72 744.9 l 2,39,40
 353.6 744.9 353.6 744.9 350 746.5 c 0,41,42
 344.176470588 748.926470588 344.176470588 748.926470588 344.176470588 755.73615917 c 0,43,44
 344.176470588 755.942513369 344.176470588 755.942513369 344.181818182 756.152892562 c 2,45,-1
 344.181818182 757.152892562 l 2,46,47
 344.181818182 759.954545455 344.181818182 759.954545455 345 763.5 c 0,48,49
 349 779.5 349 779.5 383.9123571 798.412109375 c 0,50,51
 420.249558752 819.215380044 420.249558752 819.215380044 476.412487862 819.215380044 c 2,52,-1
 486.412487862 819.215380044 l 2,53,54
 607.759721479 819.215380044 607.759721479 819.215380044 662 727.5 c 0,55,56
 683.043478261 692.108695652 683.043478261 692.108695652 683.043478261 612.800567108 c 2,57,-1
 683.043478261 611.800567108 l 2,58,59
 683.043478261 608.195652174 683.043478261 608.195652174 683 604.5 c 0,60,61
 682 535.5 682 535.5 645.441330732 472.5 c 0,62,63
 595.933270481 386.128184688 595.933270481 386.128184688 471.709986795 386.128184688 c 2,64,-1
 461.709986795 386.128184688 l 2,65,66
 459.368268636 386.128184688 459.368268636 386.128184688 457 386.158877401 c 0,67,68
 410.977480484 386.429555357 410.977480484 386.429555357 385.732721365 414.818762231 c 1,69,70
 396.613500304 305.870004343 396.613500304 305.870004343 396.613500304 241.391628357 c 0,71,72
 396.613500304 239.101270946 396.613500304 239.101270946 396.599771323 236.867024688 c 2,73,-1
 396.599771323 235.867024688 l 2,74,75
 396.599771323 158.059218191 396.599771323 158.059218191 383.110351562 100.5 c 0,76,77
 360.111096883 -0.512065683008 360.111096883 -0.512065683008 293.956279868 -0.512065683008 c 0,78,79
 293.63672195 -0.512065683008 293.63672195 -0.512065683008 293.31615707 -0.509708737864 c 2,80,-1
 283.31615707 -0.509708737864 l 2,81,82
 214.914453197 -0.509708737864 214.914453197 -0.509708737864 166 53.5 c 0,83,84
 128 95.5 128 95.5 98 142.5 c 1,85,-1
 98 143.5 l 1,86,87
 101 147.5 101 147.5 113 156.5 c 1,88,-1
 123 156.5 l 1,89,90
 151 93.5 151 93.5 182 58.5 c 0,91,92
 224.932773051 9.84285720936 224.932773051 9.84285720936 287.890684991 7.60762999803 c 1,93,94
 343.764404896 10.7311570821 343.764404896 10.7311570821 365.947574415 104.5 c 0,95,96
 377.793685859 152.731495508 377.793685859 152.731495508 377.796794173 239.536147557 c 128,-1,97
 377.799902488 326.340799605 377.799902488 326.340799605 364 439.5 c 1,98,-1
 341 593.5 l 2,99,100
 328 680.5 328 680.5 300.1171875 737.5 c 0,101,102
 267.641546952 804.871061512 267.641546952 804.871061512 216.117230305 807.937141721 c 0,103,104
 213.580161814 807.791308607 213.580161814 807.791308607 211 807.5 c 0,105,106
 51 788.5 51 788.5 34 573.5 c 0,107,108
 33.4292509942 566.080262924 33.4292509942 566.080262924 33.4102901029 558.800134889 c 0,109,110
 33.6225744054 477.400260414 33.6225744054 477.400260414 103 413.5 c 0,111,112
 140.370326784 379.079962173 140.370326784 379.079962173 202.402567384 377.058904867 c 0,113,114
 257.25326049 378.355630652 257.25326049 378.355630652 289 404.5 c 1,115,-1
 299 404.5 l 1,116,117
 302 400.5 302 400.5 302 399.5 c 2,0,-1
EndSplineSet
EndChar

StartChar: uni0426
Encoding: 200 1062 201
Width: 749
GlyphClass: 2
Flags: W
LayerCount: 2
Fore
SplineSet
668.518331857 -187.519541277 m 0,0,1
 734.865879842 -184.506096371 734.865879842 -184.506096371 735.451013395 -143.666477223 c 0,2,3
 734.836498409 -123.480395036 734.836498409 -123.480395036 681.283799878 -41.0631227936 c 1,4,5
 635.540546572 -94.1080870021 635.540546572 -94.1080870021 628 -120.5 c 0,6,7
 623.695817028 -135.779849551 623.695817028 -135.779849551 623.606293914 -147.632390733 c 0,8,9
 623.896153686 -185.601195554 623.896153686 -185.601195554 668.518331857 -187.519541277 c 0,0,1
751.940488285 -145.577677306 m 2,10,11
 751.940488285 -194.611111111 751.940488285 -194.611111111 674.14266118 -194.611111111 c 2,12,-1
 664.14266118 -194.611111111 l 2,13,14
 663.652652551 -194.614445903 663.652652551 -194.614445903 663.166839471 -194.614445903 c 0,15,16
 606.999257917 -194.614445903 606.999257917 -194.614445903 606.913461538 -150.038369083 c 2,17,-1
 606.913461538 -149.038369083 l 2,18,19
 606.913461538 -135.75 606.913461538 -135.75 612 -118.5 c 0,20,21
 620.969442969 -87.6052519953 620.969442969 -87.6052519953 673.640613293 -29.893534932 c 1,22,-1
 658 -3.5 l 1,23,24
 642.684674958 19.7566046934 642.684674958 19.7566046934 629.943387576 23.7079270096 c 0,25,26
 625.81078434 22.3107843256 625.81078434 22.3107843256 622 18.5 c 0,27,28
 602.952380952 -0.547619047619 602.952380952 -0.547619047619 580.276643991 -0.547619047619 c 2,29,-1
 570.276643991 -0.547619047619 l 2,30,31
 569.142857143 -0.547619047619 569.142857143 -0.547619047619 568 -0.5 c 0,32,33
 490 2 490 2 489.847919022 107.689935237 c 2,34,-1
 489.847919022 108.689935237 l 2,35,36
 489.847919022 124.923701622 489.847919022 124.923701622 491.332467611 150.140020382 c 1,37,38
 437.752318327 -0.512490684007 437.752318327 -0.512490684007 268.016121368 -0.512490684007 c 2,39,-1
 258.016121368 -0.512490684007 l 2,40,41
 140.612788796 -0.512490684007 140.612788796 -0.512490684007 110 77.5596668249 c 0,42,43
 98 108 98 108 97.9772727273 147.440244354 c 2,44,-1
 97.9772727273 148.440244354 l 2,45,46
 97.9772727273 184.590909091 97.9772727273 184.590909091 108 228.5 c 0,47,48
 127 310.5 127 310.5 143.5 389 c 128,-1,49
 160 467.5 160 467.5 167.12454824 594.5 c 0,50,51
 171.78983486 686.361746888 171.78983486 686.361746888 171.990940453 802.945897705 c 1,52,-1
 160 791.5 l 1,53,54
 127.295579583 771.337844811 127.295579583 771.337844811 119.179854416 771.337844811 c 0,55,56
 118.460135038 771.337844811 118.460135038 771.337844811 117.933793726 771.496410304 c 2,57,-1
 107.933793726 771.496410304 l 2,58,59
 93.0053845437 771.496410304 93.0053845437 771.496410304 78 781.5 c 0,60,61
 72.4243693655 785.378699572 72.4243693655 785.378699572 67.4364070822 786.730425053 c 0,62,63
 58.477024626 783.952281952 58.477024626 783.952281952 52 770.5 c 1,64,-1
 42 770.5 l 1,65,-1
 37 773.5 l 1,66,67
 38 778.5 38 778.5 43.9236111111 787.631944444 c 128,-1,68
 49.8472222222 796.763888889 49.8472222222 796.763888889 59.0358796296 796.763888889 c 0,69,70
 59.2984126984 796.763888889 59.2984126984 796.763888889 59.5640816327 796.757142857 c 2,71,-1
 69.5640816327 796.757142857 l 2,72,73
 79.6 796.757142857 79.6 796.757142857 92.3962615358 788.507461023 c 128,-1,74
 105.192523072 780.257779189 105.192523072 780.257779189 115.843209728 778.86739114 c 0,75,76
 132.08306436 781.039933274 132.08306436 781.039933274 147 797.5 c 0,77,78
 165 817.5 165 817.5 165.75 818.75 c 0,79,80
 167 819.5 167 819.5 174 819.5 c 2,81,-1
 189 819.5 l 1,82,-1
 189 806.5 l 2,83,84
 189 681.5 189 681.5 185.001953125 593.5 c 0,85,86
 180 470.5 180 470.5 161 384.5 c 2,87,-1
 126 226.5 l 2,88,89
 116.312930813 182.423835201 116.312930813 182.423835201 116.244387915 147.171704171 c 0,90,91
 116.510877916 9.76934778065 116.510877916 9.76934778065 263.156860467 7.53657065153 c 0,92,93
 366.429520098 9.00932539005 366.429520098 9.00932539005 424 69.793730741 c 0,94,95
 479 127.5 479 127.5 496 232.5 c 2,96,-1
 506.138671875 294.5 l 1,97,-1
 561 673.5 l 1,98,-1
 575.6015625 819 l 1,99,100
 580.509232955 819.909090909 580.509232955 819.909090909 583.689275568 819.909090909 c 128,-1,101
 586.869318182 819.909090909 586.869318182 819.909090909 587.45625 819.9 c 2,102,-1
 597.45625 819.9 l 2,103,104
 601.6 819.9 601.6 819.9 606 819.5 c 1,105,-1
 606 818.5 l 1,106,107
 594 752.5 594 752.5 574 632 c 128,-1,108
 554 511.5 554 511.5 523.740234375 291.5 c 0,109,110
 506.078770508 162.077228343 506.078770508 162.077228343 505.948656968 115.910156175 c 0,111,112
 506.183490676 11.4460932047 506.183490676 11.4460932047 571.935457563 6.71515384908 c 0,113,114
 593.07437 8.5743731129 593.07437 8.5743731129 611 26.5 c 0,115,116
 616.9375 32.140625 616.9375 32.140625 623.932617188 32.140625 c 2,117,-1
 633.932617188 32.140625 l 2,118,119
 650.5 32.140625 650.5 32.140625 673 0.5 c 1,120,-1
 684.599353872 -19.6055467118 l 1,121,122
 704.361499095 -1.48880880408 704.361499095 -1.48880880408 725.680749548 24.005595598 c 128,-1,123
 747 49.5 747 49.5 752 51 c 128,-1,124
 757 52.5 757 52.5 761 52.5 c 2,125,-1
 771 52.5 l 2,126,127
 775 52.5 775 52.5 780 47.5 c 0,128,129
 782 46 782 46 782 41.5 c 2,130,-1
 782 40.5 l 2,131,132
 782 35.5 782 35.5 779 30.5 c 128,-1,133
 776 25.5 776 25.5 765 18.5 c 1,134,-1
 744 7.330078125 l 1,135,136
 705.471383186 -16.2119718424 705.471383186 -16.2119718424 691.342081191 -29.1841623822 c 1,137,-1
 691.5 -29.5 l 1,138,139
 751.940488285 -121.409502847 751.940488285 -121.409502847 751.940488285 -144.454684659 c 2,140,-1
 751.940488285 -145.577677306 l 2,10,11
EndSplineSet
EndChar

StartChar: uni0427
Encoding: 201 1063 202
Width: 731
GlyphClass: 2
Flags: W
LayerCount: 2
Fore
SplineSet
269.501725959 337.173076923 m 2,0,-1
 259.501725959 337.173076923 l 2,1,2
 188.403263972 337.173076923 188.403263972 337.173076923 163.815429688 369.5 c 0,3,4
 136.314699743 405.587044287 136.314699743 405.587044287 136.314699743 465.559579549 c 0,5,6
 136.314699743 466.245864657 136.314699743 466.245864657 136.318300954 466.935277561 c 2,7,-1
 136.318300954 467.935277561 l 2,8,9
 136.318300954 507.879304131 136.318300954 507.879304131 148 558.5 c 0,10,11
 180.342515873 698.333818626 180.342515873 698.333818626 181.919198423 802.877416676 c 1,12,-1
 170 791.5 l 1,13,14
 137.295579583 771.337844811 137.295579583 771.337844811 129.179854416 771.337844811 c 0,15,16
 128.460135038 771.337844811 128.460135038 771.337844811 127.933793726 771.496410304 c 2,17,-1
 117.933793726 771.496410304 l 2,18,19
 103.005384544 771.496410304 103.005384544 771.496410304 88 781.5 c 0,20,21
 82.4243693655 785.378699572 82.4243693655 785.378699572 77.4364070822 786.730425053 c 0,22,23
 68.477024626 783.952281952 68.477024626 783.952281952 62 770.5 c 1,24,-1
 52 770.5 l 1,25,-1
 47 773.5 l 1,26,27
 48 778.5 48 778.5 53.9236111111 787.631944444 c 128,-1,28
 59.8472222222 796.763888889 59.8472222222 796.763888889 69.0358796296 796.763888889 c 0,29,30
 69.2984126984 796.763888889 69.2984126984 796.763888889 69.5640816327 796.757142857 c 2,31,-1
 79.5640816327 796.757142857 l 2,32,33
 89.6 796.757142857 89.6 796.757142857 102.396261536 788.507461023 c 128,-1,34
 115.192523072 780.257779189 115.192523072 780.257779189 125.843209728 778.86739114 c 0,35,36
 142.08306436 781.039933274 142.08306436 781.039933274 157 797.5 c 0,37,38
 175 817.5 175 817.5 175.75 818.75 c 0,39,40
 177 819.5 177 819.5 184 819.5 c 2,41,-1
 199 819.5 l 1,42,-1
 199 806.5 l 2,43,44
 199 705.5 199 705.5 166 556.5 c 0,45,46
 154.911541509 507.393969538 154.911541509 507.393969538 154.839549518 468.952308975 c 0,47,48
 154.947754282 411.034111727 154.947754282 411.034111727 180.245117188 377.5 c 0,49,50
 202.37948393 347.195208518 202.37948393 347.195208518 270.46156443 346.14630198 c 0,51,52
 283.46794363 346.337435443 283.46794363 346.337435443 298 347.5 c 0,53,54
 361 352.5 361 352.5 453 439.793945312 c 0,55,56
 509.300376516 493.103186968 509.300376516 493.103186968 526.020327693 568.094210692 c 1,57,-1
 541 673.5 l 1,58,-1
 555.6015625 819 l 1,59,60
 560.509232955 819.909090909 560.509232955 819.909090909 563.689275568 819.909090909 c 128,-1,61
 566.869318182 819.909090909 566.869318182 819.909090909 567.45625 819.9 c 2,62,-1
 577.45625 819.9 l 2,63,64
 581.6 819.9 581.6 819.9 586 819.5 c 1,65,-1
 586 818.5 l 1,66,67
 574 752.5 574 752.5 554 632 c 128,-1,68
 534 511.5 534 511.5 503.740234375 291.5 c 0,69,70
 486.078770511 162.077228363 486.078770511 162.077228363 485.949047002 115.910156187 c 0,71,72
 486.182432636 11.9235477824 486.182432636 11.9235477824 551.335786201 6.76048460647 c 1,73,74
 574.415537145 9.51942288361 574.415537145 9.51942288361 600 41.5 c 0,75,76
 614 58.5 614 58.5 616 60 c 0,77,78
 619 61.5 619 61.5 625 61.5 c 2,79,-1
 635 61.5 l 2,80,81
 639 61.5 639 61.5 644 56.5 c 0,82,83
 646 54 646 54 646 49.25 c 128,-1,84
 646 44.5 646 44.5 643 39.5 c 128,-1,85
 640 34.5 640 34.5 629 27.5 c 0,86,87
 584 -0.5 584 -0.5 556.599609375 -0.5 c 2,88,-1
 546.599609375 -0.5 l 2,89,90
 472 -0.5 472 -0.5 469.952148438 116.5 c 0,91,92
 470 162.5 470 162.5 487.138671875 294.5 c 1,93,-1
 515.305620772 492.699227605 l 1,94,95
 496.512868148 459.258005051 496.512868148 459.258005051 467 431.612304688 c 0,96,97
 377 346.5 377 346.5 311 339.5 c 0,98,99
 288.576923077 337.173076923 288.576923077 337.173076923 269.501725959 337.173076923 c 2,0,-1
485.948242188 115.5 m 1,100,-1
 485.948242188 115.910156187 l 1,101,-1
 485.948242188 115.5 l 1,100,-1
EndSplineSet
EndChar

StartChar: uni0428
Encoding: 202 1064 203
Width: 1059
GlyphClass: 2
Flags: W
LayerCount: 2
Fore
SplineSet
598.093246228 -0.512490699064 m 2,0,1
 483.825130213 -0.512490699064 483.825130213 -0.512490699064 470 77.5595703125 c 0,2,3
 463.232044199 115.692582441 463.232044199 115.692582441 463.232044199 151.695460232 c 0,4,5
 463.232044199 152.929844613 463.232044199 152.929844613 463.24 154.161725 c 2,6,-1
 463.24 155.161725 l 1,7,8
 443.879755987 97.9855878535 443.879755987 97.9855878535 408 61.6123046875 c 0,9,10
 347.005935212 -0.512493170014 347.005935212 -0.512493170014 268.512625399 -0.512490699064 c 2,11,-1
 258.512625399 -0.512490699064 l 2,12,13
 160.612788329 -0.512490699064 160.612788329 -0.512490699064 130 77.5595703125 c 0,14,15
 118 108 118 108 117.977272727 147.44022237 c 2,16,-1
 117.977272727 148.44022237 l 2,17,18
 117.977272727 184.590909091 117.977272727 184.590909091 128 228.5 c 0,19,20
 147 310.5 147 310.5 163.5 389 c 128,-1,21
 180 467.5 180 467.5 187.125 594.5 c 0,22,23
 191.78985435 686.361747204 191.78985435 686.361747204 191.990941294 802.945898507 c 1,24,-1
 180 791.5 l 2,25,26
 158.896551724 771.568965517 158.896551724 771.568965517 137.793103448 771.568965517 c 2,27,-1
 127.793103448 771.568965517 l 2,28,29
 112.896551724 771.568965517 112.896551724 771.568965517 98 781.5 c 0,30,31
 92.4243693655 785.378699572 92.4243693655 785.378699572 87.4364070822 786.730425053 c 0,32,33
 78.477024626 783.952281952 78.477024626 783.952281952 72 770.5 c 1,34,-1
 62 770.5 l 1,35,-1
 57 773.5 l 1,36,37
 58 778.5 58 778.5 63.9236111111 787.631944444 c 128,-1,38
 69.8472222222 796.763888889 69.8472222222 796.763888889 79.0358796296 796.763888889 c 0,39,40
 79.2984126984 796.763888889 79.2984126984 796.763888889 79.5640816327 796.757142857 c 2,41,-1
 89.5640816327 796.757142857 l 2,42,43
 99.6 796.757142857 99.6 796.757142857 112.396261536 788.507461023 c 128,-1,44
 125.192523072 780.257779189 125.192523072 780.257779189 135.843209728 778.86739114 c 0,45,46
 152.08306436 781.039933274 152.08306436 781.039933274 167 797.5 c 0,47,48
 185 817.5 185 817.5 185.75 818.75 c 0,49,50
 187 819.5 187 819.5 194 819.5 c 2,51,-1
 209 819.5 l 1,52,-1
 209 806.5 l 2,53,54
 209 681.5 209 681.5 205.001953125 593.5 c 0,55,56
 200 470.5 200 470.5 181 384.5 c 2,57,-1
 146 226.5 l 2,58,59
 126.141001528 136.141556953 126.141001528 136.141556953 147 83.11328125 c 0,60,61
 176.141123087 9.66475005316 176.141123087 9.66475005316 262.839477649 7.56197456088 c 0,62,63
 336.860946286 9.46484269098 336.860946286 9.46484269098 394 69.7939453125 c 0,64,65
 449 127.5 449 127.5 466 232.5 c 2,66,-1
 476.138671875 294.5 l 1,67,-1
 531 673.5 l 1,68,-1
 545.6015625 819 l 1,69,70
 550.509232955 819.909090909 550.509232955 819.909090909 553.689275568 819.909090909 c 128,-1,71
 556.869318182 819.909090909 556.869318182 819.909090909 557.45625 819.9 c 2,72,-1
 567.45625 819.9 l 2,73,74
 571.6 819.9 571.6 819.9 576 819.5 c 1,75,-1
 576 818.5 l 1,76,77
 564 752.5 564 752.5 550.49609375 671.5 c 0,78,79
 540.305664062 621.74609375 540.305664062 621.74609375 493.740234375 291.5 c 0,80,81
 481.889158512 207.4508145 481.889158512 207.4508145 481.838371053 148.852188821 c 0,82,83
 481.871287478 110.487491957 481.871287478 110.487491957 487 83.11328125 c 0,84,85
 502.460050563 9.33740692282 502.460050563 9.33740692282 598.093281798 7.50121284512 c 0,86,87
 676.034684296 8.53664945833 676.034684296 8.53664945833 734 69.7939453125 c 0,88,89
 789 127.5 789 127.5 806 232.5 c 2,90,-1
 816.138671875 294.5 l 1,91,-1
 871 673.5 l 1,92,-1
 885.6015625 819 l 1,93,94
 890.509232955 819.909090909 890.509232955 819.909090909 893.689275568 819.909090909 c 128,-1,95
 896.869318182 819.909090909 896.869318182 819.909090909 897.45625 819.9 c 2,96,-1
 907.45625 819.9 l 2,97,98
 911.6 819.9 911.6 819.9 916 819.5 c 1,99,-1
 916 818.5 l 1,100,101
 904 752.5 904 752.5 884 632 c 128,-1,102
 864 511.5 864 511.5 833.740234375 291.5 c 0,103,104
 816.078770511 162.077228362 816.078770511 162.077228362 815.949047002 115.910156187 c 0,105,106
 816.182432636 11.9235477821 816.182432636 11.9235477821 881.335786201 6.76048460647 c 1,107,108
 904.415537145 9.51942288361 904.415537145 9.51942288361 930 41.5 c 0,109,110
 944 58.5 944 58.5 946 60 c 0,111,112
 949 61.5 949 61.5 955 61.5 c 2,113,-1
 965 61.5 l 2,114,115
 969 61.5 969 61.5 974 56.5 c 0,116,117
 976 54 976 54 976 49.25 c 128,-1,118
 976 44.5 976 44.5 973 39.5 c 128,-1,119
 970 34.5 970 34.5 959 27.5 c 0,120,121
 914 -0.5 914 -0.5 886.599609375 -0.5 c 2,122,-1
 876.599609375 -0.5 l 2,123,124
 800 -3.5527136788e-15 800 -3.5527136788e-15 799.84657612 107.351753777 c 2,125,-1
 799.84657612 108.351753777 l 2,126,127
 799.84657612 124.896001009 799.84657612 124.896001009 801.332585848 150.140348174 c 1,128,129
 782.210949876 96.3754163986 782.210949876 96.3754163986 748 61.6123046875 c 0,130,131
 687.005936111 -0.512492254088 687.005936111 -0.512492254088 608.093246228 -0.512490699064 c 2,132,-1
 598.093246228 -0.512490699064 l 2,0,1
EndSplineSet
EndChar

StartChar: uni0429
Encoding: 203 1065 204
Width: 1183
GlyphClass: 2
Flags: W
LayerCount: 2
Fore
SplineSet
977.599609375 -187.5 m 0,0,1
 1042.93031914 -184.54832867 1042.93031914 -184.54832867 1044.05273438 -143.5 c 2,2,-1
 1044.05913065 -143.345051866 l 1,3,4
 1043.39025897 -122.833317082 1043.39025897 -122.833317082 989.918356393 -41.0729375133 c 1,5,6
 944.516818936 -94.1105286589 944.516818936 -94.1105286589 936.599609375 -120.5 c 0,7,8
 932.430054936 -135.604299248 932.430054936 -135.604299248 932.342631214 -147.359590474 c 0,9,10
 932.62991443 -185.583174402 932.62991443 -185.583174402 977.149358344 -187.518416105 c 0,11,12
 977.374023401 -187.5 977.374023401 -187.5 977.599609375 -187.5 c 0,0,1
1060.54294275 -146.091620288 m 2,13,14
 1060.54294275 -194.611111111 1060.54294275 -194.611111111 982.770830654 -194.611111111 c 2,15,-1
 972.770830654 -194.611111111 l 2,16,17
 972.286789881 -194.614426865 972.286789881 -194.614426865 971.806850741 -194.614426865 c 0,18,19
 915.99702024 -194.614426865 915.99702024 -194.614426865 915.650518189 -149.777968325 c 2,20,-1
 915.650518189 -148.777968325 l 2,21,22
 915.650518189 -135.581229418 915.650518189 -135.581229418 920.599609375 -118.5 c 0,23,24
 929.967936775 -87.6057360283 929.967936775 -87.6057360283 982.241294283 -29.8953432831 c 1,25,-1
 966.599609375 -3.5 l 1,26,27
 951.480887486 19.8036353551 951.480887486 19.8036353551 938.655746614 23.7238290346 c 0,28,29
 934.433436011 22.3325787656 934.433436011 22.3325787656 930.5 18.5 c 0,30,31
 911 -0.5 911 -0.5 886.599609375 -0.5 c 2,32,-1
 876.599609375 -0.5 l 2,33,34
 800 0 800 0 799.84657612 107.351753777 c 2,35,-1
 799.84657612 108.351753777 l 2,36,37
 799.84657612 124.896001009 799.84657612 124.896001009 801.332585848 150.140348174 c 1,38,39
 782.210949876 96.3754163986 782.210949876 96.3754163986 748 61.6123046875 c 0,40,41
 687.005936111 -0.512492254088 687.005936111 -0.512492254088 608.093246228 -0.512490699064 c 2,42,-1
 598.093246228 -0.512490699064 l 2,43,44
 483.825130213 -0.512490699064 483.825130213 -0.512490699064 470 77.5595703125 c 0,45,46
 463.232044199 115.692582441 463.232044199 115.692582441 463.232044199 151.695460232 c 0,47,48
 463.232044199 152.929844613 463.232044199 152.929844613 463.24 154.161725 c 2,49,-1
 463.24 155.161725 l 1,50,51
 443.879755987 97.9855878535 443.879755987 97.9855878535 408 61.6123046875 c 0,52,53
 347.005935212 -0.512493170014 347.005935212 -0.512493170014 268.512625399 -0.512490699064 c 2,54,-1
 258.512625399 -0.512490699064 l 2,55,56
 160.612788329 -0.512490699064 160.612788329 -0.512490699064 130 77.5595703125 c 0,57,58
 118 108 118 108 117.977272727 147.44022237 c 2,59,-1
 117.977272727 148.44022237 l 2,60,61
 117.977272727 184.590909091 117.977272727 184.590909091 128 228.5 c 0,62,63
 147 310.5 147 310.5 163.5 389 c 128,-1,64
 180 467.5 180 467.5 187.125 594.5 c 0,65,66
 191.78985435 686.361747204 191.78985435 686.361747204 191.990941294 802.945898507 c 1,67,-1
 180 791.5 l 1,68,69
 147.295579583 771.337844811 147.295579583 771.337844811 139.179854416 771.337844811 c 0,70,71
 138.460135038 771.337844811 138.460135038 771.337844811 137.933793726 771.496410304 c 2,72,-1
 127.933793726 771.496410304 l 2,73,74
 113.005384544 771.496410304 113.005384544 771.496410304 98 781.5 c 0,75,76
 92.4243693655 785.378699572 92.4243693655 785.378699572 87.4364070822 786.730425053 c 0,77,78
 78.477024626 783.952281952 78.477024626 783.952281952 72 770.5 c 1,79,-1
 62 770.5 l 1,80,-1
 57 773.5 l 1,81,82
 58 778.5 58 778.5 63.9236111111 787.631944444 c 128,-1,83
 69.8472222222 796.763888889 69.8472222222 796.763888889 79.0358796296 796.763888889 c 0,84,85
 79.2984126984 796.763888889 79.2984126984 796.763888889 79.5640816327 796.757142857 c 2,86,-1
 89.5640816327 796.757142857 l 2,87,88
 99.6 796.757142857 99.6 796.757142857 112.396261536 788.507461023 c 128,-1,89
 125.192523072 780.257779189 125.192523072 780.257779189 135.843209728 778.86739114 c 0,90,91
 152.08306436 781.039933274 152.08306436 781.039933274 167 797.5 c 0,92,93
 185 817.5 185 817.5 185.75 818.75 c 0,94,95
 187 819.5 187 819.5 194 819.5 c 2,96,-1
 209 819.5 l 1,97,-1
 209 806.5 l 2,98,99
 209 681.5 209 681.5 205.001953125 593.5 c 0,100,101
 200 470.5 200 470.5 181 384.5 c 2,102,-1
 146 226.5 l 2,103,104
 126.141001528 136.141556953 126.141001528 136.141556953 147 83.11328125 c 0,105,106
 176.141123087 9.66475005316 176.141123087 9.66475005316 262.839477649 7.56197456088 c 0,107,108
 336.860946286 9.46484269098 336.860946286 9.46484269098 394 69.7939453125 c 0,109,110
 449 127.5 449 127.5 466 232.5 c 2,111,-1
 476.138671875 294.5 l 1,112,-1
 531 673.5 l 1,113,-1
 545.6015625 819 l 1,114,115
 550.509232955 819.909090909 550.509232955 819.909090909 553.689275568 819.909090909 c 128,-1,116
 556.869318182 819.909090909 556.869318182 819.909090909 557.45625 819.9 c 2,117,-1
 567.45625 819.9 l 2,118,119
 571.6 819.9 571.6 819.9 576 819.5 c 1,120,-1
 576 818.5 l 1,121,122
 565 752.5 565 752.5 550 669.5 c 128,-1,123
 535 586.5 535 586.5 493.740234375 291.5 c 0,124,125
 481.889158512 207.4508145 481.889158512 207.4508145 481.838371053 148.852188821 c 0,126,127
 481.871287478 110.487491957 481.871287478 110.487491957 487 83.11328125 c 0,128,129
 501.261607175 9.32060599742 501.261607175 9.32060599742 597.784560884 7.49601558884 c 0,130,131
 676.397903645 8.92050145248 676.397903645 8.92050145248 734 69.7939453125 c 0,132,133
 789 127.5 789 127.5 806 232.5 c 2,134,-1
 816.138671875 294.5 l 1,135,-1
 871 673.5 l 1,136,-1
 885.6015625 819 l 1,137,138
 890.509232955 819.909090909 890.509232955 819.909090909 893.689275568 819.909090909 c 128,-1,139
 896.869318182 819.909090909 896.869318182 819.909090909 897.45625 819.9 c 2,140,-1
 907.45625 819.9 l 2,141,142
 911.6 819.9 911.6 819.9 916 819.5 c 1,143,-1
 916 818.5 l 1,144,145
 904 752.5 904 752.5 884 632 c 128,-1,146
 864 511.5 864 511.5 833.740234375 291.5 c 0,147,148
 816.078396914 162.074490653 816.078396914 162.074490653 815.949041282 115.908203059 c 0,149,150
 816.180426003 11.4571978452 816.180426003 11.4571978452 880.621201096 6.71616732336 c 0,151,152
 902.037636034 8.57926265689 902.037636034 8.57926265689 919.599609375 26.5 c 0,153,154
 925.655975342 32.140625 925.655975342 32.140625 932.699381828 32.140625 c 2,155,-1
 942.699381828 32.140625 l 2,156,157
 959.381134033 32.140625 959.381134033 32.140625 981.599609375 0.5 c 1,158,-1
 993.232683182 -19.6639945996 l 1,159,160
 1013.27225689 -1.52751505294 1013.27225689 -1.52751505294 1033.06445312 22.5 c 0,161,162
 1056 49.5 1056 49.5 1060.59960938 51 c 0,163,164
 1066 52.5 1066 52.5 1069.59960938 52.5 c 2,165,-1
 1079.59960938 52.5 l 2,166,167
 1084 52.5 1084 52.5 1088.59960938 47.5 c 0,168,169
 1090.65684793 45.785913526 1090.65684793 45.785913526 1090.65684793 42.602780832 c 2,170,-1
 1090.65684793 41.602780832 l 2,171,172
 1090.65684793 41.2668041433 1090.65684793 41.2668041433 1090.63392906 40.9144613888 c 128,-1,173
 1090.64333876 40.6611465241 1090.64333876 40.6611465241 1090.64333878 40.4078316584 c 2,174,-1
 1090.64333878 39.4078316584 l 2,175,176
 1090.64333878 34.9539158292 1090.64333878 34.9539158292 1087.734375 30.5 c 0,177,178
 1085 25.5 1085 25.5 1073.59960938 18.5 c 2,179,-1
 1052.59960938 7.330078125 l 1,180,181
 1014.45786148 -16.2173319875 1014.45786148 -16.2173319875 999.944643851 -29.1900689514 c 1,182,-1
 1000.09960938 -29.5 l 1,183,184
 1060.54348696 -120.810362385 1060.54348696 -120.810362385 1060.54348696 -144.151304019 c 2,185,-1
 1060.54348696 -145.151304019 l 2,186,187
 1060.54348696 -145.221340212 1060.54348696 -145.221340212 1060.54294275 -145.290764448 c 2,188,-1
 1060.54294275 -146.091620288 l 2,13,14
EndSplineSet
EndChar

StartChar: uni042A
Encoding: 204 1066 205
Width: 755
GlyphClass: 2
Flags: W
LayerCount: 2
Fore
SplineSet
102.312073513 -0.504255319149 m 2,0,1
 38.0035777335 -0.504255319149 38.0035777335 -0.504255319149 37.5760414391 59.7538529988 c 2,2,-1
 37.5760414391 60.7538529988 l 2,3,4
 37.5760414391 99.9071874948 37.5760414391 99.9071874948 65.1337890625 164.5 c 0,5,6
 128.995117188 314.5 128.995117188 314.5 247.236328125 414.5 c 1,7,-1
 255.84765625 502.5 l 1,8,-1
 259.677734375 556.5 l 2,9,10
 261.831054688 578.5 261.831054688 578.5 265.390539079 646.423630573 c 128,-1,11
 268.95002347 714.347261146 268.95002347 714.347261146 274.766971502 807.442765496 c 1,12,-1
 242.045898438 791.5 l 2,13,14
 209.404503388 775.596164895 209.404503388 775.596164895 181.244804425 775.596164895 c 2,15,-1
 171.244804425 775.596164895 l 2,16,17
 144.024113782 775.596164895 144.024113782 775.596164895 120.197497744 791.156224151 c 128,-1,18
 96.3708817058 806.716283408 96.3708817058 806.716283408 74.2567851786 808.387188103 c 0,19,20
 42.383626262 805.914720364 42.383626262 805.914720364 15.998046875 771.5 c 1,21,-1
 5.998046875 771.5 l 1,22,-1
 2.1025390625 773.5 l 1,23,24
 7.4169921875 780.5 7.4169921875 780.5 12.2314453125 786.5 c 0,25,26
 35.6353907214 815.839807014 35.6353907214 815.839807014 68.0745889257 815.839807014 c 2,27,-1
 78.0745889257 815.839807014 l 2,28,29
 104.234191457 815.839807014 104.234191457 815.839807014 136.26953125 796.759765625 c 0,30,31
 154.778611445 785.541378983 154.778611445 785.541378983 177.170918526 784.433639332 c 0,32,33
 201.169837724 785.577432286 201.169837724 785.577432286 229.30859375 797.5 c 0,34,35
 241.5703125 802.5 241.5703125 802.5 272.4609375 819.5 c 1,36,-1
 291.4609375 819.5 l 1,37,-1
 279.459960938 589.5 l 2,38,39
 276.891601562 540.5 276.891601562 540.5 272.377718888 496.855861842 c 128,-1,40
 267.863836215 453.211723684 267.863836215 453.211723684 266.097113609 432.01956519 c 1,41,42
 318.335082952 476.3408763 318.335082952 476.3408763 365.904296875 484.5 c 0,43,44
 403.224400112 490.946428571 403.224400112 490.946428571 437.328708571 490.946428571 c 2,45,-1
 447.328708571 490.946428571 l 2,46,47
 513.742361886 490.946428571 513.742361886 490.946428571 567.9609375 466.5 c 0,48,49
 681.76701279 415.332662672 681.76701279 415.332662672 681.76701279 248.647009432 c 2,50,-1
 681.76701279 247.647009432 l 2,51,52
 681.76701279 138.901668799 681.76701279 138.901668799 617.416992188 73.5 c 0,53,54
 546.244029371 0.386075949367 546.244029371 0.386075949367 428.92567469 0.386075949367 c 2,55,-1
 418.92567469 0.386075949367 l 2,56,57
 414.294687006 0.386075949367 414.294687006 0.386075949367 409.591796875 0.5 c 0,58,59
 332.696289062 2.5 332.696289062 2.5 298.61328125 20 c 128,-1,60
 264.530273438 37.5 264.530273438 37.5 258.333007812 51.888671875 c 0,61,62
 256.914570157 55.7344744645 256.914570157 55.7344744645 256.914570157 59.0020823397 c 2,63,-1
 256.914570157 60.0020823397 l 2,64,65
 256.914570157 64.9007936507 256.914570157 64.9007936507 260.102539062 68.5 c 0,66,67
 267.456112778 73.1067186216 267.456112778 73.1067186216 268.415047713 73.1067186216 c 128,-1,68
 269.373982648 73.1067186216 269.373982648 73.1067186216 269.485511001 73.0714285714 c 2,69,-1
 279.485511001 73.0714285714 l 2,70,71
 282.914202009 73.0714285714 282.914202009 73.0714285714 286.208007812 70.5 c 0,72,73
 364.544014155 9.34416480678 364.544014155 9.34416480678 416.773193881 7.43987281857 c 0,74,75
 536.780016468 9.46450368493 536.780016468 9.46450368493 602.626953125 78.5 c 0,76,77
 663.337502544 142.058834879 663.337502544 142.058834879 663.481268022 246.918875594 c 0,78,79
 663.462732286 260.370860957 663.462732286 260.370860957 662.451171875 274.5 c 0,80,81
 652.498046875 418.5 652.498046875 418.5 554.6640625 459.838867188 c 0,82,83
 502.896395869 482.216859219 502.896395869 482.216859219 439.578852946 483.061052491 c 0,84,85
 409.362679508 482.663870041 409.362679508 482.663870041 376.58984375 477.5 c 0,86,87
 329.223632812 470.5 329.223632812 470.5 264.725585938 413.5 c 1,88,-1
 237.751953125 232.5 l 2,89,90
 202.636394614 -0.504255319149 202.636394614 -0.504255319149 112.312073513 -0.504255319149 c 2,91,-1
 102.312073513 -0.504255319149 l 2,0,1
106.558715906 6.69069162191 m 1,92,93
 184.922086864 13.09375906 184.922086864 13.09375906 220.802734375 234.5 c 0,94,95
 232.136597443 307.013180395 232.136597443 307.013180395 245.193938177 395.489744779 c 1,96,97
 143.524952334 305.474807019 143.524952334 305.474807019 82.1337890625 163.5 c 0,98,99
 54.5238835093 99.6481895738 54.5238835093 99.6481895738 54.3425520924 61.5988312947 c 0,100,101
 54.5907226371 9.81797455545 54.5907226371 9.81797455545 106.558715906 6.69069162191 c 1,92,93
EndSplineSet
EndChar

StartChar: uni042B
Encoding: 205 1067 206
Width: 901
GlyphClass: 2
Flags: W
LayerCount: 2
Fore
SplineSet
74.4509914605 6.6813570367 m 1,0,1
 153.037945015 12.9302715096 153.037945015 12.9302715096 188.802734375 234.5 c 0,2,3
 200.290402518 307.020388929 200.290402518 307.020388929 213.214299978 395.50733569 c 1,4,5
 111.535572019 305.488679952 111.535572019 305.488679952 50.1337890625 163.5 c 0,6,7
 22.3500340621 99.4781747781 22.3500340621 99.4781747781 22.1677106935 61.3970319695 c 0,8,9
 22.416618241 9.70440413353 22.416618241 9.70440413353 74.4509914605 6.6813570367 c 1,0,1
70.307952163 -0.504255319149 m 2,10,11
 6.00192672594 -0.504255319149 6.00192672594 -0.504255319149 5.77131832143 59.8496913666 c 2,12,-1
 5.77131832143 60.8496913666 l 2,13,14
 5.77131832143 99.9862102703 5.77131832143 99.9862102703 33.1337890625 164.5 c 0,15,16
 97 314.5 97 314.5 215.235351562 414.5 c 1,17,-1
 223.84765625 502.5 l 1,18,-1
 227.677734375 556.5 l 2,19,20
 230 578.5 230 578.5 233.357220106 645.21405085 c 128,-1,21
 236.714440212 711.9281017 236.714440212 711.9281017 242.464703964 802.789536843 c 1,22,-1
 230.045898438 791.5 l 2,23,24
 207.98548191 771.44558457 207.98548191 771.44558457 186.897428349 771.44558457 c 2,25,-1
 176.897428349 771.44558457 l 2,26,27
 161.965706021 771.44558457 161.965706021 771.44558457 147.521484375 781.5 c 0,28,29
 142.04798784 785.388551176 142.04798784 785.388551176 137.074588935 786.737275323 c 0,30,31
 127.956470733 783.968906569 127.956470733 783.968906569 120.9453125 770.5 c 1,32,-1
 110.9453125 770.5 l 1,33,-1
 106.102539062 773.5 l 1,34,35
 107 778.5 107 778.5 114.3359375 788.5 c 0,36,37
 119.842664931 796.763888889 119.842664931 796.763888889 129.418833038 796.763888889 c 0,38,39
 129.692437841 796.763888889 129.692437841 796.763888889 129.969364637 796.757142857 c 2,40,-1
 139.969364637 796.757142857 l 2,41,42
 150.009458706 796.757142857 150.009458706 796.757142857 162.366766981 788.50563362 c 128,-1,43
 174.724075256 780.254124383 174.724075256 780.254124383 185.348498572 778.865989287 c 0,44,45
 201.713038161 781.03461707 201.713038161 781.03461707 217.307617188 797.5 c 0,46,47
 236 817.5 236 817.5 237.408203125 818.5 c 0,48,49
 237.802734375 819.166666667 237.802734375 819.166666667 241.460720486 819.166666667 c 2,50,-1
 247.110026041 819.166666667 l 1,51,-1
 249.4609375 819.5 l 1,52,-1
 259.4609375 819.5 l 1,53,-1
 247.459960938 589.5 l 2,54,55
 245 540.5 245 540.5 240.548654279 497.073856471 c 128,-1,56
 236.097308558 453.647712943 236.097308558 453.647712943 234.223396438 432.504412888 c 1,57,58
 285.207611997 477.176921565 285.207611997 477.176921565 333.8515625 483.5 c 0,59,60
 386.443649954 488.521047358 386.443649954 488.521047358 394.263322236 488.521047358 c 128,-1,61
 402.082994519 488.521047358 402.082994519 488.521047358 402.332723592 488.519607843 c 2,62,-1
 412.332723592 488.519607843 l 2,63,64
 483.11182598 488.519607843 483.11182598 488.519607843 535.856445312 464.5 c 0,65,66
 640 417.5 640 417.5 648.8984375 274.5 c 0,67,68
 649.722126637 261.587858622 649.722126637 261.587858622 649.722126637 249.233908287 c 2,69,-1
 649.722126637 248.233908287 l 2,70,71
 649.722126637 139.078060468 649.722126637 139.078060468 585.416992188 73.5 c 0,72,73
 513.825961729 0.386075949367 513.825961729 0.386075949367 396.893922717 0.386075949367 c 2,74,-1
 386.893922717 0.386075949367 l 2,75,76
 382.278184335 0.386075949367 382.278184335 0.386075949367 377.591796875 0.5 c 0,77,78
 301 2.5 301 2.5 265.975064472 20.533826337 c 128,-1,79
 230.950128945 38.5676526741 230.950128945 38.5676526741 226.33203125 51.888671875 c 0,80,81
 225.015546782 55.9520146984 225.015546782 55.9520146984 225.015730379 58.9188933068 c 2,82,-1
 225.015730379 59.9188933068 l 2,83,84
 225.015730379 64.8702674541 225.015730379 64.8702674541 228.102539062 68.5 c 0,85,86
 235.696078487 73.1036993788 235.696078487 73.1036993788 236.654144152 73.1036993788 c 128,-1,87
 237.612209818 73.1036993788 237.612209818 73.1036993788 237.719407685 73.0714285714 c 2,88,-1
 247.719407685 73.0714285714 l 2,89,90
 251.118861607 73.0714285714 251.118861607 73.0714285714 254.208007812 70.5 c 0,91,92
 332.60531096 9.36733122238 332.60531096 9.36733122238 384.739013267 7.4413281821 c 0,93,94
 501.087872237 9.4594427917 501.087872237 9.4594427917 572.522460938 76.5 c 0,95,96
 631.723092146 132.694207345 631.723092146 132.694207345 631.858964146 240.459405654 c 0,97,98
 631.83799947 256.883419412 631.83799947 256.883419412 630.451171875 274.5 c 0,99,100
 619 416.5 619 416.5 522.559570312 457.838867188 c 0,101,102
 470.865810763 479.891978763 470.865810763 479.891978763 403.259346455 480.671904236 c 0,103,104
 375.220706631 480.353931602 375.220706631 480.353931602 344.537109375 476.5 c 0,105,106
 301 471.5 301 471.5 232.724609375 413.5 c 1,107,108
 220 323.5 220 323.5 205.751953125 232.5 c 0,109,110
 170.152135971 -0.504255319149 170.152135971 -0.504255319149 80.307952163 -0.504255319149 c 2,111,-1
 70.307952163 -0.504255319149 l 2,10,11
812.629155394 818.392763731 m 2,112,113
 816.081474431 818.392763731 816.081474431 818.392763731 816.759765625 817.5 c 2,114,-1
 816.759765625 816.5 l 1,115,-1
 811.759765625 781.5 l 2,116,117
 811 779.5 811 779.5 804.40625 738.5 c 0,118,119
 750 370.5 750 370.5 731.478515625 226.5 c 0,120,121
 725.896576919 183.419616862 725.896576919 183.419616862 725.866447139 137.369762665 c 0,122,123
 725.870959553 130.468184207 725.870959553 130.468184207 726 123.5 c 0,124,125
 727.302477552 13.4619533798 727.302477552 13.4619533798 771.126347354 7.80641728793 c 1,126,127
 795.563173946 10.7277040091 795.563173946 10.7277040091 820 41.5 c 0,128,129
 834 58.5 834 58.5 836 60 c 0,130,131
 839 61.5 839 61.5 845 61.5 c 2,132,-1
 855 61.5 l 2,133,134
 859 61.5 859 61.5 864 56.5 c 0,135,136
 866 54 866 54 866 49.25 c 128,-1,137
 866 44.5 866 44.5 863 39.5 c 128,-1,138
 860 34.5 860 34.5 849 27.5 c 0,139,140
 804 -0.5 804 -0.5 776.599609375 -0.5 c 2,141,-1
 766.599609375 -0.5 l 2,142,143
 711 -0.5 711 -0.5 709 120.5 c 0,144,145
 709 128 709 128 708.866021196 135.629981111 c 2,146,-1
 708.866021196 136.629981111 l 2,147,148
 708.866021196 185.064961402 708.866021196 185.064961402 714.463867188 227.5 c 2,149,-1
 782 738.5 l 2,150,151
 786.936104911 777.988839286 786.936104911 777.988839286 790.759765625 817.5 c 0,152,153
 791 818 791 818 799.764535272 818.392763731 c 2,154,-1
 812.629155394 818.392763731 l 2,112,113
EndSplineSet
EndChar

StartChar: uni042C
Encoding: 206 1068 207
Width: 723
GlyphClass: 2
Flags: W
LayerCount: 2
Fore
SplineSet
74.5587159057 6.69069162191 m 1,0,1
 152.922086864 13.09375906 152.922086864 13.09375906 188.802734375 234.5 c 0,2,3
 200.136597443 307.013180395 200.136597443 307.013180395 213.193938177 395.489744779 c 1,4,5
 111.524952334 305.474807019 111.524952334 305.474807019 50.1337890625 163.5 c 0,6,7
 22.5238835092 99.6481895737 22.5238835092 99.6481895737 22.3425520924 61.5988312947 c 0,8,9
 22.5907226371 9.81797455541 22.5907226371 9.81797455541 74.5587159057 6.69069162191 c 1,0,1
70.3120735132 -0.504255319149 m 2,10,11
 6.00357773346 -0.504255319149 6.00357773346 -0.504255319149 5.57604143915 59.7538529988 c 2,12,-1
 5.57604143915 60.7538529988 l 2,13,14
 5.57604143915 99.9071874948 5.57604143915 99.9071874948 33.1337890625 164.5 c 0,15,16
 96.995117188 314.5 96.995117188 314.5 215.236328125 414.5 c 1,17,-1
 223.84765625 502.5 l 1,18,-1
 227.677734375 556.5 l 2,19,20
 229.831054688 578.5 229.831054688 578.5 233.327313346 645.217086577 c 128,-1,21
 236.823572003 711.934173154 236.823572003 711.934173154 242.477556954 802.801221083 c 1,22,-1
 230.045898438 791.5 l 2,23,24
 208.041383869 771.496467883 208.041383869 771.496467883 186.931529602 771.496467883 c 2,25,-1
 176.931529602 771.496467883 l 2,26,27
 162.003290701 771.496467883 162.003290701 771.496467883 147.522460938 781.5 c 0,28,29
 142.149890035 785.378743354 142.149890035 785.378743354 137.232600255 786.73045574 c 0,30,31
 128.127395644 783.95235649 128.127395644 783.95235649 120.9453125 770.5 c 1,32,-1
 110.9453125 770.5 l 1,33,-1
 106.102539062 773.5 l 1,34,35
 107.3125 778.5 107.3125 778.5 113.577596029 787.631944444 c 128,-1,36
 119.842692057 796.763888889 119.842692057 796.763888889 129.290415822 796.763888889 c 0,37,38
 129.560350787 796.763888889 129.560350787 796.763888889 129.833503667 796.757142857 c 2,39,-1
 139.833503667 796.757142857 l 2,40,41
 149.869335937 796.757142857 149.869335937 796.757142857 162.233191297 788.507458494 c 128,-1,42
 174.597046657 780.257774132 174.597046657 780.257774132 185.174870631 778.867389657 c 0,43,44
 201.528666198 781.039928933 201.528666198 781.039928933 218.942555755 799.269964466 c 128,-1,45
 236.356445312 817.5 236.356445312 817.5 237.233235677 818.333333333 c 128,-1,46
 238.110026042 819.166666667 238.110026042 819.166666667 241.665581597 819.166666667 c 2,47,-1
 247.110026041 819.166666667 l 1,48,-1
 249.4609375 819.5 l 1,49,-1
 259.4609375 819.5 l 1,50,-1
 247.459960938 589.5 l 2,51,52
 244.891601562 540.5 244.891601562 540.5 240.392839678 497.00204695 c 128,-1,53
 235.894077793 453.504093901 235.894077793 453.504093901 234.124222994 432.344209729 c 1,54,55
 285.559751254 477.165592465 285.559751254 477.165592465 333.852539062 483.5 c 0,56,57
 386.329489776 488.521055209 386.329489776 488.521055209 394.139646663 488.521055209 c 128,-1,58
 401.949803551 488.521055209 401.949803551 488.521055209 402.199881431 488.519607843 c 2,59,-1
 412.199881431 488.519607843 l 2,60,61
 482.899375766 488.519607843 482.899375766 488.519607843 535.856445312 464.5 c 0,62,63
 649.76701279 413.28568287 649.76701279 413.28568287 649.76701279 248.647009432 c 2,64,-1
 649.76701279 247.647009432 l 2,65,66
 649.76701279 138.901668799 649.76701279 138.901668799 585.416992188 73.5 c 0,67,68
 514.244029371 0.386075949367 514.244029371 0.386075949367 396.92567469 0.386075949367 c 2,69,-1
 386.92567469 0.386075949367 l 2,70,71
 382.294687006 0.386075949367 382.294687006 0.386075949367 377.591796875 0.5 c 0,72,73
 300.696289062 2.5 300.696289062 2.5 266.61328125 20 c 128,-1,74
 232.530273438 37.5 232.530273438 37.5 226.333007812 51.888671875 c 0,75,76
 225 56 225 56 224.914570157 59.0020823397 c 2,77,-1
 224.914570157 60.0020823397 l 2,78,79
 224.914570157 64.9007936507 224.914570157 64.9007936507 228.102539062 68.5 c 0,80,81
 232.913922991 73.0714285714 232.913922991 73.0714285714 237.485511001 73.0714285714 c 2,82,-1
 247.485511001 73.0714285714 l 2,83,84
 250.914202009 73.0714285714 250.914202009 73.0714285714 254.208007812 70.5 c 0,85,86
 332.514265379 9.36738926463 332.514265379 9.36738926463 384.733521131 7.44132724278 c 0,87,88
 500.996686591 9.45935543521 500.996686591 9.45935543521 572.522460938 76.5 c 0,89,90
 631.706826874 132.737314366 631.706826874 132.737314366 631.842508027 240.624771073 c 0,91,92
 631.821694123 256.972089607 631.821694123 256.972089607 630.451171875 274.5 c 0,93,94
 619.393554688 416.5 619.393554688 416.5 522.559570312 457.838867188 c 0,95,96
 471.047101195 479.892842912 471.047101195 479.892842912 403.373562251 480.671965234 c 0,97,98
 375.299096167 480.354300992 375.299096167 480.354300992 344.538085938 476.5 c 0,99,100
 301.275390625 471.5 301.275390625 471.5 232.725585938 413.5 c 1,101,-1
 205.751953125 232.5 l 2,102,103
 170.636394614 -0.504255319149 170.636394614 -0.504255319149 80.3120735132 -0.504255319149 c 2,104,-1
 70.3120735132 -0.504255319149 l 2,10,11
EndSplineSet
EndChar

StartChar: uni042D
Encoding: 207 1069 208
Width: 606
GlyphClass: 2
Flags: W
LayerCount: 2
Fore
SplineSet
95 708.5 m 1,0,1
 189.948095388 819.609473326 189.948095388 819.609473326 299.857228165 819.609473326 c 2,2,-1
 309.857228165 819.609473326 l 2,3,4
 379.746470888 819.609473326 379.746470888 819.609473326 436 752.5 c 0,5,6
 478 703.5 478 703.5 495 586.5 c 0,7,8
 502.553118574 535.044379712 502.553118574 535.044379712 502.553118574 477.605120377 c 0,9,10
 502.553118574 474.206717738 502.553118574 474.206717738 502.526678766 470.787369277 c 2,11,-1
 502.526678766 469.787369277 l 2,12,13
 502.526678766 457.777676951 502.526678766 457.777676951 502.23828125 445.5 c 0,14,15
 500 346.5 500 346.5 488 285.5 c 0,16,17
 471.1953125 204.627929688 471.1953125 204.627929688 422 118.5 c 0,18,19
 353.902442133 -0.917456549791 353.902442133 -0.917456549791 224.44204549 -0.917456549791 c 2,20,-1
 214.44204549 -0.917456549791 l 2,21,22
 160.219938517 -0.917456549791 160.219938517 -0.917456549791 121.609969259 12.2912717251 c 128,-1,23
 83 25.5 83 25.5 65 38.5 c 1,24,-1
 65 39.5 l 1,25,-1
 68 45.5 l 1,26,-1
 78 45.5 l 1,27,28
 106 28.5 106 28.5 134 18.5 c 0,29,30
 162.739772665 7.72258525044 162.739772665 7.72258525044 210.031707691 7.19171130995 c 0,31,32
 210.514959452 7.19692414803 210.514959452 7.19692414803 211 7.203125 c 0,33,34
 339 7.5 339 7.5 405 122.5 c 0,35,36
 456 210.5 456 210.5 471 288.5 c 0,37,38
 482.475186327 347.641344917 482.475186327 347.641344917 485.145131477 424.70362314 c 1,39,-1
 458.045898438 411.5 l 1,40,41
 412.368313621 396.446181779 412.368313621 396.446181779 400.628612811 396.446181779 c 0,42,43
 400.000680633 396.446181779 400.000680633 396.446181779 399.469843302 396.489250114 c 2,44,-1
 389.469843302 396.489250114 l 2,45,46
 361.978402502 396.489250114 361.978402502 396.489250114 338.172080635 411.499022789 c 128,-1,47
 314.365758769 426.508795464 314.365758769 426.508795464 292.917828494 428.097154434 c 0,48,49
 260.317572626 425.623700807 260.317572626 425.623700807 232.998046875 390.5 c 1,50,-1
 222.998046875 390.5 l 1,51,-1
 218.102539062 393.5 l 1,52,53
 223 400.5 223 400.5 228.231445312 406.5 c 0,54,55
 251.907315893 435.839807014 251.907315893 435.839807014 284.317373908 435.839807014 c 2,56,-1
 294.317373908 435.839807014 l 2,57,58
 320.453477223 435.839807014 320.453477223 435.839807014 352.26953125 416.759765625 c 0,59,60
 369.901641199 405.993447777 369.901641199 405.993447777 392.177518425 404.92895453 c 0,61,62
 416.261257358 406.029468004 416.261257358 406.029468004 445.30859375 417.5 c 0,63,64
 457.381433925 422.256305148 457.381433925 422.256305148 485.533879328 437.871380851 c 1,65,66
 485.849562664 450.757630297 485.849562664 450.757630297 485.855732331 461.415317225 c 0,67,68
 485.821104571 521.248645021 485.821104571 521.248645021 477.5 583 c 0,69,70
 464 694.5 464 694.5 421 747.5 c 0,71,72
 369.710255057 811.137276133 369.710255057 811.137276133 304.888422088 813.225579935 c 0,73,74
 204.519921618 810.83681541 204.519921618 810.83681541 109 703.5 c 1,75,-1
 99 703.5 l 1,76,-1
 95 708.5 l 1,0,1
EndSplineSet
EndChar

StartChar: uni042E
Encoding: 208 1070 209
Width: 1058
GlyphClass: 2
Flags: W
LayerCount: 2
Fore
SplineSet
886 747.5 m 0,0,1
 869 761.5 869 761.5 855.52 761.5 c 128,-1,2
 842.04 761.5 842.04 761.5 842.04 768.2392 c 2,3,-1
 842.04 769.2392 l 2,4,5
 842.04 771.86 842.04 771.86 845.126375482 777.278391449 c 128,-1,6
 848.212750965 782.696782898 848.212750965 782.696782898 848.389229554 788.476249063 c 0,7,8
 847.712055305 810.17513168 847.712055305 810.17513168 787.617983557 811.010065819 c 0,9,10
 779.746674805 810.908723143 779.746674805 810.908723143 771 810.5 c 0,11,12
 686 806.5 686 806.5 582 702.5 c 0,13,14
 506 626.5 506 626.5 472 450.5 c 0,15,16
 450.079193516 336.9103664 450.079193516 336.9103664 468 203.5 c 0,17,18
 486 63.5 486 63.5 605 18.5 c 0,19,20
 633.739772665 7.72258525044 633.739772665 7.72258525044 681.031707691 7.19171130995 c 0,21,22
 681.514959452 7.19692414803 681.514959452 7.19692414803 682 7.203125 c 0,23,24
 809.571624292 7.76007832297 809.571624292 7.76007832297 876 122.5 c 0,25,26
 927 210.5 927 210.5 942 288.5 c 0,27,28
 956.79978835 364.775832265 956.79978835 364.775832265 956.855732331 461.415317226 c 0,29,30
 956.821104571 521.248645022 956.821104571 521.248645022 948.5 583 c 0,31,32
 932 708.5 932 708.5 886 747.5 c 0,0,1
442.387341772 309.634856593 m 0,33,34
 442.387341772 312.06835443 442.387341772 312.06835443 442.404761905 314.5 c 2,35,-1
 442.404761905 315.5 l 2,36,37
 442.404761905 392.098796609 442.404761905 392.098796609 458.337412735 470.949769464 c 1,38,39
 441.987358947 451.134225573 441.987358947 451.134225573 427.212890625 443.935546875 c 0,40,41
 404 432 404 432 373.128453761 431.975881792 c 2,42,-1
 363.128453761 431.975881792 l 2,43,44
 346.563538781 431.975881792 346.563538781 431.975881792 333.541805898 434.310575979 c 128,-1,45
 320.520073015 436.645270166 320.520073015 436.645270166 313.336106909 436.947808922 c 0,46,47
 294.965773422 436.157704463 294.965773422 436.157704463 278.047851562 429.5 c 1,48,49
 273 369.5 273 369.5 252.82421875 232.5 c 0,50,51
 219 0.5 219 0.5 130.678710938 -0.5 c 0,52,53
 129.084071225 -0.514492795188 129.084071225 -0.514492795188 128.559029419 -0.514492753623 c 2,54,-1
 118.559029419 -0.514492753623 l 2,55,56
 118.032459366 -0.518168100716 118.032459366 -0.518168100716 117.509882218 -0.518168100716 c 0,57,58
 49.1168604976 -0.518168100716 49.1168604976 -0.518168100716 49.1168604976 62.4355108959 c 0,59,60
 49.1168604976 62.5422617386 49.1168604976 62.5422617386 49.1170571559 62.6491935992 c 2,61,-1
 49.1170571559 63.6491935992 l 2,62,63
 49.1170571559 103.36590355 49.1170571559 103.36590355 74.41015625 164.5 c 0,64,65
 162 399.5 162 399.5 261.971679688 435.5 c 1,66,-1
 270.436523438 576.5 l 2,67,68
 270.629338201 577.18437545 270.629338201 577.18437545 279.668918352 802.869149029 c 1,69,-1
 267.361328125 791.5 l 2,70,71
 245.670395651 771.462978997 245.670395651 771.462978997 224.57443975 771.462978997 c 2,72,-1
 214.57443975 771.462978997 l 2,73,74
 199.643572002 771.462978997 199.643572002 771.462978997 185.010742188 781.5 c 0,75,76
 179.691344096 785.366765089 179.691344096 785.366765089 174.818031336 786.722082892 c 0,77,78
 165.777353827 783.932142856 165.777353827 783.932142856 158.626953125 770.5 c 1,79,-1
 148.626953125 770.5 l 1,80,-1
 143.731445312 773.5 l 1,81,82
 145 778.5 145 778.5 151.720703125 788.5 c 0,83,84
 157.825575087 796.763888889 157.825575087 796.763888889 166.65905385 796.763888889 c 0,85,86
 166.911438957 796.763888889 166.911438957 796.763888889 167.166051499 796.757142857 c 2,87,-1
 177.166051499 796.757142857 l 2,88,89
 187.204882813 796.757142857 187.204882813 796.757142857 199.593541747 788.509556861 c 128,-1,90
 211.982200681 780.261970866 211.982200681 780.261970866 222.531268296 778.86900298 c 0,91,92
 238.834392216 781.04603297 238.834392216 781.04603297 254.53515625 797.5 c 0,93,94
 273 817.5 273 817.5 273.878255208 818.333333333 c 128,-1,95
 274.756510417 819.166666667 274.756510417 819.166666667 278.379774306 819.166666667 c 2,96,-1
 283.959635417 819.166666667 l 1,97,-1
 286.3046875 819.5 l 1,98,-1
 296.3046875 819.5 l 1,99,-1
 296.3046875 818.5 l 2,100,101
 296 812.5 296 812.5 295.5 787 c 128,-1,102
 295 761.5 295 761.5 293 719.5 c 128,-1,103
 291 677.5 291 677.5 288.30078125 589.5 c 0,104,105
 286 580.5 286 580.5 284.505608346 535.759080278 c 128,-1,106
 283.011216692 491.018160557 283.011216692 491.018160557 279.080086977 442.000639747 c 1,107,108
 290.661617963 444.976094106 290.661617963 444.976094106 305.107390715 444.976094106 c 2,109,-1
 315.107390715 444.976094106 l 2,110,111
 326.704022262 444.976094106 326.704022262 444.976094106 340.630960789 442.986854001 c 128,-1,112
 354.557899315 440.997613896 354.557899315 440.997613896 367.301799068 440.651995893 c 0,113,114
 394.638805769 441.434651456 394.638805769 441.434651456 413.424804688 451.013671875 c 0,115,116
 436.889629535 463.441543567 436.889629535 463.441543567 467.782459183 512.042000156 c 1,117,118
 499.920248873 635.893853397 499.920248873 635.893853397 565.960124437 708.696926698 c 128,-1,119
 632 781.5 632 781.5 717.5 811.5 c 0,120,121
 732 816.5 732 816.5 775 818.5 c 0,122,123
 783.179775281 818.859550562 783.179775281 818.859550562 790.543491983 818.859550562 c 2,124,-1
 800.543491983 818.859550562 l 2,125,126
 800.859282401 818.860217954 800.859282401 818.860217954 801.17357201 818.860217954 c 0,127,128
 866.990100485 818.860217954 866.990100485 818.860217954 866.99009901 789.583570238 c 2,129,-1
 866.99009901 788.583570238 l 2,130,131
 866.99009901 785.00990099 866.99009901 785.00990099 866.246969562 781.950610735 c 128,-1,132
 865.503840113 778.891320481 865.503840113 778.891320481 865.560291953 775.872311475 c 128,-1,133
 865.616743793 772.853302469 865.616743793 772.853302469 869 771.5 c 0,134,135
 897 763.5 897 763.5 907 752.5 c 0,136,137
 948 710.5 948 710.5 966 586.5 c 0,138,139
 973.553118574 535.044379712 973.553118574 535.044379712 973.553118574 477.605120377 c 0,140,141
 973.553118574 474.206717738 973.553118574 474.206717738 973.526678766 470.787369277 c 2,142,-1
 973.526678766 469.787369277 l 2,143,144
 973.526678766 369.028402904 973.526678766 369.028402904 959 285.5 c 0,145,146
 946.505894413 208.97360328 946.505894413 208.97360328 893 118.5 c 0,147,148
 822.054435624 -0.908379478369 822.054435624 -0.908379478369 694.736944744 -0.908379478369 c 0,149,150
 694.639255663 -0.908379478369 694.639255663 -0.908379478369 694.541533393 -0.908309179115 c 2,151,-1
 684.541533393 -0.908309179115 l 2,152,153
 623.088824478 -0.908309179115 623.088824478 -0.908309179115 590 11.5 c 0,154,155
 474 54.5 474 54.5 451 200.5 c 0,156,157
 442.387341772 255.525316456 442.387341772 255.525316456 442.387341772 309.634856593 c 0,33,34
118.451661646 6.37476124252 m 0,158,159
 119.657932592 6.42562629454 119.657932592 6.42562629454 120.887695312 6.5 c 0,160,161
 202.887695312 6.5 202.887695312 6.5 235.857421875 234.5 c 0,162,163
 252.380162941 348.356620957 252.380162941 348.356620957 260.461114487 422.179975914 c 1,164,165
 173.441879284 381.168157045 173.441879284 381.168157045 90.3408203125 161.5 c 0,166,167
 66.6800204186 100.969389973 66.6800204186 100.969389973 66.5123747433 62.6370477777 c 0,168,169
 66.7501086801 8.7555046536 66.7501086801 8.7555046536 118.451661646 6.37476124252 c 0,158,159
EndSplineSet
EndChar

StartChar: uni042F
Encoding: 209 1071 210
Width: 765
GlyphClass: 2
Flags: W
LayerCount: 2
Fore
SplineSet
569.69140625 609.799804688 m 1,0,-1
 575 662.5 l 1,1,2
 579.32725265 716.054875154 579.32725265 716.054875154 583.948065763 756.441405715 c 0,3,4
 583.788859517 776.437880532 583.788859517 776.437880532 581 785.5 c 0,5,6
 573.299298251 810.527280686 573.299298251 810.527280686 509.077514443 811.463610217 c 0,7,8
 415.419566289 810.072509646 415.419566289 810.072509646 355 755.5 c 0,9,10
 273.703398353 683.018692507 273.703398353 683.018692507 273.474021797 594.707690175 c 0,11,12
 273.474021797 593.567351195 273.474021797 593.567351195 273.5 592 c 0,13,14
 275 501.5 275 501.5 315 441.5 c 0,15,16
 352.86648005 383.243876847 352.86648005 383.243876847 428.441581042 381.550685082 c 0,17,18
 463.210288447 382.211934406 463.210288447 382.211934406 479 391.5 c 0,19,20
 505 406.5 505 406.5 520.962890625 430.943359375 c 0,21,22
 554.416015625 483.213867188 554.416015625 483.213867188 569.69140625 609.799804688 c 1,0,-1
513.642777778 819.516666667 m 2,23,24
 571.183062074 819.516666667 571.183062074 819.516666667 589.914288603 801.764117665 c 1,25,26
 590.972481166 808.821127582 590.972481166 808.821127582 592 815.5 c 1,27,-1
 613 815.5 l 1,28,-1
 613 814.5 l 1,29,-1
 595.461914062 685.884765625 l 2,30,31
 594.789178605 679.494486923 594.789178605 679.494486923 591.721679688 643.5 c 0,32,33
 588.329101562 634.76171875 588.329101562 634.76171875 583.665586159 575.643985415 c 128,-1,34
 579.002070757 516.526252079 579.002070757 516.526252079 576.843188755 491.527424193 c 1,35,-1
 576.843188755 491.324643155 l 2,36,37
 576.843188755 484.640118662 576.843188755 484.640118662 566.4609375 361.5 c 1,38,-1
 560.017578125 226.5 l 2,39,40
 559.963413972 220.593852706 559.963413972 220.593852706 559.961153925 214.84554186 c 0,41,42
 560.039858797 15.1456203295 560.039858797 15.1456203295 623.062870168 6.85456507645 c 1,43,44
 645.818188518 10.0227383941 645.818188518 10.0227383941 671 41.5 c 0,45,46
 685 58.5 685 58.5 687 60 c 0,47,48
 690 61.5 690 61.5 696 61.5 c 2,49,-1
 706 61.5 l 2,50,51
 710 61.5 710 61.5 715 56.5 c 0,52,53
 717 54 717 54 717 49.25 c 128,-1,54
 717 44.5 717 44.5 714 39.5 c 128,-1,55
 711 34.5 711 34.5 700 27.5 c 0,56,57
 655 -0.5 655 -0.5 627.599609375 -0.5 c 2,58,-1
 617.599609375 -0.5 l 2,59,60
 542.153047744 -0.00101222575983 542.153047744 -0.00101222575983 542.153047744 208.724913474 c 0,61,62
 542.153047744 209.14832617 542.153047744 209.14832617 542.15335821 209.572595729 c 2,63,-1
 542.15335821 210.572595729 l 2,64,65
 542.15335821 219.352808587 542.15335821 219.352808587 542.28515625 228.5 c 2,66,-1
 549.130859375 362.5 l 1,67,-1
 554.676004085 428.298125393 l 1,68,69
 547.778430094 402.015495088 547.778430094 402.015495088 539 371.5 c 0,70,71
 512 279.5 512 279.5 453.77734375 201.5 c 0,72,73
 392 117.5 392 117.5 295 48.568359375 c 0,74,75
 225 -1.5 225 -1.5 148 -1.5 c 2,76,-1
 138 -1.5 l 2,77,78
 81 -1.5 81 -1.5 60 20.5 c 0,79,80
 43.3349609375 38.1455078125 43.3349609375 38.1455078125 41 68.5 c 2,81,-1
 39 94.5 l 1,82,-1
 39 95.5 l 1,83,84
 43.4332005259 97.5055346711 43.4332005259 97.5055346711 44.25 97.5 c 2,85,-1
 54.25 97.5 l 2,86,87
 56 97.5 56 97.5 56 96 c 128,-1,88
 56 94.5 56 94.5 58 67.5 c 128,-1,89
 60 40.5 60 40.5 75 26.5 c 0,90,91
 95.7105907438 7.59033019043 95.7105907438 7.59033019043 136.691907805 6.51889938189 c 0,92,93
 213.301112701 8.71421730273 213.301112701 8.71421730273 280 56.1650390625 c 0,94,95
 373 123.5 373 123.5 434.795898438 206.5 c 0,96,97
 490 280.5 490 280.5 521 374.5 c 0,98,99
 530.125293928 401.875881783 530.125293928 401.875881783 536.943912252 426.714420403 c 1,100,101
 515.58890824 398.455679835 515.58890824 398.455679835 493 384.869140625 c 0,102,103
 473.161210523 373.440740741 473.161210523 373.440740741 427.291742112 373.440740741 c 2,104,-1
 417.291742112 373.440740741 l 2,105,106
 340.725925926 373.440740741 340.725925926 373.440740741 298.862962963 436.97037037 c 0,107,108
 255.988235294 502.035415376 255.988235294 502.035415376 255.988235294 596.662214533 c 2,109,-1
 255.988235294 597.662214533 l 2,110,111
 255.988235294 688.370588235 255.988235294 688.370588235 339 761.5 c 0,112,113
 404.459169257 819.520627296 404.459169257 819.520627296 502.028331902 819.520627296 c 0,114,115
 502.834458887 819.520627296 502.834458887 819.520627296 503.642777778 819.516666667 c 2,116,-1
 513.642777778 819.516666667 l 2,23,24
EndSplineSet
EndChar

StartChar: uni0431
Encoding: 211 1073 212
Width: 467
GlyphClass: 2
Flags: W
LayerCount: 2
Fore
SplineSet
174.00195263 758.487338695 m 1,0,1
 180.040609387 871.258374389 180.040609387 871.258374389 301.750207052 871.258374389 c 2,2,-1
 311.750207052 871.258374389 l 2,3,4
 342.471169941 871.258374389 342.471169941 871.258374389 381.524812382 851.013401408 c 128,-1,5
 420.578454823 830.768428426 420.578454823 830.768428426 456.604859443 829.338118149 c 0,6,7
 512.324508461 831.155638453 512.324508461 831.155638453 539 864.5 c 0,8,9
 553 881.5 553 881.5 555 883 c 0,10,11
 558 884.5 558 884.5 564 884.5 c 2,12,-1
 574 884.5 l 2,13,14
 578 884.5 578 884.5 583 879.5 c 0,15,16
 585 878 585 878 585 873.5 c 2,17,-1
 585 872.5 l 2,18,19
 585 867.5 585 867.5 582 862.5 c 128,-1,20
 579 857.5 579 857.5 568 850.5 c 0,21,22
 523 823 523 823 462.701737682 822.661176226 c 2,23,-1
 451.385564466 822.661176226 l 2,24,25
 409.692782233 822.661176226 409.692782233 822.661176226 368 844.5 c 0,26,27
 332.249325515 862.811321078 332.249325515 862.811321078 307.903565409 864.460776785 c 0,28,29
 192.95501983 859.13986732 192.95501983 859.13986732 189.59375 757.5 c 0,30,31
 189.560698356 756.498013309 189.560698356 756.498013309 189.554276155 755.468138359 c 0,32,33
 189.660129171 738.272063946 189.660129171 738.272063946 197 713.5 c 0,34,35
 206 682.5 206 682.5 242 650.5 c 0,36,37
 282 615.5 282 615.5 302 593.75 c 0,38,39
 382.666876133 506.282718612 382.666876133 506.282718612 382.666876133 324.894707287 c 2,40,-1
 382.666876133 323.894707287 l 2,41,42
 382.666876133 311.902613645 382.666876133 311.902613645 382.314287666 299.5 c 0,43,44
 377 131.5 377 131.5 314.546875 47.5 c 0,45,46
 279.346143981 -0.480392156863 279.346143981 -0.480392156863 191.220248823 -0.480392156863 c 2,47,-1
 181.220248823 -0.480392156863 l 2,48,49
 133.342984069 -0.480392156863 133.342984069 -0.480392156863 104.0703125 18.5 c 0,50,51
 57 49.5 57 49.5 42.59765625 119.5 c 0,52,53
 35.441711832 151.994242211 35.441711832 151.994242211 35.441711832 184.436213157 c 0,54,55
 35.441711832 186.438744421 35.441711832 186.438744421 35.4689771839 188.441076522 c 2,56,-1
 35.4689771839 189.441076522 l 2,57,58
 35.4689771839 308.371647015 35.4689771839 308.371647015 119.458007812 431.5 c 0,59,60
 161.050358559 492.634328358 161.050358559 492.634328358 225.495906008 492.634328358 c 2,61,-1
 235.495906008 492.634328358 l 2,62,63
 292.595754139 492.634328358 292.595754139 492.634328358 326.541015625 462.5 c 1,64,-1
 323.37109375 456.643554688 l 1,65,-1
 313.37109375 456.643554688 l 1,66,67
 280.843004232 484.49049124 280.843004232 484.49049124 229.937637721 486.628932356 c 1,68,69
 173.671597275 484.204141519 173.671597275 484.204141519 134 426.5 c 0,70,71
 52.9761228782 307.71742286 52.9761228782 307.71742286 52.8092229523 187.078440213 c 0,72,73
 52.8541484529 154.855433259 52.8541484529 154.855433259 58.6669921875 122.5 c 0,74,75
 70 59.5 70 59.5 118.245117188 24.5 c 0,76,77
 142.830896884 6.91296653216 142.830896884 6.91296653216 184.582605127 5.94142351584 c 0,78,79
 266.192495149 7.75332855534 266.192495149 7.75332855534 299.72265625 52.5 c 0,80,81
 360 133.5 360 133.5 367.104007545 300.5 c 0,82,83
 367.900220046 317.594954661 367.900220046 317.594954661 367.91221946 333.944916445 c 0,84,85
 367.790517864 499.539654487 367.790517864 499.539654487 287 588.5 c 0,86,87
 267 610.5 267 610.5 228 644.954101562 c 0,88,89
 193 674.5 193 674.5 181.7109375 709.5 c 0,90,91
 174.001952136 731.994303797 174.001952136 731.994303797 174.00195263 757.487338695 c 2,92,-1
 174.00195263 758.487338695 l 1,0,1
EndSplineSet
EndChar

StartChar: uni0433
Encoding: 213 1075 214
Width: 451
GlyphClass: 2
Flags: W
LayerCount: 2
Fore
SplineSet
49 343.5 m 1,0,1
 87.7989907485 491.548780488 87.7989907485 491.548780488 215.385233283 491.548780488 c 2,2,-1
 225.385233283 491.548780488 l 2,3,4
 312.014076791 491.548780488 312.014076791 491.548780488 312.577148438 413.5 c 0,5,6
 312.583219621 412.739041051 312.583219621 412.739041051 312.583219621 411.980555831 c 2,7,-1
 312.583219621 410.980555831 l 2,8,9
 312.583219621 358.911333643 312.583219621 358.911333643 283.971679688 318.5 c 0,10,11
 269 297.5 269 297.5 199.138671875 237.5 c 0,12,13
 98.6043715825 157.274832029 98.6043715825 157.274832029 94.2734375 71.5 c 0,14,15
 94.236788905 70.436057283 94.236788905 70.436057283 94.2297013061 69.3892585829 c 0,16,17
 94.6474608913 8.17427922411 94.6474608913 8.17427922411 197.761840941 6.51866623335 c 0,18,19
 306.156634588 8.83254724786 306.156634588 8.83254724786 365 127.5 c 1,20,-1
 375 127.5 l 1,21,-1
 380 125.5 l 1,22,-1
 380 124.5 l 1,23,24
 319 -0.5 319 -0.5 203 -0.619140625 c 2,25,-1
 193 -0.619140625 l 2,26,27
 79 -0.5 79 -0.5 78.2255859375 67.5 c 2,28,-1
 78.2255859375 69.0964814307 l 2,29,30
 78.2255859375 155.575685339 78.2255859375 155.575685339 181.078125 241.5 c 0,31,32
 256 305.5 256 305.5 268.280273438 322.5 c 0,33,34
 297.327154307 364.415104472 297.327154307 364.415104472 297.51941705 412.533009129 c 0,35,36
 297.238151589 482.442022071 297.238151589 482.442022071 218.032604922 484.453398827 c 0,37,38
 100.639742938 481.735985831 100.639742938 481.735985831 72 341.5 c 1,39,-1
 62 341.5 l 1,40,-1
 49 342.5 l 1,41,-1
 49 343.5 l 1,0,1
EndSplineSet
EndChar

StartChar: uni0436
Encoding: 216 1078 217
Width: 807
GlyphClass: 2
Flags: W
LayerCount: 2
Fore
SplineSet
684 61.5 m 2,0,-1
 694 61.5 l 2,1,2
 698 61.5 698 61.5 703 56.5 c 0,3,4
 705 54 705 54 705 49.25 c 128,-1,5
 705 44.5 705 44.5 702 39.5 c 128,-1,6
 699 34.5 699 34.5 688 27.5 c 0,7,8
 643 -0.5 643 -0.5 615.599609375 -0.5 c 2,9,-1
 605.599609375 -0.5 l 2,10,11
 553 -0.5 553 -0.5 522.698242188 49.5 c 0,12,13
 503 81.5 503 81.5 496.8671875 133.5 c 0,14,15
 495.04479725 148.140122508 495.04479725 148.140122508 495.04479725 165.331963471 c 2,16,-1
 495.04479725 166.331963471 l 2,17,18
 495.04479725 166.608127857 495.04479725 166.608127857 495.045032375 166.782378769 c 128,-1,19
 495.045267499 166.956629681 495.045267499 166.956629681 495.044985906 167.028361165 c 2,20,-1
 495.044985906 168.028361165 l 2,21,22
 495.044985906 217.655099737 495.044985906 217.655099737 509.306640625 303.5 c 0,23,24
 511.118416573 313.36501127 511.118416573 313.36501127 512.758709585 321.913539899 c 1,25,26
 413.679960687 141.232338565 413.679960687 141.232338565 360 38.5 c 1,27,-1
 346 38.5 l 1,28,-1
 346 39.5 l 1,29,-1
 406.130950275 444.44436826 l 1,30,-1
 279.403320312 215.5 l 2,31,32
 245 153.5 245 153.5 238.599609375 134.5 c 0,33,34
 214 62.5 214 62.5 187.733398438 34.0234375 c 0,35,36
 155 -0.5 155 -0.5 118 -0.6103515625 c 2,37,-1
 108 -0.6103515625 l 2,38,39
 92 -0.5 92 -0.5 75 2.72265625 c 0,40,41
 14 14.5 14 14.5 14 55.5 c 0,42,43
 14 58.5 14 58.5 18.5 60.5 c 128,-1,44
 23 62.5 23 62.5 25 64.5 c 1,45,-1
 35 64.5 l 1,46,47
 58 16.5 58 16.5 87 9.904296875 c 0,48,49
 100.840880823 7.13262232603 100.840880823 7.13262232603 113.356017836 6.57095259037 c 0,50,51
 144.881027906 8.55918271051 144.881027906 8.55918271051 172.231445312 38.5 c 0,52,53
 202 70.5 202 70.5 221.390625 137.5 c 0,54,55
 229 162.5 229 162.5 234.5 193 c 128,-1,56
 240 223.5 240 223.5 246.80078125 278.5 c 0,57,58
 249.956413049 305.132145295 249.956413049 305.132145295 246.758789062 351.5 c 0,59,60
 237.329514433 478.076665249 237.329514433 478.076665249 155.787203294 484.21785595 c 1,61,62
 129.433540146 480.781778409 129.433540146 480.781778409 86 435.5 c 1,63,-1
 76 435.5 l 1,64,65
 70.6666666667 438.833333333 70.6666666667 438.833333333 70.6666666667 439.777777778 c 2,66,-1
 70.6666666667 440.777777778 l 2,67,68
 70.6666666667 441.166666667 70.6666666667 441.166666667 71 441.5 c 0,69,70
 120.805447471 491.305447471 120.805447471 491.305447471 149.77400112 491.305447471 c 2,71,-1
 160.267467244 491.305447471 l 2,72,73
 254.013510384 491.305447471 254.013510384 491.305447471 263.490234375 354.5 c 0,74,75
 264.695860105 336.726168224 264.695860105 336.726168224 264.695860105 318.490818412 c 2,76,-1
 264.695860105 317.490818412 l 2,77,78
 264.695860105 262.007331289 264.695860105 262.007331289 253.301124285 199.112129374 c 1,79,80
 258.097760533 208.047521499 258.097760533 208.047521499 263.739257812 218.5 c 0,81,82
 340 352.5 340 352.5 412 481.5 c 1,83,-1
 422 481.5 l 2,84,85
 425 481.5 425 481.5 426 480.5 c 0,86,87
 422 454.5 422 454.5 388 227.5 c 1,88,-1
 367.702784407 82.8823389021 l 1,89,-1
 503 333.5 l 2,90,91
 520 366.5 520 366.5 539 418.456054688 c 0,92,93
 566 491 566 491 628.79323638 491.380080015 c 2,94,-1
 629.080954493 491.380080015 l 2,95,96
 629.470598405 491.380080015 629.470598405 491.380080015 629.858660217 491.380982508 c 2,97,-1
 639.858660217 491.380982508 l 2,98,99
 686.219724601 491.380982508 686.219724601 491.380982508 710.1098623 478.440491254 c 128,-1,100
 734 465.5 734 465.5 746 436.5 c 0,101,102
 746 433.5 746 433.5 744.5 432.5 c 128,-1,103
 743 431.5 743 431.5 741 429.5 c 1,104,-1
 731 429.5 l 1,105,106
 718 460.5 718 460.5 697.122672788 471.891885573 c 128,-1,107
 676.245345577 483.283771146 676.245345577 483.283771146 638.537704256 484.050013227 c 0,108,109
 580.534174919 482.306056062 580.534174919 482.306056062 554 414.296875 c 1,110,-1
 536.17578125 354.5 l 2,111,112
 532.396048699 341.819713809 532.396048699 341.819713809 523.682604171 289.350847235 c 128,-1,113
 514.969159643 236.881980661 514.969159643 236.881980661 513.581380061 216.960281633 c 0,114,115
 510.954497364 179.251147472 510.954497364 179.251147472 513.543945312 136.5 c 0,116,117
 517 90.5 517 90.5 539.080078125 54.5 c 0,118,119
 565.758783274 10.5449902998 565.758783274 10.5449902998 609.858815884 6.76478447205 c 1,120,121
 632.475036627 9.6700446415 632.475036627 9.6700446415 659 41.5 c 0,122,123
 673 58.5 673 58.5 675 60 c 0,124,125
 678 61.5 678 61.5 684 61.5 c 2,0,-1
EndSplineSet
EndChar

StartChar: uni0437
Encoding: 217 1079 218
Width: 442
GlyphClass: 2
Flags: W
LayerCount: 2
Fore
SplineSet
224.005169125 491.516129032 m 2,0,-1
 234.005169125 491.516129032 l 2,1,2
 235 491.516129032 235 491.516129032 236 491.5 c 0,3,4
 332.010204082 490.510204082 332.010204082 490.510204082 332.010204082 393.020356102 c 2,5,-1
 332.010204082 392.020356102 l 2,6,7
 332.010204082 293.624156683 332.010204082 293.624156683 277.08203125 232.5 c 0,8,9
 253.618720272 206.257883861 253.618720272 206.257883861 228.687582217 184.543041597 c 1,10,11
 238.739813652 185.608494938 238.739813652 185.608494938 240.273121805 185.608494938 c 128,-1,12
 241.806429959 185.608494938 241.806429959 185.608494938 241.861212564 185.608108108 c 2,13,-1
 251.861212564 185.608108108 l 2,14,15
 329.736486486 185.608108108 329.736486486 185.608108108 343.28125 26.5 c 0,16,17
 345 -16.5 345 -16.5 349.573636304 -58.9553007927 c 128,-1,18
 354.147272608 -101.410601585 354.147272608 -101.410601585 354.147272608 -137.244847214 c 2,19,-1
 354.147272608 -138.244847214 l 2,20,21
 354.147272608 -299.064340324 354.147272608 -299.064340324 265.05078125 -337.5 c 0,22,23
 195.837569963 -367.723880597 195.837569963 -367.723880597 131.720849968 -367.723880597 c 2,24,-1
 121.720849968 -367.723880597 l 2,25,26
 90.3748979711 -367.723880597 90.3748979711 -367.723880597 60.2470703125 -360.5 c 0,27,28
 2 -346.5 2 -346.5 -18.958984375 -280.5 c 1,29,-1
 -28.2822265625 -232.5 l 2,30,31
 -29.9087171314 -224.45169192 -29.9087171314 -224.45169192 -29.9087171314 -220.200961983 c 128,-1,32
 -29.9087171314 -215.950232045 -29.9087171314 -215.950232045 -29.9035941001 -215.498458193 c 2,33,-1
 -29.9035941001 -214.498458193 l 2,34,35
 -29.9035941001 -200.406950274 -29.9035941001 -200.406950274 -23.990234375 -194.5 c 0,36,37
 -20.8648947011 -191.369565217 -20.8648947011 -191.369565217 -16.7767123996 -191.369565217 c 2,38,-1
 -6.77671239957 -191.369565217 l 2,39,40
 -3.02921195652 -191.369565217 -3.02921195652 -191.369565217 1.52734375 -194 c 0,41,42
 4 -195.5 4 -195.5 5.537109375 -204.5 c 0,43,44
 5.57606022823 -204.752440973 5.57606022823 -204.752440973 5.57606022823 -205.104011971 c 2,45,-1
 5.57606022823 -206.104011971 l 2,46,47
 5.57606022823 -209.930498846 5.57606022823 -209.930498846 0.9619140625 -225.5 c 0,48,49
 -6.8756748999 -255.031550708 -6.8756748999 -255.031550708 -1.8544921875 -276.5 c 0,50,51
 13 -339.5 13 -339.5 71.421875 -354.5 c 0,52,53
 98.8840150601 -361.47828189 98.8840150601 -361.47828189 127.285530064 -362.041337875 c 0,54,55
 187.665939961 -360.851214681 187.665939961 -360.851214681 252.243164062 -331 c 0,56,57
 337.771713902 -291.402253179 337.771713902 -291.402253179 337.908649015 -136.818081466 c 0,58,59
 337.877864438 -102.481992238 337.877864438 -102.481992238 335.438932219 -80.4909961191 c 128,-1,60
 333 -58.5 333 -58.5 326.641601562 23.5 c 0,61,62
 316.32039337 174.062998107 316.32039337 174.062998107 247.977532471 179.226107922 c 0,63,64
 229.811912735 177.931784617 229.811912735 177.931784617 208 167.5 c 1,65,-1
 198 167.5 l 1,66,-1
 194 172.5 l 1,67,-1
 194 173.5 l 1,68,69
 235 207.5 235 207.5 262 236.75 c 0,70,71
 315.661720667 295.313512458 315.661720667 295.313512458 315.936501624 393.06567418 c 0,72,73
 315.688326624 480.87469579 315.688326624 480.87469579 228.034670172 484.454754586 c 1,74,75
 173.944723932 482.040015846 173.944723932 482.040015846 135.897460938 426.5 c 0,76,77
 116.982421875 399.243164062 116.982421875 399.243164062 94.365234375 341.5 c 1,78,-1
 84.365234375 341.5 l 1,79,-1
 79.4697265625 344.5 l 1,80,-1
 79.4697265625 345.5 l 1,81,82
 99 397.5 99 397.5 121.870117188 431.5 c 0,83,84
 163.320485761 491.516129032 163.320485761 491.516129032 224.005169125 491.516129032 c 2,0,-1
EndSplineSet
EndChar

StartChar: uni0439
Encoding: 219 1081 220
Width: 536
GlyphClass: 2
Flags: W
LayerCount: 2
Fore
SplineSet
266.694286912 562.354022096 m 2
 256.694286912 562.354022096 l 2
 238.172595816 562.354022096 238.172595816 562.354022096 222 567.5 c 0
 183 581 183 581 182.906976744 594.197674419 c 2
 182.906976744 595.197674419 l 2
 182.906976744 595.848837209 182.906976744 595.848837209 183 596.5 c 0
 184.542857143 605.757142857 184.542857143 605.757142857 191.375510204 605.757142857 c 2
 201.375510204 605.757142857 l 2
 207.828571429 605.757142857 207.828571429 605.757142857 219 597.5 c 0
 250.564784698 574.051874225 250.564784698 574.051874225 287.009580487 572.563794934 c 0
 387.345903868 575.984269377 387.345903868 575.984269377 422 624.5 c 1
 432 624.5 l 1
 437 621.5 l 1
 437 620.5 l 1
 403 567.5 403 567.5 273 562.5 c 0
 269.813824618 562.354022096 269.813824618 562.354022096 266.694286912 562.354022096 c 2
EndSplineSet
Refer: 263 -1 N 1 0 0 1 3 0 2
EndChar

StartChar: uni043A
Encoding: 220 1082 221
Width: 551
GlyphClass: 2
Flags: W
LayerCount: 2
Fore
SplineSet
466 61.5 m 2,0,-1
 476 61.5 l 2,1,2
 480 61.5 480 61.5 485 56.5 c 0,3,4
 487 54.5 487 54.5 487 49.5 c 128,-1,5
 487 44.5 487 44.5 484 39.5 c 128,-1,6
 481 34.5 481 34.5 470 27.5 c 0,7,8
 425 -0.5 425 -0.5 397.599609375 -0.5 c 2,9,-1
 387.599609375 -0.5 l 2,10,11
 332 -0.5 332 -0.5 330 120.5 c 1,12,-1
 330 121.5 l 1,13,-1
 332 180.5 l 1,14,15
 331 286.5 331 286.5 223 291.566646008 c 0,16,17
 177.118075081 293.240344172 177.118075081 293.240344172 155.391387056 306.954881233 c 1,18,19
 130.09571882 274.940809269 130.09571882 274.940809269 105 188.5 c 0,20,21
 98 168.5 98 168.5 89 71.5 c 2,22,-1
 82 -0.5 l 1,23,-1
 55 -0.5 l 1,24,25
 74 116.5 74 116.5 82.044921875 169.5 c 0,26,27
 90 227.5 90 227.5 90.2711321948 227.5 c 2,28,-1
 117.456054688 473.5 l 1,29,-1
 118.389648438 491.5 l 1,30,-1
 134.456054688 491.5 l 1,31,-1
 134.456054688 490.5 l 1,32,33
 125.885787621 384.552875564 125.885787621 384.552875564 110.94040092 259.963505377 c 1,34,35
 127.881864855 298.656944932 127.881864855 298.656944932 149 322.5 c 0,36,37
 221 405.5 221 405.5 358 461.04151913 c 0,38,39
 386 472.5 386 472.5 422 486.5 c 1,40,-1
 432 486.5 l 1,41,-1
 434 480.5 l 1,42,43
 398 465.5 398 465.5 369 453.512787156 c 0,44,45
 227.546386551 395.723221174 227.546386551 395.723221174 164.419126245 317.107640506 c 1,46,47
 186.536554476 299.471280024 186.536554476 299.471280024 235 296.877192982 c 0,48,49
 347 291.5 347 291.5 350 181.5 c 1,50,-1
 350 180.5 l 1,51,-1
 347.007950093 122.653701792 l 1,52,53
 348.118881608 13.418309628 348.118881608 13.418309628 392.107573249 7.80417186806 c 1,54,55
 416.553786554 10.7158784327 416.553786554 10.7158784327 441 41.5 c 0,56,57
 455 58.5 455 58.5 457 60 c 0,58,59
 460 61.5 460 61.5 466 61.5 c 2,0,-1
EndSplineSet
EndChar

StartChar: uni043B
Encoding: 221 1083 222
Width: 540
GlyphClass: 2
Flags: W
LayerCount: 2
Fore
SplineSet
342.294921875 491.5 m 2,0,-1
 359.063476562 491.5 l 1,1,-1
 359.063476562 490.5 l 2,2,3
 358.444283754 487.300506684 358.444283754 487.300506684 348.4609375 361.5 c 1,4,-1
 342.017578125 226.5 l 2,5,6
 341.963413972 220.593852705 341.963413972 220.593852705 341.961153925 214.845541859 c 0,7,8
 342.039858797 15.1456203303 342.039858797 15.1456203303 405.062870167 6.85456507648 c 1,9,10
 427.818188518 10.0227383941 427.818188518 10.0227383941 453 41.5 c 0,11,12
 467 58.5 467 58.5 469 60 c 0,13,14
 472 61.5 472 61.5 478 61.5 c 2,15,-1
 488 61.5 l 2,16,17
 492 61.5 492 61.5 497 56.5 c 0,18,19
 499 54.5 499 54.5 499 49.5 c 128,-1,20
 499 44.5 499 44.5 496 39.5 c 128,-1,21
 493 34.5 493 34.5 482 27.5 c 0,22,23
 437 -0.5 437 -0.5 409.599609375 -0.5 c 2,24,-1
 399.599609375 -0.5 l 2,25,26
 324.153047744 -0.00101222575983 324.153047744 -0.00101222575983 324.153047744 208.724913474 c 0,27,28
 324.153047744 209.14832617 324.153047744 209.14832617 324.15335821 209.572595729 c 2,29,-1
 324.15335821 210.572595729 l 2,30,31
 324.15335821 219.352808587 324.15335821 219.352808587 324.28515625 228.5 c 2,32,-1
 331.606570417 368.140702013 l 1,33,34
 315.637010012 304.447503361 315.637010012 304.447503361 292.111328125 234.5 c 0,35,36
 213 -0.5 213 -0.5 104 -1.5 c 1,37,-1
 94 -1.5 l 2,38,39
 60 -1.5 60 -1.5 39 20.5 c 0,40,41
 22 38.5 22 38.5 20 54.5 c 1,42,-1
 20 55.5 l 1,43,-1
 26 57.5 l 1,44,-1
 36 57.5 l 1,45,46
 38 42.5 38 42.5 54.7316151169 24.8088261927 c 128,-1,47
 71.4632302338 7.11765238543 71.4632302338 7.11765238543 99.0637815966 5.63084022581 c 0,48,49
 202.770826387 11.00953634 202.770826387 11.00953634 275.567382812 237.5 c 0,50,51
 297 302.5 297 302.5 317.534596043 385.141892255 c 128,-1,52
 338.069192085 467.783784509 338.069192085 467.783784509 341.624885982 486.932001209 c 1,53,-1
 342 491.379882812 l 1,54,-1
 342.289335046 491.379882812 l 2,55,56
 342.292800324 491.44245118 342.292800324 491.44245118 342.294921875 491.5 c 2,0,-1
EndSplineSet
EndChar

